<?xml version="1.0" encoding="utf-8"?>
<!-- Generator: Adobe Illustrator 16.0.0, SVG Export Plug-In . SVG Version: 6.00 Build 0)  -->
<!DOCTYPE svg PUBLIC "-//W3C//DTD SVG 1.1//EN" "http://www.w3.org/Graphics/SVG/1.1/DTD/svg11.dtd">
<svg version="1.1" id="Layer_1" xmlns="http://www.w3.org/2000/svg" xmlns:xlink="http://www.w3.org/1999/xlink" x="0px" y="0px"
	 width="200px" height="200px" viewBox="0 0 200 200" enable-background="new 0 0 200 200" xml:space="preserve">
<g>
	<linearGradient id="SVGID_1_" gradientUnits="userSpaceOnUse" x1="0" y1="100.6621" x2="198.6719" y2="100.6621">
		<stop  offset="0" style="stop-color:#00A551"/>
		<stop  offset="1" style="stop-color:#73BE44"/>
	</linearGradient>
	<path fill="url(#SVGID_1_)" d="M99.335,1.325C44.474,1.325,0,45.801,0,100.661C0,155.525,44.474,200,99.335,200
		s99.336-44.475,99.336-99.339C198.672,45.801,154.197,1.325,99.335,1.325z M177.314,51.469c0.461,3.779,0.797,8.68,2.191,11.198
		c0.246,0.855,8.525,5.372,7.316,8.894c-0.457,3.779-1.305,8.617-0.551,11.394c0.031,0.893,6.988,7.256,4.973,10.388
		c-1.35,3.559-3.326,8.056-3.264,10.932c-0.18,0.875,5.051,8.718,2.346,11.275c-2.162,3.134-5.162,7.026-5.785,9.835
		c-0.385,0.806,2.818,9.672-0.422,11.51c-2.852,2.523-6.691,5.585-7.969,8.161c-0.568,0.69,0.42,10.067-3.166,11.072
		c-3.371,1.771-7.832,3.824-9.691,6.021c-0.717,0.535-2,9.875-5.723,9.993c-3.697,0.914-8.521,1.838-10.852,3.526
		c-0.82,0.349-4.305,9.111-7.949,8.335c-3.807,0-8.711-0.256-11.377,0.825c-0.879,0.142-6.359,7.814-9.711,6.189
		c-3.697-0.91-8.398-2.333-11.246-1.922c-0.891-0.073-8.046,6.066-10.91,3.688c-3.372-1.77-7.598-4.276-10.459-4.557
		c-0.846-0.285-9.264,3.963-11.478,0.968c-2.85-2.525-6.35-5.971-9.063-6.93c-0.752-0.478-9.943,1.632-11.375-1.806
		c-2.164-3.134-4.741-7.314-7.143-8.896c-0.617-0.646-10.045-0.797-10.612-4.475c-1.35-3.562-2.85-8.239-4.806-10.348
		c-0.445-0.773-9.563-3.176-9.233-6.886c-0.458-3.779-0.796-8.68-2.191-11.197c-0.244-0.854-8.525-5.37-7.315-8.895
		c0.458-3.777,1.304-8.615,0.552-11.393c-0.034-0.894-6.991-7.259-4.975-10.389c1.35-3.559,3.329-8.055,3.264-10.932
		c0.181-0.875-5.05-8.719-2.345-11.276c2.162-3.134,5.16-7.026,5.785-9.835c0.384-0.804-2.817-9.671,0.422-11.509
		c2.85-2.524,6.691-5.585,7.969-8.162c0.567-0.69-0.42-10.067,3.165-11.074c3.371-1.77,7.833-3.823,9.693-6.021
		c0.715-0.533,1.999-9.873,5.721-9.993c3.698-0.913,8.521-1.837,10.852-3.524c0.821-0.347,4.307-9.11,7.949-8.335
		c3.807,0,8.714,0.256,11.38-0.825c0.879-0.141,6.358-7.814,9.711-6.19c3.696,0.911,8.396,2.333,11.246,1.921
		c0.888,0.073,8.043-6.064,10.911-3.686c3.371,1.768,7.596,4.274,10.457,4.556c0.846,0.285,9.264-3.962,11.477-0.968
		c2.85,2.525,6.354,5.969,9.066,6.928c0.752,0.479,9.941-1.632,11.373,1.806c2.164,3.134,4.738,7.315,7.143,8.898
		c0.615,0.645,10.045,0.794,10.611,4.475c1.352,3.56,2.85,8.237,4.809,10.346C168.527,45.356,177.645,47.76,177.314,51.469z"/>
</g>
<g>
	<linearGradient id="SVGID_2_" gradientUnits="userSpaceOnUse" x1="25.104" y1="100.6631" x2="173.5674" y2="100.6631">
		<stop  offset="0" style="stop-color:#00A551"/>
		<stop  offset="1" style="stop-color:#73BE44"/>
	</linearGradient>
	<path fill="url(#SVGID_2_)" d="M173.176,98.889c2.07-0.669-4.785-0.482-3.91-2.115c-0.916-1.499,2.723-1.709,3.656-2.514
		c2.018-0.801-4.809-0.182-4.039-1.869c-1.008-1.438,2.609-1.878,3.488-2.74c1.971-0.927-4.807,0.12-4.145-1.61
		c-1.098-1.373,2.486-2.036,3.311-2.955c1.906-1.048-4.791,0.422-4.24-1.347c-1.176-1.299,2.354-2.189,3.121-3.157
		c1.836-1.165-4.758,0.723-4.314-1.074c-1.26-1.226,2.209-2.337,2.912-3.349c1.758-1.278-4.701,1.021-4.377-0.803
		c-1.33-1.143,2.063-2.468,2.701-3.523c1.676-1.39-4.627,1.314-4.416-0.528c-1.4-1.058,1.902-2.591,2.471-3.686
		c1.584-1.488-4.537,1.604-4.439-0.25c-1.467-0.966,1.734-2.705,2.232-3.832c1.494-1.588-4.426,1.882-4.445,0.031
		c-1.523-0.875,1.563-2.811,1.988-3.968c1.389-1.676-4.297,2.158-4.434,0.31c-1.574-0.775,1.381-2.904,1.736-4.084
		c1.279-1.759-4.154,2.424-4.408,0.587c-1.619-0.674,1.195-2.983,1.477-4.183c1.168-1.836-3.994,2.681-4.363,0.862
		c-1.658-0.573,1.008-3.052,1.211-4.268c1.051-1.908-3.818,2.926-4.297,1.136c-1.695-0.468,0.814-3.113,0.939-4.338
		c0.926-1.968-3.627,3.159-4.221,1.404c-1.717-0.362,0.617-3.156,0.668-4.389c0.801-2.023-3.422,3.383-4.125,1.667
		c-1.736-0.251,0.418-3.188,0.391-4.418c0.674-2.07-3.203,3.588-4.012,1.919c-1.748-0.142,0.217-3.208,0.111-4.437
		c0.545-2.107-2.971,3.785-3.879,2.17c-1.756-0.033,0.014-3.216-0.168-4.434c0.408-2.139-2.729,3.963-3.74,2.405
		c-1.756,0.081-0.186-3.207-0.445-4.413c0.273-2.159-2.471,4.125-3.578,2.637c-1.748,0.189-0.389-3.19-0.721-4.377
		c0.135-2.171-2.211,4.272-3.408,2.857c-1.732,0.297-0.59-3.162-0.994-4.325c0-2.176-1.939,4.401-3.223,3.065
		c-1.707,0.406-0.785-3.118-1.266-4.252c-0.135-2.173-1.654,4.516-3.021,3.259c-1.68,0.514-0.979-3.061-1.529-4.164
		c-0.271-2.159-1.369,4.613-2.811,3.445c-1.643,0.618-1.17-2.996-1.787-4.059c-0.408-2.139-1.078,4.686-2.592,3.612
		c-1.602,0.719-1.355-2.915-2.037-3.938c-0.539-2.112-0.781,4.743-2.358,3.769c-1.555,0.817-1.537-2.827-2.284-3.805
		c-0.668-2.071-0.479,4.783-2.114,3.909c-1.501,0.915-1.711-2.721-2.52-3.653c-0.798-2.023-0.18,4.808-1.864,4.038
		c-1.44,1.006-1.878-2.609-2.741-3.49c-0.927-1.971,0.122,4.809-1.608,4.145c-1.373,1.096-2.038-2.484-2.955-3.308
		c-1.05-1.909,0.422,4.788-1.348,4.237c-1.299,1.178-2.189-2.353-3.157-3.118c-1.163-1.837,0.724,4.755-1.076,4.314
		c-1.226,1.258-2.334-2.213-3.348-2.913c-1.278-1.76,1.021,4.701-0.801,4.375c-1.146,1.332-2.47-2.06-3.525-2.7
		c-1.387-1.676,1.314,4.629-0.528,4.418c-1.06,1.399-2.592-1.903-3.686-2.473c-1.488-1.587,1.603,4.536-0.248,4.439
		c-0.968,1.465-2.705-1.734-3.833-2.233c-1.586-1.493,1.883,4.425,0.03,4.448c-0.873,1.522-2.812-1.563-3.967-1.993
		c-1.675-1.385,2.158,4.301,0.31,4.438c-0.775,1.576-2.901-1.382-4.082-1.737c-1.761-1.279,2.424,4.155,0.589,4.409
		c-0.679,1.618-2.985-1.198-4.187-1.478c-1.837-1.168,2.68,3.994,0.863,4.362c-0.574,1.659-3.054-1.007-4.269-1.212
		c-1.906-1.049,2.926,3.818,1.136,4.302c-0.468,1.69-3.113-0.813-4.338-0.94c-1.969-0.927,3.16,3.626,1.405,4.216
		c-0.361,1.72-3.158-0.613-4.389-0.665c-2.021-0.801,3.38,3.422,1.667,4.124c-0.252,1.738-3.189-0.418-4.421-0.392
		c-2.068-0.671,3.589,3.205,1.919,4.014c-0.141,1.75-3.207-0.217-4.435-0.112c-2.106-0.542,3.784,2.97,2.17,3.881
		c-0.035,1.754-3.216-0.015-4.435,0.166c-2.138-0.407,3.963,2.729,2.406,3.739c0.08,1.757-3.209,0.187-4.414,0.445
		c-2.159-0.272,4.123,2.473,2.637,3.579c0.189,1.747-3.189,0.391-4.377,0.722c-2.172-0.137,4.275,2.21,2.857,3.409
		c0.298,1.732-3.159,0.586-4.324,0.995c-2.177-0.003,4.402,1.936,3.065,3.221c0.407,1.707-3.117,0.785-4.25,1.266
		c-2.173,0.134,4.516,1.655,3.261,3.021c0.509,1.681-3.066,0.979-4.168,1.529c-2.156,0.271,4.613,1.369,3.448,2.811
		c0.615,1.644-2.995,1.17-4.061,1.789c-2.139,0.407,4.689,1.078,3.614,2.589c0.72,1.603-2.915,1.355-3.94,2.038
		c-2.109,0.541,4.745,0.782,3.771,2.36c0.817,1.553-2.823,1.531-3.805,2.28c-2.068,0.672,4.785,0.482,3.91,2.116
		c0.915,1.502-2.72,1.711-3.652,2.516c-2.024,0.8,4.806,0.182,4.036,1.87c1.006,1.436-2.609,1.875-3.49,2.738
		c-1.972,0.927,4.81-0.12,4.145,1.61c1.097,1.373-2.485,2.034-3.31,2.955c-1.906,1.047,4.791-0.424,4.24,1.347
		c1.179,1.301-2.353,2.188-3.119,3.157c-1.837,1.163,4.756-0.724,4.315,1.073c1.257,1.227-2.21,2.338-2.913,3.351
		c-1.761,1.279,4.7-1.024,4.372,0.802c1.333,1.146-2.059,2.468-2.697,3.522c-1.674,1.387,4.626-1.314,4.417,0.529
		c1.402,1.06-1.901,2.592-2.472,3.685c-1.585,1.49,4.537-1.603,4.441,0.248c1.465,0.97-1.736,2.708-2.235,3.835
		c-1.489,1.588,4.424-1.884,4.447-0.03c1.522,0.872-1.563,2.811-1.99,3.966c-1.389,1.681,4.299-2.156,4.437-0.309
		c1.573,0.773-1.383,2.901-1.736,4.084c-1.281,1.76,4.155-2.425,4.408-0.589c1.62,0.679-1.201,2.984-1.478,4.188
		c-1.167,1.837,3.994-2.683,4.363-0.865c1.66,0.573-1.009,3.052-1.211,4.271c-1.05,1.907,3.818-2.928,4.299-1.139
		c1.69,0.468-0.813,3.114-0.943,4.34c-0.924,1.968,3.631-3.159,4.219-1.406c1.719,0.364-0.613,3.158-0.663,4.39
		c-0.802,2.021,3.421-3.381,4.124-1.665c1.735,0.252-0.419,3.189-0.392,4.42c-0.67,2.068,3.203-3.59,4.011-1.922
		c1.749,0.142-0.215,3.209-0.11,4.436c-0.544,2.108,2.97-3.782,3.881-2.166c1.755,0.031-0.013,3.213,0.167,4.432
		c-0.405,2.141,2.728-3.962,3.74-2.406c1.755-0.079,0.186,3.208,0.443,4.416c-0.271,2.157,2.476-4.127,3.583-2.64
		c1.744-0.188,0.385,3.19,0.718,4.377c-0.136,2.173,2.212-4.271,3.409-2.855c1.729-0.3,0.588,3.161,0.993,4.321
		c0,2.18,1.937-4.402,3.225-3.063c1.707-0.408,0.783,3.118,1.263,4.253c0.135,2.173,1.658-4.517,3.023-3.261
		c1.679-0.514,0.98,3.062,1.531,4.165c0.271,2.159,1.371-4.609,2.807-3.445c1.647-0.618,1.171,2.991,1.792,4.06
		c0.407,2.139,1.078-4.689,2.588-3.612c1.603-0.723,1.356,2.913,2.04,3.938c0.54,2.109,0.779-4.744,2.357-3.771
		c1.555-0.817,1.534,2.826,2.284,3.806c0.668,2.07,0.48-4.786,2.115-3.911c1.498-0.915,1.709,2.723,2.516,3.654
		c0.801,2.021,0.182-4.81,1.865-4.038c1.439-1.005,1.879,2.608,2.74,3.49c0.928,1.969-0.119-4.811,1.613-4.146
		c1.371-1.094,2.035,2.485,2.953,3.311c1.047,1.905-0.424-4.79,1.346-4.24c1.301-1.177,2.191,2.354,3.158,3.119
		c1.164,1.838-0.723-4.759,1.074-4.315c1.227-1.258,2.334,2.212,3.348,2.913c1.281,1.76-1.021-4.7,0.805-4.374
		c1.145-1.331,2.469,2.062,3.523,2.699c1.387,1.677-1.314-4.627,0.527-4.416c1.057-1.398,2.592,1.902,3.686,2.472
		c1.49,1.587-1.604-4.537,0.246-4.44c0.971-1.464,2.709,1.736,3.836,2.234c1.588,1.491-1.883-4.426-0.031-4.448
		c0.875-1.521,2.811,1.563,3.967,1.991c1.676,1.39-2.156-4.3-0.311-4.438c0.777-1.572,2.906,1.383,4.086,1.739
		c1.76,1.279-2.424-4.156-0.586-4.408c0.674-1.622,2.982,1.199,4.182,1.477c1.84,1.167-2.68-3.994-0.861-4.363
		c0.572-1.66,3.051,1.011,4.266,1.214c1.908,1.046-2.924-3.821-1.133-4.3c0.469-1.692,3.109,0.812,4.338,0.939
		c1.969,0.926-3.156-3.627-1.404-4.22c0.361-1.719,3.156,0.616,4.387,0.665c2.023,0.803-3.377-3.419-1.664-4.124
		c0.252-1.736,3.188,0.419,4.422,0.392c2.068,0.672-3.59-3.202-1.922-4.011c0.143-1.75,3.207,0.216,4.436,0.11
		c2.107,0.543-3.783-2.968-2.17-3.881c0.033-1.754,3.215,0.013,4.436-0.168c2.137,0.408-3.963-2.728-2.408-3.738
		c-0.078-1.755,3.209-0.185,4.414-0.444c2.158,0.271-4.125-2.474-2.637-3.58c-0.189-1.746,3.191-0.39,4.379-0.72
		c2.17,0.135-4.273-2.214-2.859-3.41c-0.297-1.729,3.162-0.588,4.326-0.996c2.174,0-4.404-1.934-3.066-3.217
		c-0.408-1.71,3.117-0.787,4.25-1.265c2.176-0.138-4.516-1.659-3.26-3.025c-0.512-1.679,3.061-0.979,4.166-1.528
		c2.158-0.272-4.613-1.371-3.445-2.811c-0.619-1.644,2.994-1.17,4.061-1.789c2.139-0.408-4.689-1.076-3.615-2.588
		c-0.719-1.604,2.916-1.357,3.939-2.041c2.109-0.541-4.744-0.781-3.768-2.357C168.553,99.619,172.195,99.641,173.176,98.889z
		 M66.313,120.921l-23.169-0.304l16.4-16.399l6.916,0.132L66.313,120.921z M66.313,99.557l-23.169-0.304l16.4-16.4l6.916,0.134
		L66.313,99.557z M126.479,134.809l-39.659-32.423l-0.241,31.884l-15.474-0.137l0.567-63.509l39.707,30.214l0.262-28.969
		l15.396,0.228L126.479,134.809z M138.066,121.809l-6.918-0.134l0.15-16.567l23.168,0.3L138.066,121.809z M138.066,100.445
		l-6.918-0.134l0.15-16.567l23.168,0.301L138.066,100.445z"/>
</g>
<path fill-rule="evenodd" clip-rule="evenodd" fill="#58595B" d="M99.335,22.889c42.954,0,77.776,34.82,77.776,77.773
	c0,42.953-34.822,77.775-77.776,77.775c-42.953,0-77.774-34.822-77.774-77.775C21.561,57.709,56.382,22.889,99.335,22.889
	 M99.335,18.479c45.389,0,82.184,36.795,82.184,82.183c0,45.389-36.795,82.184-82.184,82.184c-45.388,0-82.181-36.795-82.181-82.184
	C17.154,55.274,53.947,18.479,99.335,18.479z"/>
</svg>
