<?xml version="1.0" encoding="utf-8"?>
<!-- Generator: Adobe Illustrator 16.0.0, SVG Export Plug-In . SVG Version: 6.00 Build 0)  -->
<!DOCTYPE svg PUBLIC "-//W3C//DTD SVG 1.1//EN" "http://www.w3.org/Graphics/SVG/1.1/DTD/svg11.dtd">
<svg version="1.1" id="Layer_2" xmlns="http://www.w3.org/2000/svg" xmlns:xlink="http://www.w3.org/1999/xlink" x="0px" y="0px"
	 width="125px" height="100px" viewBox="0 0 125 100" enable-background="new 0 0 125 100" xml:space="preserve">
<g>
	<path fill-rule="evenodd" clip-rule="evenodd" fill="#58595B" d="M75.127,52.545c-0.205-0.415-0.364-0.665-0.592-1.043
		c-1.512-2.513-2.329-3.464-4.083-5.636c-0.815-1.012-3.994-4.388-4.749-4.971c-0.373-0.288-0.528-0.516-0.856-0.778l-2.687-2.219
		c-1.124-0.878-2.593-1.877-3.828-2.622c-1.908-1.149-4.923-2.686-7.125-2.686c-1.861,0-2.904,0.372-3.646,2.44
		c-0.433,1.204-0.806,2.901-0.806,4.555c0,4.88,0.456,7.425,2.363,11.718c0.393,0.882,1.419,2.53,1.984,3.284
		c2.654,3.532,5.969,5.804,10.22,7.223c3.628,1.21,8.521,1.715,12.178,0.796c1.723-0.434,3.688-1.158,3.688-3.307
		c0-2.08-0.253-2.759-1.011-4.623C75.696,53.498,75.573,53.447,75.127,52.545z M73.482,58.136c-1.702,2.199-7.851-1.854-8.884-2.601
		c-2.197-1.59-2.997-2.391-4.88-4.113l-0.283-0.262c-0.014-0.012-0.034-0.031-0.048-0.043c-1-0.881-3.182-3.392-4.014-4.434
		c-0.407-0.509-0.722-0.974-1.117-1.519c-1.038-1.436-3.231-4.848-3.231-7.124c0-2.042,1.484-2.457,3.413-1.96
		c2.746,0.707,7.593,3.981,9.647,6.07l0.771,0.683c0.987,0.87,1.896,1.947,2.818,2.905l1.934,2.335
		C71.009,49.936,75.317,55.762,73.482,58.136z"/>
	<path fill-rule="evenodd" clip-rule="evenodd" fill="#58595B" d="M51.092,57.597c-1.795-1.787-3.68-5.107-4.529-7.463
		c-0.196-0.543-0.38-1-0.555-1.626l-0.417-1.491c-0.007-0.021-0.009-0.029-0.015-0.045c-0.008-0.02-0.019-0.045-0.036-0.087
		l-0.058-0.123c-0.268,1.15-0.473,1.518-0.795,3.111c-0.225,1.109-0.386,2.317-0.386,3.612c0,2.069,0.103,3.833,0.818,5.633
		c0.404,1.014,0.697,1.695,1.401,2.596c0.644,0.821,1.146,1.327,2.067,1.929c0.582,0.38,1.149,0.637,1.802,0.924
		c2.64,1.164,6.752,1.097,9.606,0.524c0.411-0.083,2.757-0.526,3.02-0.886c-1.201-0.027-5.356-1.725-6.375-2.345
		C53.91,60.197,53.708,60.199,51.092,57.597z"/>
	<path fill-rule="evenodd" clip-rule="evenodd" fill="#58595B" d="M45.577,46.972C45.638,47.114,45.497,46.722,45.577,46.972
		L45.577,46.972z"/>
	<path fill-rule="evenodd" clip-rule="evenodd" fill="#58595B" d="M59.655,43.945c-1.602,0-2.623,0.85-3.271,1.817
		c0.014,0.016,0.036,0.021,0.042,0.049l1.646,2.079c1.039,1.337,3.587,3.722,4.852,4.688c0.338,0.258,0.742,0.581,1.092,0.815
		c0.553-0.293,0.916-0.673,1.258-1.196C67.297,49.084,63.678,43.945,59.655,43.945z"/>
	<path fill-rule="evenodd" clip-rule="evenodd" fill="#58595B" d="M63.288,35.588c1.649,0,1.275-1.892,1.271-2.998
		c-0.002-0.792,0.095-1.206,0.092-1.999c-0.007-1.838,0.362-3.271-1.363-3.271c-0.363,0-0.666,0.226-0.825,0.447
		c-0.433,0.602-0.267,2.707-0.264,3.732C62.201,32.985,61.572,35.588,63.288,35.588z"/>
	<path fill-rule="evenodd" clip-rule="evenodd" fill="#58595B" d="M81.094,45.126h-5.542c-0.638,0-1.362,0.486-1.362,1.09
		c0,0.783,0.404,1.363,1.091,1.363h6.086C82.771,47.579,82.95,45.126,81.094,45.126z"/>
	<path fill-rule="evenodd" clip-rule="evenodd" fill="#58595B" d="M71.737,39.312c0.671,0,2.315-1.906,2.839-2.43
		c0.461-0.461,0.855-0.856,1.316-1.317c0.459-0.458,1.739-1.409,0.778-2.459c-0.904-0.989-2.071,0.3-2.503,0.733
		c-0.645,0.644-3.703,3.4-3.703,4.111C70.465,38.791,70.839,39.312,71.737,39.312z"/>
	<path fill-rule="evenodd" clip-rule="evenodd" fill="#58595B" d="M62.436,20.5c-16.439,0-29.768,13.328-29.768,29.769
		c0,16.441,13.328,29.77,29.768,29.77c16.441,0,29.77-13.328,29.77-29.77C92.205,33.828,78.877,20.5,62.436,20.5z M89.704,54.73
		c-0.647,0.939-1.546,2.106-1.733,2.946c-0.115,0.242,0.845,2.9-0.127,3.449c-0.854,0.756-2.005,1.675-2.389,2.447
		c-0.169,0.206,0.126,3.017-0.947,3.317c-1.011,0.531-2.348,1.146-2.904,1.805c-0.215,0.16-0.6,2.959-1.716,2.994
		c-1.107,0.274-2.554,0.552-3.252,1.057c-0.245,0.104-1.29,2.73-2.382,2.498c-1.142,0-2.609-0.077-3.409,0.247
		c-0.265,0.042-1.906,2.342-2.911,1.855c-1.108-0.272-2.517-0.699-3.37-0.576c-0.266-0.022-2.41,1.817-3.269,1.105
		c-1.011-0.53-2.277-1.282-3.134-1.366c-0.254-0.085-2.776,1.188-3.439,0.29c-0.854-0.756-1.904-1.789-2.716-2.076
		c-0.226-0.144-2.979,0.489-3.409-0.541c-0.648-0.938-1.42-2.192-2.14-2.666c-0.185-0.193-3.01-0.239-3.181-1.342
		c-0.405-1.066-0.854-2.468-1.44-3.101c-0.133-0.23-2.866-0.952-2.767-2.063c-0.139-1.133-0.239-2.602-0.657-3.356
		c-0.074-0.256-2.555-1.609-2.193-2.665c0.139-1.133,0.391-2.581,0.166-3.416c-0.01-0.266-2.094-2.174-1.491-3.112
		c0.405-1.065,0.997-2.413,0.978-3.275c0.054-0.263-1.514-2.613-0.703-3.379c0.649-0.939,1.547-2.105,1.734-2.948
		c0.115-0.241-0.845-2.898,0.127-3.448c0.854-0.757,2.005-1.674,2.388-2.446c0.17-0.207-0.126-3.017,0.949-3.318
		c1.01-0.531,2.347-1.146,2.904-1.804c0.215-0.16,0.6-2.959,1.715-2.996c1.108-0.273,2.554-0.55,3.252-1.056
		c0.247-0.104,1.291-2.73,2.382-2.498c1.142,0,2.611,0.077,3.411-0.247c0.263-0.042,1.906-2.342,2.91-1.855
		c1.108,0.272,2.517,0.698,3.371,0.576c0.266,0.022,2.41-1.818,3.27-1.105c1.01,0.53,2.275,1.281,3.134,1.366
		c0.253,0.085,2.776-1.188,3.439-0.291c0.854,0.757,1.902,1.789,2.717,2.077c0.225,0.144,2.979-0.489,3.408,0.541
		c0.649,0.939,1.42,2.192,2.141,2.667c0.185,0.193,3.01,0.238,3.181,1.341c0.404,1.067,0.854,2.469,1.439,3.101
		c0.133,0.232,2.865,0.952,2.768,2.063c0.137,1.133,0.238,2.601,0.655,3.355c0.073,0.257,2.555,1.61,2.193,2.666
		c-0.138,1.132-0.391,2.583-0.165,3.415c0.01,0.268,2.095,2.175,1.49,3.113c-0.404,1.067-0.997,2.415-0.978,3.276
		C88.948,51.613,90.515,53.965,89.704,54.73z"/>
</g>
</svg>
