<?xml version="1.0" encoding="utf-8"?>
<!-- Generator: Adobe Illustrator 16.0.0, SVG Export Plug-In . SVG Version: 6.00 Build 0)  -->
<!DOCTYPE svg PUBLIC "-//W3C//DTD SVG 1.1//EN" "http://www.w3.org/Graphics/SVG/1.1/DTD/svg11.dtd">
<svg version="1.1" id="Layer_2" xmlns="http://www.w3.org/2000/svg" xmlns:xlink="http://www.w3.org/1999/xlink" x="0px" y="0px"
	 width="125px" height="100px" viewBox="0 0 125 100" enable-background="new 0 0 125 100" xml:space="preserve">
<g>
	<path fill-rule="evenodd" clip-rule="evenodd" fill="#58595B" d="M62.269,20.484c-16.533,0-29.936,13.403-29.936,29.936
		c0,16.534,13.403,29.938,29.936,29.938c16.534,0,29.936-13.403,29.936-29.938C92.205,33.887,78.803,20.484,62.269,20.484z
		 M89.689,54.907c-0.651,0.944-1.555,2.116-1.742,2.964c-0.116,0.242,0.85,2.915-0.126,3.47c-0.861,0.759-2.017,1.681-2.402,2.459
		c-0.172,0.207,0.126,3.034-0.955,3.337c-1.015,0.532-2.36,1.152-2.922,1.813c-0.214,0.162-0.601,2.979-1.724,3.015
		c-1.114,0.274-2.567,0.552-3.27,1.059c-0.248,0.105-1.297,2.748-2.395,2.514c-1.147,0-2.626-0.076-3.43,0.249
		c-0.265,0.042-1.916,2.354-2.926,1.865c-1.116-0.273-2.532-0.703-3.391-0.58c-0.268-0.021-2.424,1.829-3.287,1.111
		c-1.016-0.531-2.29-1.289-3.152-1.373c-0.255-0.086-2.792,1.195-3.459,0.291c-0.858-0.759-1.914-1.798-2.731-2.088
		c-0.227-0.144-2.996,0.494-3.428-0.543c-0.652-0.945-1.428-2.205-2.152-2.681c-0.186-0.194-3.028-0.239-3.199-1.35
		c-0.407-1.071-0.859-2.481-1.448-3.118c-0.134-0.232-2.881-0.957-2.782-2.074c-0.139-1.139-0.24-2.615-0.66-3.375
		c-0.073-0.258-2.569-1.619-2.205-2.68c0.138-1.139,0.393-2.598,0.167-3.435c-0.01-0.27-2.106-2.187-1.499-3.13
		c0.406-1.073,1.003-2.428,0.983-3.295c0.055-0.264-1.521-2.628-0.706-3.398c0.651-0.944,1.555-2.117,1.743-2.964
		c0.117-0.243-0.85-2.915,0.127-3.468c0.858-0.76,2.017-1.683,2.402-2.46c0.171-0.208-0.127-3.034,0.953-3.337
		c1.017-0.533,2.361-1.152,2.921-1.814c0.216-0.161,0.603-2.976,1.725-3.012c1.113-0.275,2.567-0.554,3.27-1.062
		c0.248-0.104,1.297-2.745,2.396-2.512c1.147,0,2.625,0.078,3.429-0.249c0.265-0.042,1.917-2.354,2.927-1.865
		c1.114,0.274,2.531,0.704,3.389,0.58c0.268,0.022,2.424-1.828,3.288-1.111c1.017,0.533,2.289,1.289,3.152,1.373
		c0.255,0.086,2.791-1.194,3.459-0.292c0.858,0.761,1.914,1.799,2.731,2.088c0.228,0.145,2.995-0.492,3.428,0.544
		c0.651,0.945,1.429,2.205,2.151,2.682c0.188,0.194,3.028,0.239,3.199,1.349c0.407,1.072,0.859,2.481,1.449,3.117
		c0.133,0.233,2.882,0.958,2.781,2.075c0.138,1.14,0.24,2.616,0.661,3.375c0.074,0.258,2.569,1.619,2.205,2.68
		c-0.139,1.139-0.396,2.598-0.168,3.434c0.011,0.269,2.107,2.187,1.5,3.13c-0.408,1.073-1.004,2.428-0.983,3.294
		C88.93,51.772,90.507,54.136,89.689,54.907z"/>
	<path fill-rule="evenodd" clip-rule="evenodd" fill="#58595B" d="M78.629,37.085c-0.486-0.203,0.361-0.898,0.446-1.26
		c0.353-0.554-1.204,0.807-1.314,0.259c-0.501-0.172,0.304-0.919,0.365-1.286c0.315-0.575-1.15,0.882-1.297,0.342
		c-0.51-0.141,0.246-0.939,0.284-1.308c0.279-0.593-1.092,0.953-1.271,0.424c-0.518-0.109,0.187-0.951,0.2-1.323
		c0.241-0.609-1.031,1.02-1.242,0.502c-0.522-0.076,0.126-0.961,0.118-1.331c0.203-0.625-0.966,1.081-1.209,0.578
		c-0.528-0.043,0.064-0.967,0.033-1.338c0.164-0.634-0.896,1.141-1.17,0.655c-0.529-0.01,0.005-0.97-0.05-1.337
		c0.122-0.644-0.823,1.195-1.129,0.726c-0.527,0.024-0.054-0.966-0.133-1.33c0.083-0.65-0.745,1.244-1.079,0.795
		c-0.525,0.057-0.116-0.962-0.216-1.319c0.04-0.655-0.666,1.288-1.027,0.861c-0.522,0.09-0.178-0.953-0.302-1.303
		c0-0.655-0.583,1.327-0.97,0.924c-0.516,0.123-0.235-0.939-0.382-1.281c-0.039-0.655-0.498,1.361-0.91,0.982
		c-0.506,0.155-0.295-0.922-0.459-1.254c-0.084-0.651-0.414,1.39-0.848,1.038c-0.495,0.186-0.353-0.902-0.539-1.223
		c-0.121-0.645-0.324,1.412-0.781,1.088c-0.482,0.217-0.408-0.878-0.614-1.187c-0.162-0.636-0.235,1.431-0.71,1.136
		c-0.468,0.246-0.463-0.852-0.688-1.146c-0.202-0.625-0.145,1.442-0.638,1.178c-0.451,0.275-0.515-0.82-0.759-1.101
		c-0.241-0.61-0.054,1.448-0.562,1.216c-0.434,0.303-0.566-0.786-0.826-1.052c-0.279-0.593,0.037,1.45-0.485,1.25
		c-0.413,0.33-0.614-0.75-0.89-0.998c-0.316-0.575,0.127,1.443-0.406,1.277c-0.392,0.355-0.66-0.709-0.951-0.939
		c-0.351-0.554,0.218,1.433-0.325,1.3c-0.369,0.379-0.703-0.667-1.008-0.877c-0.386-0.531,0.308,1.417-0.242,1.318
		c-0.345,0.401-0.744-0.621-1.063-0.814c-0.417-0.504,0.397,1.396-0.158,1.332c-0.319,0.421-0.781-0.573-1.111-0.745
		c-0.449-0.478,0.482,1.367-0.075,1.338c-0.292,0.441-0.815-0.522-1.155-0.673c-0.478-0.45,0.567,1.333,0.008,1.34
		c-0.262,0.459-0.847-0.47-1.195-0.6c-0.504-0.417,0.65,1.296,0.093,1.337c-0.234,0.475-0.875-0.417-1.23-0.523
		c-0.531-0.386,0.73,1.252,0.177,1.329c-0.204,0.488-0.899-0.361-1.261-0.446c-0.554-0.351,0.808,1.204,0.26,1.315
		c-0.173,0.5-0.921-0.303-1.286-0.365c-0.575-0.316,0.881,1.15,0.342,1.296c-0.141,0.509-0.938-0.246-1.307-0.283
		c-0.593-0.28,0.952,1.093,0.423,1.271c-0.108,0.518-0.951-0.185-1.322-0.201c-0.609-0.241,1.019,1.032,0.503,1.243
		c-0.077,0.523-0.961-0.126-1.333-0.118c-0.624-0.203,1.081,0.966,0.578,1.209c-0.043,0.527-0.966-0.065-1.336-0.033
		c-0.635-0.164,1.14,0.895,0.654,1.169c-0.01,0.529-0.97-0.004-1.337,0.05c-0.644-0.122,1.195,0.822,0.725,1.127
		c0.024,0.53-0.966,0.057-1.33,0.134c-0.65-0.082,1.243,0.747,0.795,1.08c0.057,0.526-0.961,0.117-1.319,0.217
		c-0.655-0.041,1.288,0.666,0.861,1.027c0.09,0.522-0.952,0.177-1.303,0.3c-0.656-0.001,1.327,0.583,0.923,0.971
		c0.123,0.514-0.939,0.236-1.281,0.38c-0.655,0.042,1.361,0.5,0.982,0.911c0.154,0.507-0.923,0.294-1.255,0.461
		c-0.65,0.081,1.39,0.412,1.038,0.846c0.186,0.496-0.901,0.353-1.223,0.539c-0.646,0.123,1.413,0.325,1.088,0.781
		c0.217,0.483-0.878,0.408-1.187,0.614c-0.636,0.163,1.43,0.236,1.135,0.711c0.248,0.468-0.85,0.461-1.146,0.687
		c-0.624,0.202,1.442,0.146,1.178,0.639c0.276,0.452-0.82,0.516-1.101,0.758c-0.61,0.24,1.449,0.055,1.217,0.563
		c0.303,0.434-0.787,0.564-1.053,0.826c-0.594,0.278,1.45-0.037,1.25,0.485c0.33,0.414-0.75,0.613-0.999,0.891
		c-0.574,0.315,1.444-0.129,1.278,0.406c0.355,0.393-0.709,0.658-0.941,0.951c-0.552,0.35,1.434-0.218,1.301,0.323
		c0.378,0.369-0.667,0.704-0.878,1.009c-0.53,0.386,1.417-0.309,1.318,0.242c0.4,0.346-0.621,0.745-0.813,1.062
		c-0.505,0.418,1.395-0.396,1.331,0.159c0.422,0.32-0.573,0.78-0.745,1.11c-0.478,0.449,1.366-0.482,1.338,0.074
		c0.441,0.293-0.523,0.817-0.673,1.158c-0.45,0.478,1.333-0.568,1.34-0.01c0.458,0.262-0.472,0.846-0.6,1.194
		c-0.418,0.506,1.296-0.65,1.337-0.093c0.475,0.234-0.417,0.874-0.523,1.229c-0.386,0.53,1.252-0.729,1.328-0.177
		c0.489,0.205-0.361,0.899-0.445,1.263c-0.351,0.553,1.204-0.808,1.314-0.261c0.501,0.172-0.304,0.919-0.365,1.287
		c-0.316,0.574,1.151-0.882,1.296-0.344c0.509,0.142-0.246,0.938-0.284,1.309c-0.279,0.593,1.094-0.952,1.271-0.425
		c0.519,0.109-0.185,0.952-0.2,1.322c-0.241,0.61,1.032-1.018,1.243-0.501c0.524,0.076-0.125,0.961-0.118,1.332
		c-0.202,0.623,0.966-1.082,1.209-0.578c0.527,0.041-0.066,0.966-0.034,1.337c-0.164,0.633,0.895-1.141,1.169-0.654
		c0.53,0.01-0.003,0.969,0.051,1.336c-0.122,0.646,0.822-1.194,1.127-0.727c0.529-0.021,0.056,0.968,0.134,1.332
		c-0.083,0.65,0.745-1.244,1.079-0.796c0.526-0.056,0.116,0.962,0.217,1.319c-0.041,0.655,0.667-1.287,1.027-0.861
		c0.521-0.089,0.177,0.953,0.299,1.305c0,0.655,0.583-1.327,0.972-0.925c0.514-0.124,0.236,0.94,0.38,1.281
		c0.042,0.656,0.5-1.36,0.911-0.981c0.506-0.155,0.295,0.923,0.462,1.254c0.082,0.65,0.413-1.389,0.846-1.037
		c0.496-0.188,0.353,0.9,0.54,1.223c0.123,0.646,0.325-1.413,0.781-1.089c0.483-0.216,0.409,0.878,0.614,1.188
		c0.163,0.635,0.235-1.431,0.71-1.136c0.47-0.246,0.462,0.851,0.689,1.146c0.201,0.624,0.144-1.441,0.636-1.179
		c0.453-0.274,0.516,0.821,0.759,1.102c0.241,0.61,0.055-1.448,0.563-1.215c0.433-0.305,0.565,0.785,0.827,1.051
		c0.277,0.593-0.037-1.45,0.485-1.249c0.414-0.331,0.613,0.748,0.889,0.997c0.315,0.574-0.127-1.445,0.406-1.277
		c0.392-0.356,0.66,0.709,0.951,0.94c0.352,0.553-0.216-1.435,0.325-1.301c0.369-0.38,0.704,0.665,1.008,0.877
		c0.387,0.53-0.308-1.417,0.243-1.318c0.345-0.4,0.743,0.621,1.062,0.814c0.418,0.504-0.396-1.395,0.158-1.332
		c0.319-0.421,0.781,0.572,1.111,0.744c0.448,0.479-0.483-1.365,0.074-1.338c0.293-0.439,0.816,0.524,1.156,0.675
		c0.478,0.448-0.567-1.334-0.01-1.341c0.264-0.459,0.847,0.471,1.196,0.6c0.506,0.418-0.652-1.295-0.095-1.337
		c0.234-0.475,0.876,0.417,1.23,0.525c0.531,0.384-0.729-1.254-0.176-1.331c0.203-0.487,0.899,0.361,1.261,0.445
		c0.554,0.353-0.808-1.202-0.259-1.314c0.172-0.499,0.918,0.305,1.285,0.366c0.574,0.314-0.882-1.151-0.342-1.296
		c0.142-0.509,0.938,0.244,1.307,0.284c0.593,0.277-0.951-1.094-0.423-1.272c0.109-0.517,0.95,0.186,1.322,0.201
		c0.609,0.239-1.018-1.031-0.501-1.244c0.076-0.522,0.96,0.127,1.331,0.118c0.624,0.204-1.081-0.965-0.579-1.209
		c0.043-0.526,0.968,0.065,1.338,0.033c0.634,0.165-1.14-0.895-0.654-1.17c0.011-0.527,0.97,0.005,1.337-0.049
		c0.644,0.121-1.194-0.823-0.727-1.128c-0.021-0.529,0.967-0.055,1.331-0.134c0.651,0.083-1.243-0.746-0.795-1.079
		c-0.056-0.525,0.962-0.116,1.319-0.217c0.655,0.041-1.289-0.666-0.861-1.027c-0.09-0.521,0.953-0.178,1.305-0.299
		c0.653,0-1.327-0.585-0.927-0.971c-0.122-0.516,0.942-0.236,1.282-0.382c0.657-0.041-1.359-0.498-0.982-0.911
		c-0.153-0.506,0.923-0.294,1.256-0.46c0.651-0.082-1.391-0.414-1.039-0.848c-0.186-0.495,0.903-0.353,1.225-0.539
		c0.644-0.123-1.413-0.324-1.091-0.78c-0.214-0.483,0.879-0.409,1.188-0.614c0.637-0.163-1.43-0.235-1.134-0.711
		c-0.248-0.468,0.851-0.461,1.146-0.688c0.624-0.202-1.443-0.145-1.179-0.637c-0.275-0.452,0.819-0.515,1.102-0.758
		c0.608-0.241-1.448-0.055-1.217-0.563c-0.303-0.433,0.786-0.566,1.051-0.826c0.595-0.279-1.448,0.036-1.247-0.485
		c-0.331-0.413,0.748-0.613,0.995-0.89c0.575-0.315-1.443,0.127-1.277-0.406c-0.353-0.391,0.709-0.66,0.94-0.951
		c0.555-0.352-1.433,0.218-1.299-0.324c-0.38-0.37,0.664-0.704,0.877-1.009c0.53-0.386-1.417,0.308-1.318-0.243
		c-0.4-0.344,0.62-0.744,0.813-1.061c0.506-0.419-1.395,0.396-1.33-0.159c-0.421-0.319,0.572-0.78,0.744-1.111
		c0.478-0.449-1.367,0.483-1.338-0.075c-0.442-0.291,0.524-0.815,0.675-1.154c0.448-0.479-1.336,0.567-1.341,0.008
		c-0.46-0.263,0.47-0.847,0.6-1.195c0.417-0.505-1.295,0.65-1.337,0.094c-0.475-0.234,0.416-0.875,0.522-1.231
		C80.345,36.379,78.706,37.639,78.629,37.085z M52.317,56.525l-6.982-0.091l4.942-4.943l2.085,0.039L52.317,56.525z M52.317,50.087
		l-6.982-0.092l4.942-4.942l2.085,0.041L52.317,50.087z M70.45,60.712l-11.953-9.772l-0.072,9.608l-4.664-0.04l0.171-19.14
		l11.966,9.105l0.078-8.729l4.641,0.068L70.45,60.712z M73.942,56.794l-2.086-0.041l0.046-4.993l6.981,0.091L73.942,56.794z
		 M73.942,50.355l-2.086-0.04l0.046-4.994l6.981,0.091L73.942,50.355z"/>
	<path fill-rule="evenodd" clip-rule="evenodd" fill="#58595B" d="M62.27,24.521c-14.304,0-25.899,11.596-25.899,25.899
		c0,14.303,11.595,25.899,25.899,25.899s25.898-11.597,25.898-25.899C88.168,36.117,76.573,24.521,62.27,24.521z M62.27,74.932
		c-13.537,0-24.51-10.975-24.51-24.511c0-13.537,10.974-24.51,24.51-24.51c13.536,0,24.51,10.973,24.51,24.51
		C86.779,63.957,75.806,74.932,62.27,74.932z"/>
</g>
</svg>
