<?xml version="1.0" encoding="utf-8"?>
<!-- Generator: Adobe Illustrator 16.0.0, SVG Export Plug-In . SVG Version: 6.00 Build 0)  -->
<!DOCTYPE svg PUBLIC "-//W3C//DTD SVG 1.1//EN" "http://www.w3.org/Graphics/SVG/1.1/DTD/svg11.dtd">
<svg version="1.1" id="Layer_1" xmlns="http://www.w3.org/2000/svg" xmlns:xlink="http://www.w3.org/1999/xlink" x="0px" y="0px"
	 width="200px" height="200px" viewBox="0 0 200 200" enable-background="new 0 0 200 200" xml:space="preserve">
<path fill-rule="evenodd" clip-rule="evenodd" fill="#73BF44" d="M72.98,173.683c0.417-4.017-2.267-2.856-9.766-6.883
	c-3.796-2.036-7.095-4.188-10.125-6.575c-4.619-3.638-9.037-7.933-12.635-12.477c-3.586-4.527-7.521-3.464-2.003,3.208
	c1.62,1.96,2.436,2.965,3.82,4.55C47.551,161.566,67.852,175.741,72.98,173.683"/>
<path fill-rule="evenodd" clip-rule="evenodd" fill="#73BF44" d="M96.545,176.525c-11.321,4.313-4.845,20.27,5.991,16.44
	c3.747-1.323,6.713-6.008,5.242-10.957C106.646,178.187,101.619,174.593,96.545,176.525 M97.188,180.28
	c7.206-3.384,9.93,6.673,4.693,9.059c-4.896,2.227-9.028-2.265-7.336-6.641C95.548,180.099,95.491,181.078,97.188,180.28z"/>
<path fill-rule="evenodd" clip-rule="evenodd" fill="#73BF44" d="M12.974,91.708c-11.695,2.818-7.289,19.635,4.116,16.967
	c3.967-0.925,7.457-5.57,6.246-10.722C22.393,93.933,17.955,90.509,12.974,91.708 M14.241,95c6.702-1.033,8.172,9.472,1.262,10.354
	C8.807,106.207,7.135,96.095,14.241,95z"/>
<path fill-rule="evenodd" clip-rule="evenodd" fill="#73BF44" d="M182.089,91.703c-11.53,2.725-7.349,19.715,4.125,16.966
	c4.167-0.999,7.389-5.495,6.248-10.704C191.546,93.799,186.941,90.553,182.089,91.703 M183.368,94.996
	c6.677-0.989,8.075,9.436,1.265,10.354C177.886,106.257,176.197,96.058,183.368,94.996z"/>
<path fill-rule="evenodd" clip-rule="evenodd" fill="#73BF44" d="M96.861,7.254c-4.048,1.241-7.211,5.323-5.977,10.612
	c0.947,4.055,5.903,7.735,11.206,6.114C112.011,20.956,108.408,3.714,96.861,7.254 M94.111,15.018
	c0.323-6.033,10.799-6.335,10.506,0.811C104.336,22.745,93.714,22.473,94.111,15.018z"/>
<path fill-rule="evenodd" clip-rule="evenodd" fill="#73BF44" d="M176.803,87.336c2.415-6.706-7.697-25.679-12.637-32.814
	c-1.682-2.425-1.205-3.34-4.126-2.478c-1.163,3.043,7.769,12.009,12.103,26.782C174.246,86.009,172.811,88.431,176.803,87.336"/>
<path fill-rule="evenodd" clip-rule="evenodd" fill="#73BF44" d="M191.63,137.119c-3.779-0.26-2.382-0.465-5.475,6.21l-8.816,14.474
	c-0.91,1.156-1.931,2.174-2.756,3.269c-0.889,1.179-2.246,2.58-0.108,3.761c1.879,1.036,4.638-3.68,5.589-4.91
	C183.235,155.812,192.575,141.522,191.63,137.119"/>
<path fill-rule="evenodd" clip-rule="evenodd" fill="#73BF44" d="M132.958,186.153c4.862,1.481,26.461-12.655,27.757-16.658
	c-0.744-1.018-0.341-0.592-1.223-1.438c-1.789,0.063-12.997,9.38-20.618,12.822C133.255,183.419,132.13,182.655,132.958,186.153"/>
<path fill-rule="evenodd" clip-rule="evenodd" fill="#73BF44" d="M63.218,191.227c-1.137,1.038-1.69,0.896-0.025,2.423
	c1.465,1.343,13.726,4.392,16.127,4.878c2.878,0.581,5.788,1.614,7.062,0.331c3.134-3.168-8.724-4.275-10.941-4.825
	C72.697,193.353,64.623,189.938,63.218,191.227"/>
<path fill-rule="evenodd" clip-rule="evenodd" fill="#73BF44" d="M191.629,63.217c0.851-3.918-5.761-14.133-8.183-17.802
	c-1.604-2.425-1.872-4.718-4.945-4.16c-1.373,2.524,2.297,6.012,5.171,11.083c1.153,2.027,2.109,3.879,3.062,5.905
	C189.442,64.014,187.965,63.462,191.629,63.217"/>
<path fill-rule="evenodd" clip-rule="evenodd" fill="#73BF44" d="M38.073,30.842c0.713,0.981,0.365,0.616,1.208,1.441
	c1.715-0.065,10.319-7.345,15.985-10.322c2.614-1.376,4.611-1.492,3.979-4.803c-3.232-0.631-9.42,3.779-11.784,5.386
	C44.687,24.431,38.863,28.423,38.073,30.842"/>
<path fill-rule="evenodd" clip-rule="evenodd" fill="#73BF44" d="M6.16,133.875c2.941-1.52,1.5-2.057-0.226-8.369
	c-0.607-2.217-0.965-8.938-3.482-9.152c-3.765-0.315-0.041,9.73,1.027,13.382C4.348,132.709,3.872,133.117,6.16,133.875"/>
<path fill-rule="evenodd" clip-rule="evenodd" fill="#73BF44" d="M196.327,112.554l2.278,0.118
	c1.404-3.27,1.968-14.701,0.471-17.682c-4.264-0.553-2.759,3.472-2.841,7.574C196.176,105.726,195.149,110.326,196.327,112.554"/>
<path fill-rule="evenodd" clip-rule="evenodd" fill="#73BF44" d="M129.487,7.167c0.106-3.564,0.864-2.798-7.58-4.797
	c-3.28-0.776-8.687-2.514-9.738-0.544c-1.593,2.972,5.669,3.253,7.806,3.716C123.104,6.221,126.67,7.788,129.487,7.167"/>
<path fill-rule="evenodd" clip-rule="evenodd" fill="#73BF44" d="M19.583,130.327c-0.768,2.897,1.843,6.845,3.165,9.415
	c0.926,1.799,3.348,8.681,6.011,5.867c1.271-1.344-2.538-6.855-3.386-8.503C23.757,133.974,23.271,129.208,19.583,130.327"/>
<path fill-rule="evenodd" clip-rule="evenodd" fill="#73BF44" d="M164.247,172.199l-11.453,8.968
	c-2.054,2.589-0.739,6.134,9.681-2.972c1.179-1.029,2.644-1.654,3.658-3.036C167.506,173.285,167.001,170.724,164.247,172.199"/>
<path fill-rule="evenodd" clip-rule="evenodd" fill="#73BF44" d="M185.16,70.592l-0.155,2.483c0.093,0.705,0.467,1.809,0.64,2.366
	c1.441,4.679,2.717,16.172,5.598,11.399c0.072-0.124,0.137-0.3,0.186-0.445c0.482-1.426-1.169-7.71-1.549-9.158
	C188.942,73.693,188.837,69.04,185.16,70.592"/>
<path fill-rule="evenodd" clip-rule="evenodd" fill="#73BF44" d="M69.297,7.167c2.818,0.619,6.395-0.941,9.513-1.625
	c2.141-0.468,9.396-0.744,7.805-3.716c-0.897-1.678-2.709-0.913-4.712-0.508l-9.817,2.228C68.993,4.33,69.198,3.875,69.297,7.167"/>
<path fill-rule="evenodd" clip-rule="evenodd" fill="#73BF44" d="M188.02,126.87c-4.283-0.244-4.038,3.754-5.528,7.399
	c-0.83,2.032-4.862,7.736-2.106,9.112C183.264,144.823,188.549,129.579,188.02,126.87"/>
<path fill-rule="evenodd" clip-rule="evenodd" fill="#73BF44" d="M119.032,16.951c-0.143,3.006-0.258,2.748,2.634,3.592
	c1.701,0.5,3.303,0.875,5.063,1.483c3.097,1.073,6.414,3.298,9.167,2.454c0.081-3.326-0.862-3.195-7.326-5.486
	C126.522,18.269,120.6,15.999,119.032,16.951"/>
<path fill-rule="evenodd" clip-rule="evenodd" fill="#73BF44" d="M179.2,70.014c0.655-2.459-5.849-18.805-9.173-15.286
	c-1.272,1.344,2.533,6.852,3.383,8.503C175.024,66.363,175.517,71.128,179.2,70.014"/>
<path fill-rule="evenodd" clip-rule="evenodd" fill="#73BF44" d="M69.483,181.112c2.644,0.799,11.254,3.714,14.438,3.926
	c2.308,0.156-1.298,0.176,1.067,0.008l1.023-0.197c0.128-0.022,0.344-0.071,0.503-0.143c1.268-3.946-4.791-3.539-8.489-4.583
	C74.184,179.04,69.523,175.923,69.483,181.112"/>
<path fill-rule="evenodd" clip-rule="evenodd" fill="#73BF44" d="M152.859,44.269c0.016-0.032,1.735-0.179-0.51-2.967
	c-0.217-0.268-1.909-1.741-2.246-1.998c-1.988-1.504-3.772-3.743-5.205-2.389c-1.564,1.478-0.043,2.709,2.277,4.7
	C151.598,45.41,150.837,44.934,152.859,44.269"/>
<path fill-rule="evenodd" clip-rule="evenodd" fill="#73BF44" d="M132.614,178.745c2.285,0.439,11.511-2.959,9.476-5.862
	c-0.593-0.431,0.53-0.362-1.011-0.598c-1.412-0.216-3.5,1.3-4.741,1.915C133.388,175.663,132.085,175.171,132.614,178.745"/>
<path fill-rule="evenodd" clip-rule="evenodd" fill="#73BF44" d="M57.847,24.851c-2.058,0.755-3.856,1.849-5.691,3.003
	c-2.922,1.841-3.875,7.39,6.036,0.623C61.224,26.408,60.35,23.928,57.847,24.851"/>
<path fill-rule="evenodd" clip-rule="evenodd" fill="#73BF44" d="M16.387,60.015c3.459,0.684,3.742-1.963,5.038-4.356
	c1.666-3.082,3.453-4.867-1.203-5.165C17.994,54.396,15.84,57.292,16.387,60.015"/>
<path fill-rule="evenodd" clip-rule="evenodd" fill="#73BF44" d="M45.927,44.266c2.104,0.7,1.232,0.691,2.975-0.513
	c1.62-1.117,7.26-4.689,4.985-6.838c-1.466-1.386-3.347,1.021-4.847,2.141C47.476,40.226,44.838,41.833,45.927,44.266"/>
<path fill-rule="evenodd" clip-rule="evenodd" fill="#73BF44" d="M179.122,53.815c0.273-2.433-0.993-3.659-2.201-5.471
	c-0.965-1.449-2.731-5.21-4.66-3.232c-1.482,1.523,0.942,4.071,1.857,5.446C175.727,52.981,176.061,54.56,179.122,53.815"/>
<path fill-rule="evenodd" clip-rule="evenodd" fill="#73BF44" d="M5.249,76.954c0.825-2.604,2.856-7.877,2.117-10.215L5.57,66.46
	c-1.869,1.502-1.362,1.744-2.645,5.976C1.965,75.61,1.489,76.857,5.249,76.954"/>
<path fill-rule="evenodd" clip-rule="evenodd" fill="#73BF44" d="M125.805,26.658c-0.324,3.151,0.534,2.688,3.648,4.006
	c2.138,0.905,3.724,2.351,5.812,1.375C138.3,29.093,127.181,25.377,125.805,26.658"/>
<path fill-rule="evenodd" clip-rule="evenodd" fill="#73BF44" d="M112.273,184.705c1.993,0.896,3.566,0.21,6.649-0.481
	c1.198-0.271,5.283-1.034,3.118-3.294c-1.383-1.443-4.329-0.05-6.06,0.312C112.92,181.874,111.261,181.611,112.273,184.705"/>
<path fill-rule="evenodd" clip-rule="evenodd" fill="#73BF44" d="M22.99,35.595c-3.283,1.862-8.563,11.519-2.888,8.708
	c0.008-0.005,5.347-5.581,5.092-7.454C25,35.426,23.942,35.056,22.99,35.595"/>
<path fill-rule="evenodd" clip-rule="evenodd" fill="#73BF44" d="M180.626,126.836c1.731-1.433,1.555-2.119,2.1-4.271
	c0.226-0.879,0.621-2.156,0.758-2.886c0.404-2.185,0.179-2.159-0.17-3.031c-3.381-1.317-3.071,1.383-3.833,4.453
	C178.656,124.42,177.155,125.998,180.626,126.836"/>
<path fill-rule="evenodd" clip-rule="evenodd" fill="#73BF44" d="M139.799,9.797c-0.828,2.801,1.129,2.837,3.498,4.055
	c1.679,0.86,4.219,2.925,5.675,1.407c1.962-2.043-1.746-3.395-3.019-4.045C143.854,10.144,141.918,8.561,139.799,9.797"/>
<path fill-rule="evenodd" clip-rule="evenodd" fill="#73BF44" d="M126.648,196.037c1.557,0.439,8.582-0.887,9.842-3.832
	c-1.588-2.798-3.04-1.302-6.244-0.206c-0.862,0.296-3.024,0.945-3.498,1.313C124.587,194.979,126.609,195.974,126.648,196.037"/>
<path fill-rule="evenodd" clip-rule="evenodd" fill="#73BF44" d="M21.978,113c-0.725,2.022,0.75,12.688,3.833,9.809
	c1.559-1.459,0.1-4.333-0.3-6.104C24.824,113.647,25.237,112.111,21.978,113"/>
<path fill-rule="evenodd" clip-rule="evenodd" fill="#73BF44" d="M107.979,197.38c-1.923-0.909-13.566-1.067-9.894,2.602
	C98.376,200.271,109.896,202.438,107.979,197.38"/>
<path fill-rule="evenodd" clip-rule="evenodd" fill="#73BF44" d="M7.776,87.231c3.009,1.069,2.818-0.752,3.366-3.66
	c0.464-2.467,1.227-4.635,0.161-6.473l-1.927-0.027c-0.954,1.394-2.272,6.778-2.075,8.711C7.412,86.866,7.531,86.755,7.776,87.231"
	/>
<path fill-rule="evenodd" clip-rule="evenodd" fill="#73BF44" d="M112.329,8.553c-1.066,3.009,0.755,2.819,3.663,3.364
	c2.467,0.466,4.635,1.228,6.47,0.163l0.026-1.925c-1.443-0.991-5.073-1.728-7.022-1.975c-0.705-0.086-0.972-0.174-1.686-0.103
	C112.694,8.188,112.806,8.309,112.329,8.553"/>
<path fill-rule="evenodd" clip-rule="evenodd" fill="#73BF44" d="M79.79,24.167c-1.802-0.416-12.786,1.741-9.706,4.876
	c1.326,1.352,4.516-0.447,6.214-0.997C79.136,27.126,80.197,27.107,79.79,24.167"/>
<path fill-rule="evenodd" clip-rule="evenodd" fill="#73BF44" d="M26.454,57.608c3.443-0.138,6.476-7.159,6.483-7.21
	c0.451-3.093,0.635,3.186-0.145-1.383c-0.02-0.108-0.092-0.315-0.162-0.465c-2.768-1.081-3.589,1.641-4.779,3.379
	C26.18,54.375,24.696,55.314,26.454,57.608"/>
<path fill-rule="evenodd" clip-rule="evenodd" fill="#73BF44" d="M175.393,119.772c-2.94-0.409-2.956,0.652-3.876,3.49
	c-0.59,1.822-2.317,4.918-1,6.214C173.651,132.557,175.811,121.571,175.393,119.772"/>
<path fill-rule="evenodd" clip-rule="evenodd" fill="#73BF44" d="M159.492,32.281c0.926-0.863,0.452-0.358,1.22-1.439
	c-0.528-1.646-6.782-7.982-8.736-5.946C149.541,27.434,158.52,32.249,159.492,32.281"/>
<polygon fill-rule="evenodd" clip-rule="evenodd" fill="#73BF44" points="97.978,0.029 97.909,2.933 100.784,3.027 100.907,0.129 
	"/>
<polygon fill-rule="evenodd" clip-rule="evenodd" fill="#73BF44" points="44.156,172.749 44.059,175.694 46.959,175.746 
	47.058,172.891 "/>
<polygon fill-rule="evenodd" clip-rule="evenodd" fill="#73BF44" points="-0.066,87.865 -0.139,90.8 2.737,90.864 2.856,87.998 "/>
<polygon fill-rule="evenodd" clip-rule="evenodd" fill="#73BF44" points="23.908,152.508 23.764,155.4 26.709,155.506 
	26.762,152.598 "/>
<path fill-rule="evenodd" clip-rule="evenodd" fill="#73BF44" d="M25.755,70.784l-0.17,2.762l2.723-0.028
	C29.634,70.316,26.857,70.107,25.755,70.784"/>
<path fill-rule="evenodd" clip-rule="evenodd" fill="#73BF44" d="M40.084,162.581c1.673,0.275,0.94,0.468,2.233-0.631l-0.012-2.175
	c-0.982-0.117-1.793-0.421-2.556,0.322C38.099,161.713,40.067,162.563,40.084,162.581"/>
<path fill-rule="evenodd" clip-rule="evenodd" fill="#73BF44" d="M181.152,83.681c4.492,1.145,2.094-4.438,0.063-2.661
	c-0.658,0.576-0.468-0.837-0.597,1.2C180.438,85.065,180.595,82.7,181.152,83.681"/>
<path fill-rule="evenodd" clip-rule="evenodd" fill="#73BF44" d="M38.433,54.799c1.874-3.075-1.002-3.44-1.918-2.564
	C35.163,53.523,36.029,55.698,38.433,54.799"/>
<path fill-rule="evenodd" clip-rule="evenodd" fill="#73BF44" d="M126.286,171.271l-0.419,2.602l2.915,0.028
	C129.21,171.052,129.241,170.39,126.286,171.271"/>
<path fill-rule="evenodd" clip-rule="evenodd" fill="#73BF44" d="M40.086,37.757c-1.687,1.993-0.847,3.184,2.168,2.806l0.212-2.164
	C41.026,37.291,41.759,37.483,40.086,37.757"/>
<path fill-rule="evenodd" clip-rule="evenodd" fill="#73BF44" d="M17.633,116.657c-2.258-0.574-3.5,1.012-1.855,2.583
	c0.184,0.18,2.236,1.269,2.387-1.119C18.345,115.272,18.191,117.638,17.633,116.657"/>
<path fill-rule="evenodd" clip-rule="evenodd" fill="#73BF44" d="M169.157,30.805c-1.296,3.556,3.693,3.454,2.608,0.037
	c-0.615-0.386,0.574-0.662-1.296-0.557C167.902,30.432,170.228,30.166,169.157,30.805"/>
<path fill-rule="evenodd" clip-rule="evenodd" fill="#73BF44" d="M112.416,175.459c-1.438,3.52,3.739,3.476,2.561,0.012
	c-0.591-0.363,0.517-0.661-1.277-0.537C111.121,175.107,113.555,174.755,112.416,175.459"/>
<path fill-rule="evenodd" clip-rule="evenodd" fill="#73BF44" d="M69.948,21.282c0.809,0.532-1.199,0.776,1.326,0.579
	c2.435-0.187,0.126,0.189,1.337-0.582C73.584,17.85,68.783,17.913,69.948,21.282"/>
<path fill-rule="evenodd" clip-rule="evenodd" fill="#73BF44" d="M37.702,21.279c-0.868,3.356,3.694,3.411,2.702-0.008
	c-0.854-0.56,1.242-0.799-1.347-0.592C36.901,20.854,38.623,20.688,37.702,21.279"/>
<path fill-rule="evenodd" clip-rule="evenodd" fill="#73BF44" d="M196.133,126.387l0.271-2.572
	C192.041,122.899,191.762,127.095,196.133,126.387"/>
<path fill-rule="evenodd" clip-rule="evenodd" fill="#73BF44" d="M37.702,179.059c0.644,0.415-0.702,0.746,1.354,0.6
	c1.154-0.083,0.779-0.219,1.347-0.59C41.472,175.676,36.758,175.71,37.702,179.059"/>
<path fill-rule="evenodd" clip-rule="evenodd" fill="#73BF44" d="M158.383,21.27c-1.061,3.342,3.581,3.429,2.7,0.01
	c-0.644-0.415,0.702-0.747-1.354-0.6C158.577,20.764,158.949,20.898,158.383,21.27"/>
<path fill-rule="evenodd" clip-rule="evenodd" fill="#73BF44" d="M156.468,38.388l0.011,2.178c2.703,0.313,4.392-1.578,2.22-2.809
	C156.599,37.415,157.872,37.573,156.468,38.388"/>
<path fill-rule="evenodd" clip-rule="evenodd" fill="#73BF44" d="M49.463,14.528c0.847,1.221,0.733,1.678,2.715,0.823
	c0.827-1.823,0.274-2.162-1.195-2.835C49.271,13.363,49.872,11.809,49.463,14.528"/>
<path fill-rule="evenodd" clip-rule="evenodd" fill="#73BF44" d="M50.983,187.82c1.47-0.672,2.022-1.009,1.195-2.834
	c-1.258-0.543-1.82-0.771-2.517,0.478C48.806,186.992,50.365,187.517,50.983,187.82"/>
<path fill-rule="evenodd" clip-rule="evenodd" fill="#73BF44" d="M28.569,134.007c-0.448,3.867,4.641,2.655,2.308-0.664
	C28.603,133.005,29.997,133.123,28.569,134.007"/>
<path fill-rule="evenodd" clip-rule="evenodd" fill="#73BF44" d="M70.082,185.903c-1.913,3.646,2.243,3.708,2.432,1.523
	c0.236-2.749-0.02-0.581-0.476-1.452L70.082,185.903z"/>
<path fill-rule="evenodd" clip-rule="evenodd" fill="#73BF44" d="M10.313,55.942c1.962,1.227,0.883,1.016,2.583,0.058l0.205-1.883
	C10.763,52.911,9.522,53.71,10.313,55.942"/>
<path fill-rule="evenodd" clip-rule="evenodd" fill="#73BF44" d="M10.313,144.396c-0.749,2.268,0.442,3.037,2.536,1.821l0.279-1.877
	C11.196,143.379,12.275,143.169,10.313,144.396"/>
<path fill-rule="evenodd" clip-rule="evenodd" fill="#73BF44" d="M173.889,136.729c-0.905,2.101-0.726,0.409-0.295,2.79l2.291,0.194
	c1.055-2.127,0.805-1.033,0.071-2.56L173.889,136.729z"/>
<path fill-rule="evenodd" clip-rule="evenodd" fill="#73BF44" d="M59.085,182.977l0.133-2.436
	C55.024,179.584,55.032,184.09,59.085,182.977"/>
<polygon fill-rule="evenodd" clip-rule="evenodd" fill="#73BF44" points="98.004,16.99 100.582,17.103 100.74,14.237 98.244,14.129 
	"/>
<polygon fill-rule="evenodd" clip-rule="evenodd" fill="#73BF44" points="182.573,98.779 182.457,101.357 185.329,101.519 
	185.435,99.02 "/>
<polygon fill-rule="evenodd" clip-rule="evenodd" fill="#73BF44" points="13.459,98.822 13.352,101.318 16.214,101.557 
	16.329,98.983 "/>
<polygon fill-rule="evenodd" clip-rule="evenodd" fill="#73BF44" points="98.046,186.101 100.542,186.209 100.781,183.348 
	98.207,183.234 "/>
<polygon fill-rule="evenodd" clip-rule="evenodd" fill="#73BF44" points="28.333,41.957 30.998,42.096 31.183,39.461 28.478,39.232 
	"/>
<polygon fill-rule="evenodd" clip-rule="evenodd" fill="#73BF44" points="167.603,160.88 170.306,161.105 170.451,158.381 
	167.787,158.241 "/>
<path fill-rule="evenodd" clip-rule="evenodd" fill="#73BF44" d="M7.952,115.772l2.344,0.087
	C10.797,110.98,6.217,112.572,7.952,115.772"/>
<path fill-rule="evenodd" clip-rule="evenodd" fill="#6D6E70" d="M125.82,136.5c-2.886-3.862-8.526-7.573-4.447-16.228
	c1.209-2.569,3.314-4.456,6.052-5.502c4.441-1.701,6.788,0.292,10.457-0.135c5.334-46.824-50.802-61.751-72.022-26.805
	c-11.052,18.203-3.457,40.241,9.098,50.095c10.965,8.604,26.486,11.474,40.403,5.167C120.318,140.845,122.315,138.776,125.82,136.5
	 M74.68,71.431c9.534-3.535,18.462-10.627,36.242-5.715c4.47,1.237,7.333,3.25,11.166,4.363l-0.044-14.667l-47.432,0.029
	L74.68,71.431z M136.533,131.626l28.217,28.555c1.844,1.88,2.106,2.879,4.575,3.087c-0.602-2.883-25.018-26.087-28.921-29.845
	c-5.718-5.505-0.237-3.123-1.973-9.574c-1.008-3.733-4.729-5.973-8.421-4.868C123.027,121.068,121.115,134.787,136.533,131.626z
	 M63.333,55.451l6.983-0.023c0.122,31.065-0.463,15.136-8.923,31.234c-15.917,30.294,6.087,65.908,40.68,64.146
	c9.138-0.466,19.079-4.376,25.102-9.899c3.321-3.046,2.19-3.517,7.827-3.624c3.939,4.073,29.866,31.381,32.953,31.622
	c3.972-0.612,6.354-3.043,6.909-6.992c-0.273-2.271-24.077-25.503-28.453-29.535c-3.093-2.849-2.762-1.67-3.052-6.701
	c-0.263-4.581-1.609-5.026-1.606-8.147c0.005-9.859,3.842-23.705-9.241-37.99c-1.286-1.404-4.251-3.86-5-4.949
	c-2.456-3.567-1.199-14.402-1.132-19.147c11.173,0.014,18.516,1.817,17.164-3.393c-4.116-2.28-72.589-0.931-82.684-0.931h1.649
	c-2.777,0-8.635-1.028-7.913,2.644C55.132,56.479,60.477,55.459,63.333,55.451z"/>
<path fill-rule="evenodd" clip-rule="evenodd" fill="#6D6E70" d="M107.161,94.204c-4.242-2.48-8.852-2.477-13.126-0.782
	c-19.003,7.54-8.14,35.321,10.875,28.52C116.514,117.789,118.571,100.879,107.161,94.204z"/>
<path fill-rule="evenodd" clip-rule="evenodd" fill="#73BF44" d="M149.608,67.814c-1.908,4.503,7.658,9.712,10.952,28.942
	c1.509,8.819-0.576,9.79,4.098,9.865c3.155-4.538-1.479-18.591-3.223-23.022C159.876,79.636,154.569,65.832,149.608,67.814"/>
<path fill-rule="evenodd" clip-rule="evenodd" fill="#73BF44" d="M142.707,78.986c-1.024,3.751,2.819,8.761,4.098,12.621
	c0.871,2.631,2.16,13.601,5.542,10.271c2.507-2.466-1.008-10.657-2.115-13.679c-0.749-2.038-1.457-3.799-2.462-5.769
	C146.337,79.613,146.222,78.458,142.707,78.986"/>
</svg>
