<?xml version="1.0" encoding="utf-8"?>
<!-- Generator: Adobe Illustrator 16.0.0, SVG Export Plug-In . SVG Version: 6.00 Build 0)  -->
<!DOCTYPE svg PUBLIC "-//W3C//DTD SVG 1.1//EN" "http://www.w3.org/Graphics/SVG/1.1/DTD/svg11.dtd">
<svg version="1.1" id="Layer_1" xmlns="http://www.w3.org/2000/svg" xmlns:xlink="http://www.w3.org/1999/xlink" x="0px" y="0px"
	 width="200px" height="200px" viewBox="0 0 200 200" enable-background="new 0 0 200 200" xml:space="preserve">
<path fill-rule="evenodd" clip-rule="evenodd" fill="#73BF44" d="M72.724,173.224c0.415-3.992-2.254-2.839-9.709-6.839
	c-3.775-2.026-7.054-4.166-10.066-6.538c-4.591-3.616-8.984-7.886-12.562-12.404c-3.566-4.498-7.478-3.445-1.991,3.19
	c1.61,1.948,2.422,2.947,3.797,4.523C47.441,161.181,67.626,175.272,72.724,173.224"/>
<path fill-rule="evenodd" clip-rule="evenodd" fill="#73BF44" d="M96.153,176.054c-11.254,4.288-4.816,20.15,5.957,16.346
	c3.725-1.315,6.675-5.976,5.212-10.896C106.194,177.706,101.198,174.133,96.153,176.054 M96.792,179.787
	c7.166-3.367,9.875,6.634,4.667,9.004c-4.869,2.215-8.976-2.251-7.293-6.603C95.162,179.607,95.105,180.58,96.792,179.787z"/>
<path fill-rule="evenodd" clip-rule="evenodd" fill="#73BF44" d="M13.065,91.727c-11.628,2.801-7.247,19.521,4.092,16.87
	c3.945-0.92,7.414-5.538,6.21-10.662C22.43,93.939,18.017,90.533,13.065,91.727 M14.324,95c6.664-1.027,8.126,9.414,1.255,10.292
	C8.922,106.142,7.26,96.087,14.324,95z"/>
<path fill-rule="evenodd" clip-rule="evenodd" fill="#73BF44" d="M181.203,91.719c-11.463,2.71-7.305,19.604,4.1,16.868
	c4.146-0.993,7.348-5.46,6.214-10.64C190.606,93.806,186.027,90.579,181.203,91.719 M182.473,94.994
	c6.641-0.982,8.031,9.383,1.259,10.293C177.025,106.191,175.347,96.05,182.473,94.994z"/>
<path fill-rule="evenodd" clip-rule="evenodd" fill="#73BF44" d="M96.467,7.76c-4.025,1.234-7.171,5.292-5.942,10.551
	c0.941,4.032,5.868,7.688,11.141,6.079C111.529,21.383,107.946,4.24,96.467,7.76 M93.733,15.476
	c0.32-5.996,10.736-6.296,10.445,0.809C103.898,23.162,93.337,22.891,93.733,15.476z"/>
<path fill-rule="evenodd" clip-rule="evenodd" fill="#73BF44" d="M175.946,87.379c2.4-6.667-7.653-25.529-12.563-32.623
	c-1.672-2.412-1.197-3.321-4.103-2.464c-1.155,3.027,7.724,11.941,12.033,26.627C173.405,86.06,171.978,88.468,175.946,87.379"/>
<path fill-rule="evenodd" clip-rule="evenodd" fill="#73BF44" d="M190.689,136.874c-3.757-0.257-2.369-0.46-5.443,6.177
	l-8.766,14.388c-0.905,1.148-1.92,2.163-2.739,3.251c-0.884,1.172-2.234,2.563-0.108,3.74c1.867,1.028,4.61-3.66,5.557-4.886
	C182.343,155.458,191.628,141.252,190.689,136.874"/>
<path fill-rule="evenodd" clip-rule="evenodd" fill="#73BF44" d="M132.355,185.624c4.835,1.475,26.308-12.58,27.598-16.56
	c-0.74-1.012-0.341-0.589-1.218-1.43c-1.776,0.063-12.921,9.324-20.499,12.749C132.651,182.907,131.531,182.147,132.355,185.624"/>
<path fill-rule="evenodd" clip-rule="evenodd" fill="#73BF44" d="M63.02,190.67c-1.132,1.033-1.683,0.89-0.027,2.405
	c1.458,1.34,13.647,4.37,16.035,4.854c2.861,0.575,5.753,1.605,7.02,0.328c3.116-3.152-8.674-4.251-10.879-4.798
	C72.443,192.783,64.417,189.39,63.02,190.67"/>
<path fill-rule="evenodd" clip-rule="evenodd" fill="#73BF44" d="M190.688,63.399c0.848-3.895-5.728-14.051-8.136-17.698
	c-1.595-2.411-1.861-4.691-4.915-4.139c-1.364,2.511,2.282,5.978,5.14,11.021c1.146,2.016,2.098,3.855,3.045,5.871
	C188.514,64.191,187.045,63.642,190.688,63.399"/>
<path fill-rule="evenodd" clip-rule="evenodd" fill="#73BF44" d="M38.018,31.212c0.71,0.976,0.363,0.61,1.201,1.432
	c1.705-0.064,10.259-7.303,15.893-10.263c2.599-1.366,4.586-1.482,3.957-4.773c-3.214-0.63-9.367,3.755-11.717,5.354
	C44.594,24.838,38.804,28.807,38.018,31.212"/>
<path fill-rule="evenodd" clip-rule="evenodd" fill="#73BF44" d="M6.291,133.649c2.923-1.514,1.49-2.047-0.225-8.32
	c-0.604-2.204-0.96-8.888-3.462-9.096c-3.743-0.317-0.041,9.669,1.021,13.298C4.489,132.491,4.015,132.896,6.291,133.649"/>
<path fill-rule="evenodd" clip-rule="evenodd" fill="#73BF44" d="M195.358,112.448l2.265,0.121
	c1.396-3.251,1.955-14.616,0.469-17.581c-4.238-0.548-2.743,3.453-2.824,7.532C195.208,105.663,194.188,110.233,195.358,112.448"/>
<path fill-rule="evenodd" clip-rule="evenodd" fill="#73BF44" d="M128.904,7.674c0.107-3.545,0.861-2.785-7.536-4.771
	c-3.26-0.77-8.636-2.5-9.682-0.541c-1.582,2.956,5.638,3.235,7.761,3.694C122.559,6.731,126.104,8.289,128.904,7.674"/>
<path fill-rule="evenodd" clip-rule="evenodd" fill="#73BF44" d="M19.636,130.122c-0.763,2.882,1.833,6.807,3.147,9.361
	c0.921,1.788,3.329,8.629,5.977,5.832c1.262-1.334-2.523-6.817-3.367-8.452C23.785,133.749,23.302,129.011,19.636,130.122"/>
<path fill-rule="evenodd" clip-rule="evenodd" fill="#73BF44" d="M163.465,171.75l-11.389,8.916
	c-2.041,2.572-0.734,6.099,9.626-2.951c1.172-1.023,2.627-1.646,3.637-3.021C166.703,172.833,166.202,170.286,163.465,171.75"/>
<path fill-rule="evenodd" clip-rule="evenodd" fill="#73BF44" d="M184.257,70.73l-0.154,2.471c0.092,0.697,0.463,1.796,0.635,2.351
	c1.434,4.652,2.702,16.079,5.566,11.331c0.071-0.118,0.135-0.294,0.185-0.438c0.479-1.417-1.163-7.669-1.54-9.106
	C188.017,73.815,187.912,69.188,184.257,70.73"/>
<path fill-rule="evenodd" clip-rule="evenodd" fill="#73BF44" d="M69.064,7.674c2.801,0.611,6.356-0.937,9.458-1.618
	c2.127-0.467,9.342-0.739,7.759-3.694c-0.891-1.667-2.694-0.906-4.684-0.504l-9.761,2.215C68.76,4.851,68.964,4.398,69.064,7.674"/>
<path fill-rule="evenodd" clip-rule="evenodd" fill="#73BF44" d="M187.1,126.687c-4.26-0.245-4.014,3.732-5.496,7.355
	c-0.827,2.021-4.835,7.69-2.095,9.06C182.372,144.531,187.624,129.378,187.1,126.687"/>
<path fill-rule="evenodd" clip-rule="evenodd" fill="#73BF44" d="M118.511,17.401c-0.141,2.989-0.257,2.731,2.617,3.572
	c1.691,0.494,3.284,0.87,5.034,1.476c3.079,1.066,6.378,3.275,9.114,2.438c0.082-3.308-0.856-3.18-7.284-5.457
	C125.958,18.709,120.069,16.452,118.511,17.401"/>
<path fill-rule="evenodd" clip-rule="evenodd" fill="#73BF44" d="M178.331,70.157c0.652-2.444-5.814-18.695-9.119-15.197
	c-1.266,1.336,2.518,6.812,3.362,8.453C174.18,66.527,174.669,71.265,178.331,70.157"/>
<path fill-rule="evenodd" clip-rule="evenodd" fill="#73BF44" d="M69.248,180.611c2.629,0.796,11.188,3.691,14.354,3.904
	c2.296,0.153-1.289,0.178,1.062,0.01l1.018-0.198c0.128-0.021,0.342-0.071,0.5-0.142c1.261-3.925-4.764-3.52-8.44-4.555
	C73.92,178.552,69.287,175.454,69.248,180.611"/>
<path fill-rule="evenodd" clip-rule="evenodd" fill="#73BF44" d="M152.142,44.561c0.016-0.033,1.727-0.179-0.507-2.951
	c-0.214-0.266-1.898-1.732-2.232-1.986c-1.979-1.497-3.75-3.721-5.175-2.374c-1.558,1.469-0.042,2.693,2.264,4.671
	C150.888,45.695,150.132,45.222,152.142,44.561"/>
<path fill-rule="evenodd" clip-rule="evenodd" fill="#73BF44" d="M132.015,178.261c2.271,0.436,11.442-2.941,9.42-5.831
	c-0.589-0.429,0.528-0.361-1.004-0.594c-1.404-0.212-3.48,1.291-4.714,1.903C132.782,175.197,131.487,174.707,132.015,178.261"/>
<path fill-rule="evenodd" clip-rule="evenodd" fill="#73BF44" d="M57.678,25.253c-2.045,0.753-3.833,1.839-5.658,2.988
	c-2.905,1.829-3.853,7.347,6.001,0.619C61.036,26.801,60.167,24.336,57.678,25.253"/>
<path fill-rule="evenodd" clip-rule="evenodd" fill="#73BF44" d="M16.458,60.216c3.439,0.679,3.721-1.95,5.008-4.331
	c1.657-3.064,3.433-4.839-1.195-5.136C18.055,54.627,15.914,57.509,16.458,60.216"/>
<path fill-rule="evenodd" clip-rule="evenodd" fill="#73BF44" d="M45.827,44.558c2.092,0.695,1.225,0.688,2.958-0.509
	c1.61-1.113,7.218-4.664,4.956-6.802c-1.458-1.375-3.327,1.015-4.819,2.131C47.368,40.541,44.744,42.14,45.827,44.558"/>
<path fill-rule="evenodd" clip-rule="evenodd" fill="#73BF44" d="M178.253,54.053c0.271-2.419-0.988-3.638-2.188-5.44
	c-0.96-1.442-2.717-5.18-4.634-3.214c-1.476,1.514,0.936,4.048,1.846,5.417C174.878,53.224,175.21,54.791,178.253,54.053"/>
<path fill-rule="evenodd" clip-rule="evenodd" fill="#73BF44" d="M5.384,77.058c0.82-2.59,2.84-7.833,2.105-10.157l-1.785-0.276
	c-1.858,1.492-1.355,1.731-2.63,5.94C2.119,75.722,1.646,76.96,5.384,77.058"/>
<path fill-rule="evenodd" clip-rule="evenodd" fill="#73BF44" d="M125.243,27.053c-0.321,3.132,0.53,2.669,3.627,3.979
	c2.126,0.901,3.704,2.34,5.778,1.369C137.666,29.472,126.61,25.778,125.243,27.053"/>
<path fill-rule="evenodd" clip-rule="evenodd" fill="#73BF44" d="M111.791,184.186c1.981,0.892,3.545,0.209,6.61-0.481
	c1.191-0.267,5.252-1.025,3.102-3.271c-1.376-1.435-4.305-0.05-6.025,0.306C112.435,181.373,110.783,181.11,111.791,184.186"/>
<path fill-rule="evenodd" clip-rule="evenodd" fill="#73BF44" d="M23.021,35.936c-3.263,1.85-8.513,11.452-2.87,8.658
	c0.007-0.006,5.316-5.549,5.062-7.411C25.021,35.77,23.97,35.399,23.021,35.936"/>
<path fill-rule="evenodd" clip-rule="evenodd" fill="#73BF44" d="M179.749,126.652c1.721-1.425,1.546-2.11,2.087-4.246
	c0.225-0.874,0.617-2.146,0.753-2.868c0.402-2.177,0.177-2.149-0.167-3.017c-3.363-1.312-3.055,1.377-3.813,4.429
	C177.791,124.249,176.298,125.817,179.749,126.652"/>
<path fill-rule="evenodd" clip-rule="evenodd" fill="#73BF44" d="M139.156,10.288c-0.822,2.785,1.123,2.822,3.479,4.031
	c1.668,0.858,4.193,2.909,5.643,1.401c1.951-2.033-1.736-3.375-3.002-4.023C143.188,10.632,141.265,9.06,139.156,10.288"/>
<path fill-rule="evenodd" clip-rule="evenodd" fill="#73BF44" d="M126.083,195.453c1.549,0.436,8.531-0.882,9.784-3.81
	c-1.579-2.782-3.021-1.296-6.207-0.204c-0.857,0.293-3.007,0.938-3.478,1.304C124.033,194.399,126.043,195.391,126.083,195.453"/>
<path fill-rule="evenodd" clip-rule="evenodd" fill="#73BF44" d="M22.017,112.896c-0.721,2.011,0.747,12.615,3.811,9.748
	c1.551-1.448,0.1-4.304-0.298-6.066C24.846,113.537,25.256,112.014,22.017,112.896"/>
<path fill-rule="evenodd" clip-rule="evenodd" fill="#73BF44" d="M107.521,196.789c-1.912-0.904-13.49-1.062-9.837,2.584
	C97.975,199.663,109.427,201.815,107.521,196.789"/>
<path fill-rule="evenodd" clip-rule="evenodd" fill="#73BF44" d="M7.897,87.276c2.992,1.061,2.802-0.749,3.345-3.641
	c0.462-2.453,1.22-4.609,0.161-6.435l-1.915-0.027c-0.95,1.386-2.259,6.738-2.063,8.66C7.534,86.912,7.654,86.803,7.897,87.276"/>
<path fill-rule="evenodd" clip-rule="evenodd" fill="#73BF44" d="M111.845,9.05c-1.059,2.991,0.75,2.803,3.643,3.346
	c2.453,0.461,4.608,1.22,6.433,0.162l0.026-1.917c-1.436-0.985-5.044-1.716-6.981-1.961c-0.701-0.089-0.968-0.174-1.676-0.102
	C112.209,8.688,112.319,8.808,111.845,9.05"/>
<path fill-rule="evenodd" clip-rule="evenodd" fill="#73BF44" d="M79.494,24.574c-1.791-0.411-12.712,1.731-9.65,4.848
	c1.319,1.344,4.49-0.443,6.179-0.991C78.843,27.516,79.901,27.499,79.494,24.574"/>
<path fill-rule="evenodd" clip-rule="evenodd" fill="#73BF44" d="M26.467,57.823c3.423-0.135,6.438-7.119,6.446-7.167
	c0.449-3.076,0.631,3.167-0.144-1.376c-0.02-0.108-0.092-0.314-0.161-0.462c-2.752-1.077-3.567,1.632-4.751,3.36
	C26.193,54.61,24.719,55.543,26.467,57.823"/>
<path fill-rule="evenodd" clip-rule="evenodd" fill="#73BF44" d="M174.545,119.627c-2.922-0.407-2.938,0.648-3.854,3.473
	c-0.586,1.809-2.304,4.89-0.994,6.176C172.814,132.34,174.961,121.415,174.545,119.627"/>
<path fill-rule="evenodd" clip-rule="evenodd" fill="#73BF44" d="M158.735,32.643c0.922-0.86,0.45-0.354,1.215-1.43
	c-0.524-1.637-6.744-7.938-8.687-5.914C148.843,27.823,157.77,32.608,158.735,32.643"/>
<polygon fill-rule="evenodd" clip-rule="evenodd" fill="#73BF44" points="97.577,0.578 97.509,3.462 100.368,3.556 100.491,0.674 
	"/>
<polygon fill-rule="evenodd" clip-rule="evenodd" fill="#73BF44" points="44.066,172.299 43.971,175.229 46.854,175.279 
	46.951,172.439 "/>
<polygon fill-rule="evenodd" clip-rule="evenodd" fill="#73BF44" points="0.099,87.907 0.028,90.824 2.887,90.887 3.006,88.037 "/>
<polygon fill-rule="evenodd" clip-rule="evenodd" fill="#73BF44" points="23.937,152.175 23.792,155.052 26.721,155.156 
	26.773,152.264 "/>
<path fill-rule="evenodd" clip-rule="evenodd" fill="#73BF44" d="M25.771,70.921l-0.168,2.747l2.708-0.029
	C29.628,70.457,26.867,70.25,25.771,70.921"/>
<path fill-rule="evenodd" clip-rule="evenodd" fill="#73BF44" d="M40.018,162.189c1.665,0.272,0.936,0.466,2.221-0.627l-0.012-2.162
	c-0.976-0.115-1.783-0.422-2.541,0.322C38.043,161.328,40.002,162.168,40.018,162.189"/>
<path fill-rule="evenodd" clip-rule="evenodd" fill="#73BF44" d="M180.273,83.745c4.464,1.136,2.08-4.415,0.062-2.646
	c-0.654,0.571-0.465-0.832-0.593,1.191C179.561,85.122,179.718,82.771,180.273,83.745"/>
<path fill-rule="evenodd" clip-rule="evenodd" fill="#73BF44" d="M38.376,55.029c1.863-3.055-0.997-3.42-1.908-2.55
	C35.125,53.762,35.987,55.923,38.376,55.029"/>
<path fill-rule="evenodd" clip-rule="evenodd" fill="#73BF44" d="M125.724,170.827l-0.417,2.586l2.896,0.031
	C128.629,170.609,128.66,169.953,125.724,170.827"/>
<path fill-rule="evenodd" clip-rule="evenodd" fill="#73BF44" d="M40.019,38.086c-1.677,1.98-0.841,3.167,2.157,2.788l0.21-2.149
	C40.955,37.624,41.684,37.815,40.019,38.086"/>
<path fill-rule="evenodd" clip-rule="evenodd" fill="#73BF44" d="M17.697,116.53c-2.245-0.568-3.48,1.004-1.845,2.571
	c0.183,0.174,2.223,1.26,2.373-1.117C18.404,115.156,18.251,117.506,17.697,116.53"/>
<path fill-rule="evenodd" clip-rule="evenodd" fill="#73BF44" d="M168.346,31.176c-1.288,3.533,3.672,3.432,2.594,0.037
	c-0.612-0.386,0.57-0.662-1.289-0.554C167.098,30.805,169.41,30.54,168.346,31.176"/>
<path fill-rule="evenodd" clip-rule="evenodd" fill="#73BF44" d="M111.932,174.995c-1.43,3.498,3.719,3.454,2.547,0.013
	c-0.588-0.366,0.512-0.659-1.271-0.538C110.646,174.642,113.063,174.294,111.932,174.995"/>
<path fill-rule="evenodd" clip-rule="evenodd" fill="#73BF44" d="M69.711,21.708c0.803,0.526-1.194,0.771,1.317,0.577
	c2.421-0.188,0.126,0.184,1.331-0.58C73.323,18.294,68.551,18.356,69.711,21.708"/>
<path fill-rule="evenodd" clip-rule="evenodd" fill="#73BF44" d="M37.649,21.705c-0.863,3.338,3.672,3.391,2.687-0.009
	c-0.849-0.555,1.234-0.795-1.34-0.587C36.853,21.281,38.565,21.116,37.649,21.705"/>
<path fill-rule="evenodd" clip-rule="evenodd" fill="#73BF44" d="M195.166,126.205l0.27-2.556
	C191.098,122.735,190.819,126.908,195.166,126.205"/>
<path fill-rule="evenodd" clip-rule="evenodd" fill="#73BF44" d="M37.649,178.572c0.641,0.411-0.698,0.742,1.347,0.593
	c1.148-0.078,0.775-0.213,1.34-0.582C41.398,175.21,36.711,175.244,37.649,178.572"/>
<path fill-rule="evenodd" clip-rule="evenodd" fill="#73BF44" d="M157.633,21.694c-1.053,3.321,3.562,3.409,2.686,0.01
	c-0.64-0.413,0.698-0.743-1.346-0.596C157.827,21.191,158.198,21.324,157.633,21.694"/>
<path fill-rule="evenodd" clip-rule="evenodd" fill="#73BF44" d="M155.73,38.714l0.01,2.163c2.688,0.312,4.366-1.568,2.207-2.791
	C155.86,37.745,157.126,37.903,155.73,38.714"/>
<path fill-rule="evenodd" clip-rule="evenodd" fill="#73BF44" d="M49.342,14.993c0.842,1.213,0.729,1.667,2.7,0.817
	c0.822-1.813,0.273-2.147-1.189-2.817C49.152,13.832,49.75,12.288,49.342,14.993"/>
<path fill-rule="evenodd" clip-rule="evenodd" fill="#73BF44" d="M50.854,187.282c1.462-0.67,2.011-1.005,1.189-2.816
	c-1.251-0.541-1.81-0.766-2.502,0.474C48.69,186.461,50.24,186.979,50.854,187.282"/>
<path fill-rule="evenodd" clip-rule="evenodd" fill="#73BF44" d="M28.569,133.777c-0.445,3.848,4.614,2.642,2.294-0.659
	C28.604,132.784,29.989,132.898,28.569,133.777"/>
<path fill-rule="evenodd" clip-rule="evenodd" fill="#73BF44" d="M69.842,185.378c-1.902,3.624,2.23,3.685,2.418,1.515
	c0.235-2.735-0.02-0.578-0.474-1.446L69.842,185.378z"/>
<path fill-rule="evenodd" clip-rule="evenodd" fill="#73BF44" d="M10.419,56.167c1.95,1.219,0.879,1.008,2.567,0.059l0.204-1.875
	C10.866,53.151,9.633,53.948,10.419,56.167"/>
<path fill-rule="evenodd" clip-rule="evenodd" fill="#73BF44" d="M10.419,144.107c-0.744,2.258,0.439,3.021,2.522,1.813l0.277-1.866
	C11.298,143.101,12.369,142.889,10.419,144.107"/>
<path fill-rule="evenodd" clip-rule="evenodd" fill="#73BF44" d="M173.051,136.485c-0.899,2.09-0.723,0.409-0.294,2.773l2.278,0.196
	c1.049-2.117,0.8-1.027,0.07-2.545L173.051,136.485z"/>
<path fill-rule="evenodd" clip-rule="evenodd" fill="#73BF44" d="M58.911,182.466l0.131-2.421
	C54.871,179.095,54.879,183.574,58.911,182.466"/>
<polygon fill-rule="evenodd" clip-rule="evenodd" fill="#73BF44" points="97.603,17.438 100.167,17.552 100.323,14.701 
	97.842,14.595 "/>
<polygon fill-rule="evenodd" clip-rule="evenodd" fill="#73BF44" points="181.685,98.757 181.569,101.317 184.425,101.478 
	184.528,98.997 "/>
<polygon fill-rule="evenodd" clip-rule="evenodd" fill="#73BF44" points="13.547,98.797 13.44,101.279 16.287,101.519 16.4,98.957 
	"/>
<polygon fill-rule="evenodd" clip-rule="evenodd" fill="#73BF44" points="97.646,185.571 100.127,185.682 100.366,182.837 
	97.805,182.725 "/>
<polygon fill-rule="evenodd" clip-rule="evenodd" fill="#73BF44" points="28.335,42.261 30.984,42.401 31.168,39.778 28.479,39.552 
	"/>
<polygon fill-rule="evenodd" clip-rule="evenodd" fill="#73BF44" points="166.801,160.497 169.488,160.722 169.632,158.015 
	166.984,157.876 "/>
<path fill-rule="evenodd" clip-rule="evenodd" fill="#73BF44" d="M8.072,115.652l2.33,0.085
	C10.9,110.888,6.346,112.467,8.072,115.652"/>
<path fill-rule="evenodd" clip-rule="evenodd" fill="#6D6E70" d="M107.231,142.773h3.942c1.801-0.806,3.248-0.116,7.58-2.568
	c4.195-2.374,7.616-6.615,8.987-11.245c0.881-2.964,0.591-5.77,2.016-8.29c1.768-3.121,6.639-4.28,11.126-9.29
	c7.413-8.278,11.155-18.793,9.184-30.569c-0.877-5.24-3.384-11.108-5.931-14.476c-3.245-4.288-5.739-7.051-10.533-9.896
	c-2.122-1.259-4.235-2.337-6.882-3.231c-3.577-1.208-7.7-1.534-8.487-1.855h-5.448c-0.513,0.213-4.802,0.738-7.47,1.554
	c-2.362,0.725-4.359,1.652-6.428,2.724c-4.425,2.294-9.383,6.884-11.858,10.672c-1.53,2.344-4.05,6.432-4.539,9.176
	c-1.022,5.737,5.978,8.872,9.595,4.845c1.318-1.469,2.03-4.997,4.919-8.625c10.243-12.863,29.842-11.835,38.66,2.154
	c5.622,8.926,4.65,19.846-1.093,27.582c-3.918,5.267-6.814,5.579-9.926,8.209c-8.815,7.463-5.676,13.813-8.75,18.352
	c-1.035,1.532-2.907,3.049-5.731,3.401c-2.756,0.342-5.227-0.912-6.625-2.139c-1.049-0.915-0.776-1.431-2.238-2.341
	c-5.539-3.448-12.448,3.587-6.109,9.73c0.4,0.389,0.673,0.688,1.033,1.074c0.827,0.886,2.896,2.223,4.03,2.84
	C103.664,142.412,105.803,142.139,107.231,142.773"/>
<path fill-rule="evenodd" clip-rule="evenodd" fill="#6D6E70" d="M72.809,82.379c-2.426,0.894-3.392,3.745-1.57,6.083
	c1.356,1.738,2.052,1.714,4.17,5.368c2.451,4.226,4.088,9.413,3.763,15.36c-0.307,5.616-2.257,10.609-4.848,14.26
	c-0.784,1.104-1.344,1.716-2.115,2.651c-0.65,0.784-1.652,1.491-1.867,2.939c-0.415,2.806,2.108,5.237,4.955,4.162
	c2.698-1.02,6.917-8.047,8.155-10.747c2.181-4.753,3.368-10.02,3.181-15.945c-0.256-8.157-3.171-15.003-7.834-20.836
	C77.393,83.913,75.518,81.377,72.809,82.379"/>
<path fill-rule="evenodd" clip-rule="evenodd" fill="#6D6E70" d="M114.134,69.615c-6.259,0.592-11.892,4.518-14.394,10.156
	c-3.099,6.983,4.074,8.32,6.032,4.89c0.901-1.579,0.988-3.128,3.189-5.019c3.343-2.868,8.007-3.568,12.253-0.884
	c1.417,0.896,2.88,2.518,3.688,4.317c0.945,2.101,0.705,5.457,1.571,6.641c1.871,2.563,8.443,3.264,6.345-6.344
	C131.135,75.655,123.845,68.698,114.134,69.615"/>
<path fill-rule="evenodd" clip-rule="evenodd" fill="#6D6E70" d="M64.802,90.771c-1.634,0.378-2.927,1.746-2.89,3.714
	c0.064,3.324,6.039,5.362,5.418,14.324c-0.641,9.238-7.072,9.439-5.124,13.876c0.619,1.407,2.337,2.704,4.471,2.098
	c2.159-0.612,4.731-4.77,5.882-7.113c4.064-8.277,2.48-18.044-3.339-24.908c-0.249-0.296-1.388-1.364-1.688-1.559
	C66.769,90.709,65.737,90.553,64.802,90.771"/>
<path fill-rule="evenodd" clip-rule="evenodd" fill="#6D6E70" d="M56.074,99.396c-1.674,0.556-3.033,2.279-2.435,4.558
	c0.47,1.787,2.633,2.524,1.619,5.01c-0.421,1.032-2.533,2.437-1.469,5.158c0.587,1.499,2.548,2.88,4.702,2.084
	c2.89-1.065,4.801-5.992,4.379-9.675C62.483,103.17,59.859,98.135,56.074,99.396"/>
</svg>
