<?xml version="1.0" encoding="utf-8"?>
<!-- Generator: Adobe Illustrator 16.0.0, SVG Export Plug-In . SVG Version: 6.00 Build 0)  -->
<!DOCTYPE svg PUBLIC "-//W3C//DTD SVG 1.1//EN" "http://www.w3.org/Graphics/SVG/1.1/DTD/svg11.dtd">
<svg version="1.1" id="Layer_1" xmlns="http://www.w3.org/2000/svg" xmlns:xlink="http://www.w3.org/1999/xlink" x="0px" y="0px"
	 width="384.028px" height="71.943px" viewBox="7.222 13.163 384.028 71.943" enable-background="new 7.222 13.163 384.028 71.943"
	 xml:space="preserve">
<path fill="#05D0C4" d="M215.428,50.834c0.586-0.958,0.883-2.066,0.883-3.217c0-4.563-3.916-6.619-7.975-6.808
	c-1.539-0.073-3.105,0.036-4.559,0.47c-0.176-1.212-0.568-2.378-1.105-3.483c0.643-1.269,1.025-2.643,1.025-4.094
	c0-2.747-1.73-4.919-3.667-6.667c-1.369-1.238-2.895-2.166-4.544-2.771c0.39-1.06,0.628-2.162,0.628-3.297
	c0-3.447-2.183-6.057-5.423-7.033c-5.376-1.621-11.001-0.344-16.342,0.707c-9.563,1.626-22.053-1.739-30.465,3.875
	c-6.125,4.088-7.693,11.232-7.693,18.162c0,2.996,1.959,5.055,4.29,6.524c-0.483,0.966-0.96,1.937-1.436,2.901
	c-1.573,3.188-2.478,6.633-2.248,10.205l0.021,0.338l0.065,0.329c6.823,34.234,58.251,37.144,64.766,9.148l0.717,1.284l1.979,0.589
	c1.556,0.463,3.181,0.244,4.599-0.522c2.285-1.238,3.25-3.207,3.328-5.35c1.768-0.392,3.315-1.355,4.246-3.054
	c0.571-1.012,0.729-2.066,0.729-3.231C217.246,53.888,216.541,52.225,215.428,50.834z M198.75,43.285
	c-0.069,0.259-0.241,0.628-0.518,0.628H197c0,0,0,0.013,0,0.064c0,0.017,0,0.215,0,0.595c-1,0.362-0.678,0.543-1.247,0.543
	c-0.448,0-1.561-0.19-3.096-0.57c-1.847-0.329-4.158-0.465-6.814-0.414c-1.001,0.933-1.927,2.648-2.721,5.151
	c2.381-1.139,4.195-1.561,5.471-1.269c1.088,0.241,1.623,0.896,1.623,1.966c0,0.673-0.555,1.303-1.66,1.89l-3.34,1.786
	c-0.967,0.655-1.564,1.414-1.788,2.277c-0.172,0.655-0.329,1.154-0.465,1.502c1.759-0.036,3.786-0.2,6.08-0.494
	c2.277-0.274,3.529-0.283,3.753-0.024c0.293,0.36,0.51,1.156,0.647,2.381c1.156-0.068,2.14-0.104,2.95-0.104
	c0.466,0,0.751,0.259,0.854,0.775c0,28.027-49.258,26.724-55.384-4.012c-0.156-2.43,0.422-4.975,1.735-7.635
	c7.067-14.343-2.33-5.251-2.33-11.672c0-22.699,18.72-14.444,34.06-17.055c4.273-0.84,9.623-2.119,13.897-0.827
	c1.208,0.36,1.811,1.086,1.811,2.173c0,1.156-0.664,2.666-1.993,4.53c-0.673,0.948-1.38,1.698-2.122,2.251
	c0.672,0.586,1.01,1.371,1.01,2.354c0.224-0.293,0.483-0.57,0.776-0.829c0.569-0.517,1.216-0.775,1.94-0.775
	c2.278,0,4.271,0.768,5.979,2.303c1.328,1.208,1.993,2.173,1.993,2.898c0,0.776-0.294,1.604-0.881,2.484
	c-0.586,0.88-0.88,1.389-0.88,1.527l0.958,1.76c0.656,1.156,0.982,2.243,0.982,3.225C198.8,42.967,198.784,43.182,198.75,43.285z
	 M203.809,46.919c0.803-0.804,2.232-1.158,4.291-1.062c2.09,0.097,3.133,0.675,3.133,1.735c0,0.307-0.08,0.538-0.239,0.699
	l-1.929,0.025c-0.467,0-1.334-0.146-2.604-0.435c-1.285-0.306-2.188-0.577-2.699-0.819L203.809,46.919z M206.523,62.988
	c-0.271,0.145-0.512,0.186-0.73,0.121l-0.939-1.685c-0.223-0.409-0.508-1.241-0.858-2.495c-0.345-1.275-0.533-2.197-0.565-2.765
	l0.149-0.026c1.09,0.323,2.082,1.412,2.978,3.268C207.467,61.289,207.455,62.482,206.523,62.988z M212.086,56.568
	c-0.221,0.445-0.82,0.666-1.791,0.666c-1.166,0-2.775-0.805-4.83-2.415c-1.775-1.415-3.012-2.651-3.705-3.705
	c2.803-0.611,5.316-0.251,7.535,1.083c1.916,1.137,2.875,2.346,2.875,3.621C212.17,56.236,212.143,56.485,212.086,56.568z"/>
<path fill="#58595B" d="M111.42,44.119c0.569-3.271,2.512-5.403,5.498-5.403c3.034,0,4.93,2.181,5.356,5.403H111.42z
	 M117.629,59.382c4.597,0,8.011-1.802,10.38-4.739l-4.124-3.65c-1.991,1.849-3.745,2.607-6.162,2.607
	c-3.224,0-5.499-1.706-6.209-4.978h17.68c0.047-0.664,0.094-1.327,0.094-1.896c0-7.205-3.887-13.793-12.372-13.793
	c-7.394,0-12.561,5.972-12.561,13.224v0.095C104.357,54.026,109.998,59.382,117.629,59.382z M91.7,59.287
	c5.499,0,9.717-2.559,9.717-8.199v-0.095c0-4.645-4.124-6.351-7.679-7.537c-2.749-0.948-5.166-1.61-5.166-3.033v-0.095
	c0-0.995,0.9-1.753,2.654-1.753c1.849,0,4.361,0.9,6.873,2.37l2.75-4.978c-2.75-1.849-6.257-2.938-9.48-2.938
	c-5.119,0-9.291,2.891-9.291,8.058v0.096c0,4.93,4.029,6.589,7.584,7.631c2.796,0.853,5.261,1.375,5.261,2.938v0.096
	c0,1.138-0.948,1.896-3.034,1.896c-2.37,0-5.261-1.043-8.01-3.034l-3.081,4.739C84.164,58.102,88.145,59.287,91.7,59.287z
	 M69.8,58.813h7.205V33.407H69.8V58.813z M51.549,53.172c-3.981,0-6.683-3.271-6.683-7.015v-0.094c0-3.745,2.464-6.921,6.588-6.921
	c3.981,0,6.683,3.271,6.683,7.015v0.095C58.138,49.997,55.673,53.172,51.549,53.172z M51.455,59.382
	c7.916,0,13.793-5.926,13.793-13.225v-0.094c0-7.3-5.83-13.13-13.698-13.13c-7.916,0-13.793,5.925-13.793,13.224v0.095
	C37.756,53.552,43.586,59.382,51.455,59.382z M10.452,58.813h7.205V44.641c0-3.414,1.754-5.167,4.503-5.167s4.36,1.753,4.36,5.167
	v14.172h7.205V42.365c0-5.83-3.176-9.432-8.626-9.432c-3.65,0-5.783,1.942-7.442,4.075v-3.603h-7.205V58.813z"/>
<path fill="#58595B" d="M368.826,58.813h22.088v-5.83h-13.178l13.178-14.504v-5.072h-21.662v5.831h12.703l-13.129,14.504V58.813
	L368.826,58.813z M351.334,58.813h7.205v-9.385c0-6.067,2.938-8.958,7.725-8.958h0.379v-7.536c-4.266-0.189-6.635,2.085-8.104,5.593
	v-5.12h-7.205V58.813z M329.102,44.119c0.568-3.271,2.513-5.403,5.498-5.403c3.033,0,4.931,2.181,5.355,5.403H329.102z
	 M335.311,59.382c4.599,0,8.011-1.802,10.382-4.739l-4.125-3.65c-1.99,1.849-3.744,2.607-6.16,2.607c-3.226,0-5.5-1.706-6.211-4.978
	h17.682c0.047-0.664,0.094-1.327,0.094-1.896c0-7.205-3.887-13.793-12.371-13.793c-7.395,0-12.561,5.972-12.561,13.224v0.095
	C322.039,54.026,327.68,59.382,335.311,59.382z M297.389,58.813h7.205v-7.727l2.56-2.703l6.493,10.429h8.343l-10-15.405l9.67-10.001
	h-8.627l-8.438,9.243v-9.251h-7.205V58.813z M279.707,54.31c-2.322,0-3.936-1.139-3.936-3.081v-0.096
	c0-2.274,1.896-3.508,4.979-3.508c1.754,0,3.365,0.379,4.598,0.948v1.279C285.348,52.461,283.072,54.31,279.707,54.31z
	 M277.527,59.287c3.506,0,5.924-1.279,7.678-3.223v2.749h6.967V44.072c0-3.413-0.852-6.209-2.748-8.105
	c-1.801-1.801-4.645-2.844-8.58-2.844c-4.313,0-7.063,0.807-9.856,2.038l1.801,5.499c2.321-0.854,4.267-1.375,7.015-1.375
	c3.604,0,5.45,1.659,5.45,4.646v0.427c-1.801-0.617-3.649-1.043-6.209-1.043c-6.021,0-10.237,2.56-10.237,8.105v0.096
	C268.805,56.539,272.738,59.287,277.527,59.287z M226.285,58.813h7.205V44.641c0-3.414,1.658-5.167,4.361-5.167
	c2.701,0,4.217,1.753,4.217,5.167v14.172h7.205V44.641c0-3.414,1.66-5.167,4.36-5.167c2.703,0,4.22,1.753,4.22,5.167v14.172h7.205
	V42.271c0-6.115-3.224-9.337-8.58-9.337c-3.459,0-6.113,1.422-8.342,4.027c-1.328-2.559-3.841-4.027-7.158-4.027
	c-3.648,0-5.83,1.942-7.488,4.075v-3.603h-7.205V58.813L226.285,58.813z"/>
<g>
	<path fill="#73BE44" d="M215.428,50.834c0.586-0.958,0.883-2.065,0.883-3.216c0-4.563-3.916-6.619-7.975-6.808
		c-1.539-0.073-3.105,0.036-4.559,0.47c-0.176-1.212-0.568-2.378-1.105-3.484c0.643-1.268,1.025-2.642,1.025-4.094
		c0-2.747-1.73-4.919-3.667-6.667c-1.37-1.237-2.896-2.166-4.545-2.771c0.39-1.06,0.628-2.162,0.628-3.297
		c0-3.447-2.183-6.058-5.423-7.033c-5.376-1.621-11.001-0.345-16.342,0.706c-4.805,0.816-10.349,0.375-15.744,0.442
		c1.493,1.625,2.909,3.321,4.247,5.08c4.123,0.056,8.417,0.125,12.476-0.564c4.273-0.84,9.623-2.119,13.897-0.827
		c1.208,0.36,1.811,1.086,1.811,2.173c0,1.156-0.664,2.666-1.993,4.53c-0.673,0.948-1.38,1.698-2.122,2.251
		c0.672,0.586,1.01,1.372,1.01,2.354c0.224-0.293,0.483-0.57,0.776-0.829c0.569-0.517,1.216-0.775,1.94-0.775
		c2.278,0,4.271,0.768,5.979,2.303c1.328,1.208,1.993,2.173,1.993,2.898c0,0.776-0.294,1.604-0.881,2.484
		c-0.586,0.88-0.88,1.389-0.88,1.527l0.958,1.76c0.656,1.156,0.982,2.227,0.982,3.209c0,0.293-0.017,0.524-0.051,0.627
		c-0.069,0.259-0.241,0.628-0.518,0.628H197c0,0,0,0.013,0,0.064c0,0.017,0,0.215,0,0.595c-1,0.362-0.678,0.543-1.247,0.543
		c-0.448,0-1.561-0.19-3.096-0.57c-1.847-0.329-4.158-0.465-6.814-0.414c-1.001,0.933-1.927,2.648-2.721,5.151
		c2.381-1.139,4.195-1.561,5.471-1.269c1.088,0.241,1.623,0.896,1.623,1.966c0,0.673-0.555,1.303-1.66,1.89l-3.34,1.786
		c-0.967,0.655-1.564,1.414-1.788,2.277c-0.172,0.655-0.329,1.154-0.465,1.502c1.759-0.036,3.786-0.2,6.08-0.494
		c2.277-0.274,3.529-0.283,3.753-0.024c0.293,0.36,0.51,1.156,0.647,2.381c1.156-0.068,2.14-0.104,2.95-0.104
		c0.466,0,0.751,0.259,0.854,0.775c0,12.774-10.233,19.452-21.951,20.03c-0.421,1.726-0.901,3.426-1.445,5.1
		c12.917-0.083,24.875-6.418,27.797-18.976l0.717,1.285l1.98,0.588c1.555,0.463,3.18,0.244,4.598-0.522
		c2.285-1.238,3.248-3.207,3.328-5.35c1.768-0.392,3.315-1.355,4.246-3.054c0.571-1.012,0.729-2.066,0.729-3.23
		C217.246,53.888,216.539,52.225,215.428,50.834z M203.809,46.919c0.803-0.804,2.232-1.158,4.291-1.062
		c2.09,0.097,3.133,0.675,3.133,1.735c0,0.307-0.08,0.538-0.239,0.699l-1.929,0.025c-0.467,0-1.334-0.146-2.604-0.435
		c-1.285-0.306-2.188-0.577-2.699-0.819L203.809,46.919z M206.523,62.988c-0.271,0.145-0.512,0.186-0.73,0.121l-0.939-1.685
		c-0.223-0.409-0.508-1.241-0.858-2.495c-0.345-1.275-0.533-2.197-0.565-2.765l0.149-0.026c1.09,0.323,2.082,1.412,2.978,3.268
		C207.467,61.289,207.455,62.482,206.523,62.988z M212.086,56.568c-0.221,0.445-0.82,0.666-1.791,0.666
		c-1.166,0-2.775-0.805-4.83-2.415c-1.775-1.415-3.012-2.651-3.705-3.705c2.803-0.611,5.316-0.251,7.535,1.083
		c1.916,1.137,2.875,2.346,2.875,3.621C212.17,56.236,212.143,56.485,212.086,56.568z"/>
</g>
<g>
	<g>
		<defs>
			<path id="SVGID_1_" d="M390.057,65.674c1.504,0,2.722,1.081,2.722,2.413s-1.218,2.412-2.722,2.412H227.143
				c-1.502,0-2.723-1.08-2.723-2.412s1.221-2.413,2.723-2.413H390.057z"/>
		</defs>
		<clipPath id="SVGID_2_">
			<use xlink:href="#SVGID_1_"  overflow="visible"/>
		</clipPath>
		
			<linearGradient id="SVGID_3_" gradientUnits="userSpaceOnUse" x1="430.4199" y1="-264.8171" x2="598.7773" y2="-264.8171" gradientTransform="matrix(1 0 0 -1 -206 -196.731)">
			<stop  offset="0" style="stop-color:#00A551"/>
			<stop  offset="1" style="stop-color:#73BE44"/>
		</linearGradient>
		<rect x="224.42" y="65.674" clip-path="url(#SVGID_2_)" fill="url(#SVGID_3_)" width="168.357" height="4.825"/>
	</g>
</g>
<g>
	<g>
		<defs>
			<path id="SVGID_4_" d="M129.421,65.674c1.502,0,2.721,1.081,2.721,2.413s-1.219,2.412-2.721,2.412H9.943
				c-1.502,0-2.721-1.08-2.721-2.412s1.219-2.413,2.721-2.413H129.421z"/>
		</defs>
		<clipPath id="SVGID_5_">
			<use xlink:href="#SVGID_4_"  overflow="visible"/>
		</clipPath>
		
			<linearGradient id="SVGID_6_" gradientUnits="userSpaceOnUse" x1="213.2227" y1="-264.8171" x2="338.1426" y2="-264.8171" gradientTransform="matrix(1 0 0 -1 -206 -196.731)">
			<stop  offset="0" style="stop-color:#00A551"/>
			<stop  offset="1" style="stop-color:#73BE44"/>
		</linearGradient>
		<rect x="7.222" y="65.674" clip-path="url(#SVGID_5_)" fill="url(#SVGID_6_)" width="124.92" height="4.825"/>
	</g>
</g>
<g>
	<g>
		<defs>
			<path id="SVGID_7_" d="M129.421,23.749c1.502,0,2.721,1.081,2.721,2.413c0,1.333-1.219,2.413-2.721,2.413H9.943
				c-1.502,0-2.721-1.08-2.721-2.413c0-1.332,1.219-2.413,2.721-2.413H129.421z"/>
		</defs>
		<clipPath id="SVGID_8_">
			<use xlink:href="#SVGID_7_"  overflow="visible"/>
		</clipPath>
		
			<linearGradient id="SVGID_9_" gradientUnits="userSpaceOnUse" x1="213.2227" y1="-222.8923" x2="338.1426" y2="-222.8923" gradientTransform="matrix(1 0 0 -1 -206 -196.731)">
			<stop  offset="0" style="stop-color:#00A551"/>
			<stop  offset="1" style="stop-color:#73BE44"/>
		</linearGradient>
		<rect x="7.222" y="23.749" clip-path="url(#SVGID_8_)" fill="url(#SVGID_9_)" width="124.92" height="4.825"/>
	</g>
</g>
<g>
	<g>
		<defs>
			<path id="SVGID_10_" d="M388.529,23.749c1.502,0,2.721,1.081,2.721,2.413c0,1.333-1.219,2.413-2.721,2.413H225.992
				c-1.502,0-2.721-1.08-2.721-2.413c0-1.332,1.219-2.413,2.721-2.413H388.529z"/>
		</defs>
		<clipPath id="SVGID_11_">
			<use xlink:href="#SVGID_10_"  overflow="visible"/>
		</clipPath>
		
			<linearGradient id="SVGID_12_" gradientUnits="userSpaceOnUse" x1="429.2715" y1="-222.8923" x2="597.25" y2="-222.8923" gradientTransform="matrix(1 0 0 -1 -206 -196.731)">
			<stop  offset="0" style="stop-color:#00A551"/>
			<stop  offset="1" style="stop-color:#73BE44"/>
		</linearGradient>
		<rect x="223.271" y="23.749" clip-path="url(#SVGID_11_)" fill="url(#SVGID_12_)" width="167.979" height="4.825"/>
	</g>
</g>
</svg>
