<?xml version="1.0" encoding="utf-8"?>
<!-- Generator: Adobe Illustrator 16.0.0, SVG Export Plug-In . SVG Version: 6.00 Build 0)  -->
<!DOCTYPE svg PUBLIC "-//W3C//DTD SVG 1.1//EN" "http://www.w3.org/Graphics/SVG/1.1/DTD/svg11.dtd">
<svg version="1.1" id="Layer_1" xmlns="http://www.w3.org/2000/svg" xmlns:xlink="http://www.w3.org/1999/xlink" x="0px" y="0px"
	 width="135.88px" height="200px" viewBox="0 0 135.88 200" enable-background="new 0 0 135.88 200" xml:space="preserve">
<path fill="#58595B" d="M11.903,176.533h11.685v-22.984c0-5.535,2.845-8.381,7.304-8.381c4.458,0,7.072,2.846,7.072,8.381v22.984
	h11.685v-26.674c0-9.455-5.15-15.301-13.99-15.301c-5.921,0-9.379,3.152-12.071,6.611v-5.842H11.903V176.533z"/>
<path fill="#58595B" d="M54.603,176.533h11.685v-22.984c0-5.535,2.69-8.381,7.073-8.381c4.381,0,6.843,2.846,6.843,8.381v22.984
	h11.685v-22.984c0-5.535,2.69-8.381,7.072-8.381c4.384,0,6.843,2.846,6.843,8.381v22.984h11.686v-26.828
	c0-9.92-5.229-15.146-13.915-15.146c-5.613,0-9.918,2.309-13.53,6.535c-2.153-4.152-6.228-6.535-11.608-6.535
	c-5.92,0-9.457,3.152-12.147,6.611v-5.842H54.603V176.533z"/>
<path fill-rule="evenodd" clip-rule="evenodd" fill="#05D0C4" d="M108.563,47.573c2.071-0.619,4.307-0.775,6.504-0.67
	c5.788,0.269,11.377,3.201,11.377,9.71c0,1.641-0.424,3.222-1.261,4.589c1.587,1.983,2.595,4.355,2.595,7.143
	c0,1.663-0.224,3.168-1.041,4.611c-1.325,2.421-3.537,3.797-6.056,4.355c-0.113,3.056-1.489,5.863-4.751,7.631
	c-2.021,1.094-4.338,1.405-6.557,0.746l-2.826-0.84l-1.021-1.833c-9.291,39.935-82.657,35.788-92.39-13.051l-0.094-0.471l-0.03-0.48
	c-0.327-5.097,0.963-10.011,3.208-14.559c0.678-1.378,1.359-2.762,2.049-4.138c-3.324-2.098-6.121-5.034-6.121-9.31
	c0-9.885,2.237-20.076,10.974-25.909c12.001-8.01,29.819-3.208,43.46-5.529c7.618-1.497,15.642-3.321,23.313-1.007
	c4.621,1.394,7.737,5.117,7.737,10.035c0,1.617-0.342,3.191-0.897,4.702c2.353,0.863,4.528,2.187,6.484,3.952
	c2.759,2.495,5.228,5.592,5.228,9.51c0,2.071-0.546,4.031-1.46,5.841C107.753,44.18,108.312,45.843,108.563,47.573"/>
<defs>
	<filter id="Adobe_OpacityMaskFilter" filterUnits="userSpaceOnUse" x="44.124" y="7.463" width="83.654" height="102.623">
		<feColorMatrix  type="matrix" values="1 0 0 0 0  0 1 0 0 0  0 0 1 0 0  0 0 0 1 0"/>
	</filter>
</defs>
<mask maskUnits="userSpaceOnUse" x="44.124" y="7.463" width="83.654" height="102.623" id="SVGID_1_">
	<g filter="url(#Adobe_OpacityMaskFilter)">
		
			<linearGradient id="SVGID_2_" gradientUnits="userSpaceOnUse" x1="-33.1514" y1="522.5859" x2="-284.7791" y2="501.5735" gradientTransform="matrix(1 0 0 1 256.2368 -452.3613)">
			<stop  offset="0" style="stop-color:#FFFFFF"/>
			<stop  offset="1" style="stop-color:#000000"/>
		</linearGradient>
		<rect x="44.124" y="7.463" fill="url(#SVGID_2_)" width="83.654" height="102.623"/>
	</g>
</mask>
<path mask="url(#SVGID_1_)" fill-rule="evenodd" clip-rule="evenodd" fill="#73BE44" d="M108.562,47.573
	c2.073-0.619,4.308-0.775,6.505-0.67c5.788,0.269,11.377,3.201,11.377,9.71c0,1.641-0.424,3.221-1.261,4.589
	c1.587,1.984,2.595,4.355,2.595,7.144c0,1.662-0.224,3.167-1.041,4.61c-1.326,2.421-3.537,3.797-6.056,4.355
	c-0.113,3.056-1.489,5.864-4.751,7.631c-2.021,1.095-4.338,1.407-6.556,0.746l-2.827-0.84l-1.021-1.833
	c-4.167,17.913-21.229,26.948-39.655,27.069c3.211-9.874,4.954-20.411,4.954-31.357c0-26.428-10.125-50.491-26.702-68.526
	c7.696-0.098,15.605,0.533,22.459-0.632c7.618-1.498,15.642-3.319,23.313-1.007c4.621,1.394,7.737,5.117,7.737,10.035
	c0,1.617-0.342,3.191-0.897,4.702c2.353,0.863,4.527,2.187,6.484,3.952c2.759,2.495,5.228,5.592,5.228,9.511
	c0,2.07-0.546,4.03-1.46,5.839C107.753,44.18,108.312,45.843,108.562,47.573"/>
<path fill-rule="evenodd" clip-rule="evenodd" fill="#58595B" d="M119.199,56.579L119.199,56.579c0-1.513-1.489-2.337-4.47-2.476
	c-2.936-0.138-4.977,0.368-6.123,1.514l-0.067,0.206c0.733,0.345,2.019,0.733,3.852,1.169c1.812,0.413,3.049,0.619,3.713,0.619
	l2.752-0.035C119.084,57.346,119.199,57.015,119.199,56.579 M117.86,70.332L117.86,70.332c1.387,0,2.239-0.314,2.555-0.95
	c0.08-0.118,0.118-0.474,0.118-1.069c0-1.821-1.365-3.544-4.099-5.166c-3.166-1.903-6.75-2.417-10.75-1.545
	c0.989,1.504,2.752,3.267,5.287,5.286C113.9,69.184,116.198,70.332,117.86,70.332z M112.481,78.54L112.481,78.54
	c1.328-0.722,1.343-2.424,0.043-5.111c-1.277-2.645-2.691-4.199-4.245-4.659l-0.217,0.037c0.05,0.809,0.319,2.124,0.811,3.943
	c0.501,1.788,0.907,2.976,1.226,3.561l1.342,2.401C111.75,78.804,112.097,78.747,112.481,78.54z M19.392,40.974
	c0,9.158,13.406-3.812,3.324,16.649c-1.872,3.795-2.697,7.425-2.475,10.892c8.738,43.844,79.009,45.706,79.009,5.722
	c-0.147-0.738-0.555-1.106-1.22-1.106c-1.154,0-2.56,0.049-4.208,0.146c-0.196-1.746-0.504-2.881-0.924-3.396
	c-0.317-0.369-2.104-0.357-5.353,0.037c-3.272,0.418-6.165,0.651-8.675,0.702c0.195-0.494,0.417-1.207,0.663-2.141
	c0.32-1.232,1.169-2.314,2.548-3.25l4.763-2.548c1.576-0.836,2.361-1.735,2.361-2.695c0-1.527-0.772-2.46-2.325-2.805
	c-1.819-0.417-4.43,0.185-7.826,1.81c1.133-3.57,2.411-6.02,3.84-7.349c3.79-0.074,7.002,0.122,9.636,0.59
	c2.188,0.542,3.606,0.813,4.247,0.813c0.813,0,1.292-0.259,1.438-0.776c0-0.541,0-0.825,0-0.849c0-0.074,0-0.135,0-0.184h2.438
	c0.395-0.197,0.64-0.479,0.737-0.85c0.049-0.148,0.075-0.431,0.075-0.85c0-1.401-0.47-2.927-1.403-4.577l-1.367-2.51
	c0-0.197,0.417-0.923,1.257-2.178c0.837-1.257,1.254-2.438,1.254-3.544c0-1.035-0.947-2.413-2.841-4.135
	c-2.438-2.191-5.28-3.286-8.531-3.286c-1.034,0-1.957,0.37-2.769,1.107c-0.418,0.369-0.787,0.763-1.105,1.182
	c0-1.403-0.48-2.522-1.442-3.36c1.059-0.787,2.067-1.856,3.028-3.21c1.895-2.66,2.844-4.813,2.844-6.461
	c0-1.55-0.862-2.585-2.585-3.101c-6.096-1.843-13.729-0.018-19.825,1.181C46.096,20.369,19.392,8.591,19.392,40.974z"/>
<g>
	<defs>
		<path id="SVGID_3_" d="M116.874,119.82c2.437,0,4.413,1.752,4.413,3.912s-1.977,3.912-4.413,3.912H12.519
			c-2.438,0-4.417-1.752-4.417-3.912s1.979-3.912,4.417-3.912H116.874z"/>
	</defs>
	<clipPath id="SVGID_4_">
		<use xlink:href="#SVGID_3_"  overflow="visible"/>
	</clipPath>
	<linearGradient id="SVGID_5_" gradientUnits="userSpaceOnUse" x1="8.1021" y1="123.7324" x2="121.2866" y2="123.7324">
		<stop  offset="0" style="stop-color:#00A551"/>
		<stop  offset="1" style="stop-color:#73BE44"/>
	</linearGradient>
	<rect x="8.102" y="119.82" clip-path="url(#SVGID_4_)" fill="url(#SVGID_5_)" width="113.185" height="7.824"/>
</g>
<g>
	<defs>
		<path id="SVGID_6_" d="M116.874,184.711c2.437,0,4.413,1.754,4.413,3.914c0,2.162-1.977,3.912-4.413,3.912H12.519
			c-2.438,0-4.417-1.75-4.417-3.912c0-2.16,1.979-3.914,4.417-3.914H116.874z"/>
	</defs>
	<clipPath id="SVGID_7_">
		<use xlink:href="#SVGID_6_"  overflow="visible"/>
	</clipPath>
	<linearGradient id="SVGID_8_" gradientUnits="userSpaceOnUse" x1="8.1021" y1="188.624" x2="121.2866" y2="188.624">
		<stop  offset="0" style="stop-color:#00A551"/>
		<stop  offset="1" style="stop-color:#73BE44"/>
	</linearGradient>
	<rect x="8.102" y="184.711" clip-path="url(#SVGID_7_)" fill="url(#SVGID_8_)" width="113.185" height="7.826"/>
</g>
</svg>
