<?xml version="1.0" encoding="utf-8"?>
<!-- Generator: Adobe Illustrator 16.0.0, SVG Export Plug-In . SVG Version: 6.00 Build 0)  -->
<!DOCTYPE svg PUBLIC "-//W3C//DTD SVG 1.1//EN" "http://www.w3.org/Graphics/SVG/1.1/DTD/svg11.dtd">
<svg version="1.1" id="Layer_1" xmlns="http://www.w3.org/2000/svg" xmlns:xlink="http://www.w3.org/1999/xlink" x="0px" y="0px"
	 width="135.88px" height="200px" viewBox="0 0 135.88 200" enable-background="new 0 0 135.88 200" xml:space="preserve">
<path fill="#58595B" d="M11.903,176.533h11.685v-22.984c0-5.535,2.845-8.381,7.304-8.381c4.458,0,7.072,2.846,7.072,8.381v22.984
	h11.685v-26.674c0-9.455-5.15-15.301-13.99-15.301c-5.921,0-9.379,3.152-12.071,6.611v-5.842H11.903V176.533z"/>
<path fill="#58595B" d="M54.603,176.533h11.685v-22.984c0-5.535,2.69-8.381,7.073-8.381c4.381,0,6.843,2.846,6.843,8.381v22.984
	h11.685v-22.984c0-5.535,2.69-8.381,7.072-8.381c4.384,0,6.843,2.846,6.843,8.381v22.984h11.686v-26.828
	c0-9.92-5.229-15.146-13.915-15.146c-5.613,0-9.918,2.309-13.53,6.535c-2.153-4.152-6.228-6.535-11.608-6.535
	c-5.92,0-9.457,3.152-12.147,6.611v-5.842H54.603V176.533z"/>
<path fill="#58595B" d="M125.183,61.202c0.837-1.367,1.261-2.948,1.261-4.589c0-5.696-4.279-8.653-9.227-9.483
	c-0.706-0.119-1.427-0.194-2.15-0.228c-0.549-0.026-1.101-0.036-1.651-0.027c-0.068,0.001-0.136,0.01-0.203,0.011
	c-1.584,0.042-3.159,0.241-4.649,0.686c-0.143-0.979-0.392-1.934-0.712-2.866c-0.246-0.716-0.53-1.419-0.863-2.104
	c0.457-0.905,0.822-1.847,1.073-2.822c0.25-0.975,0.387-1.982,0.387-3.018v0v0c0-2.694-1.167-5-2.793-6.988
	c-0.738-0.904-1.572-1.743-2.435-2.522c-1.02-0.92-2.102-1.713-3.234-2.391c-1.04-0.623-2.123-1.148-3.25-1.562
	c0.556-1.511,0.897-3.085,0.897-4.702c0-0.615-0.049-1.211-0.143-1.786c-0.66-4.026-3.551-7.029-7.595-8.249
	c-5.114-1.542-10.385-1.243-15.588-0.43c-2.602,0.406-5.186,0.975-7.726,1.474C65.727,9.752,64.854,10,63.968,10
	c-0.004,0-0.009,0-0.013,0c-0.882,0-1.778,0.129-2.685,0.182c-0.01,0-0.02-0.145-0.03-0.145C60.338,10.09,59.425,10,58.503,10
	c-0.016,0-0.031,0-0.046,0c-0.916,0-1.84,0-2.771,0c-0.032,0-0.064,0-0.096,0c-0.916,0-1.836,0.135-2.762,0.124
	c-0.105-0.001-0.211,0.068-0.316,0.067c-0.733-0.01-1.467-0.083-2.203-0.093C49.223,10.083,48.133,10,47.045,10
	c-0.024,0-0.048,0-0.072,0c-0.938,0-1.876,0-2.811,0c-0.013,0-0.199,0-0.199,0v0.102c-7,0.098-14.95,0.962-20.922,4.947
	c-8.736,5.833-10.934,16.049-10.934,25.934c0,4.275,2.816,7.224,6.141,9.322c-0.689,1.376-1.361,2.767-2.039,4.145
	c-2.244,4.548-3.529,9.465-3.202,14.562l0.033,0.482l0.095,0.428C18.502,96.854,43.22,110,65.872,110h0c0.01,0,0.02,0,0.03,0
	c3.42,0,6.791-0.313,10.042-0.951c0.035-0.008,0.069,0.008,0.104,0.001c0.494-0.099,0.985-0.194,1.474-0.307
	c0.071-0.017,0.144-0.026,0.215-0.043c0.47-0.11,0.936-0.226,1.399-0.349c0.085-0.023,0.17-0.044,0.255-0.067
	c0.457-0.124,0.911-0.254,1.361-0.392c0.082-0.024,0.163-0.05,0.245-0.075c0.456-0.142,0.91-0.288,1.359-0.443
	c0.054-0.019,0.106-0.038,0.159-0.057c1.997-0.698,3.921-1.524,5.749-2.485c0.016-0.008,0.031-0.016,0.047-0.023
	c0.365-0.192,0.723-0.395,1.08-0.597c0.13-0.074,0.262-0.146,0.392-0.222c0.315-0.184,0.625-0.375,0.935-0.567
	c0.164-0.103,0.329-0.204,0.492-0.31c0.286-0.185,0.568-0.374,0.85-0.566c0.179-0.122,0.356-0.245,0.532-0.37
	c0.264-0.188,0.525-0.379,0.784-0.573c0.186-0.14,0.368-0.281,0.551-0.425c0.245-0.192,0.489-0.385,0.729-0.583
	c0.188-0.156,0.372-0.316,0.557-0.476c0.228-0.197,0.455-0.392,0.677-0.595c0.191-0.175,0.378-0.356,0.565-0.536
	c0.206-0.197,0.415-0.392,0.616-0.595c0.211-0.213,0.415-0.434,0.62-0.653c0.206-0.219,0.412-0.436,0.611-0.66
	c0.317-0.357,0.629-0.719,0.931-1.091c0.14-0.172,0.271-0.352,0.407-0.527c0.204-0.263,0.409-0.524,0.605-0.794
	c0.14-0.192,0.272-0.39,0.408-0.586c0.182-0.263,0.363-0.525,0.538-0.795c0.133-0.204,0.26-0.413,0.388-0.621
	c0.167-0.271,0.332-0.544,0.491-0.821c0.123-0.213,0.241-0.429,0.359-0.645c0.154-0.285,0.305-0.572,0.451-0.863
	c0.11-0.218,0.219-0.438,0.324-0.659c0.143-0.301,0.279-0.607,0.414-0.915c0.097-0.221,0.193-0.441,0.285-0.665
	c0.134-0.326,0.259-0.658,0.383-0.991c0.08-0.215,0.163-0.427,0.238-0.645c0.13-0.372,0.249-0.752,0.366-1.133
	c0.058-0.188,0.121-0.372,0.176-0.562c0.166-0.574,0.321-1.157,0.459-1.751l1.021,1.833l2.826,0.84
	c0.131,0.039,0.263,0.063,0.395,0.095c2.097,0.515,4.261,0.189,6.162-0.841c3.262-1.767,4.638-4.575,4.751-7.631
	c2.519-0.558,4.73-1.934,6.056-4.355c0.204-0.361,0.371-0.726,0.508-1.096c0.407-1.11,0.533-2.268,0.533-3.515v0v0
	C127.778,65.558,126.77,63.186,125.183,61.202z M101.39,50.269c-0.098,0.371-0.343,0.731-0.737,0.731h-2.689c0,0,0,0.347,0,0.421
	c0,0.024,0,0.308,0,0.849c0,0.517-0.5,0.776-1.313,0.776c-0.641,0-1.995-0.271-4.184-0.813c-2.634-0.468-5.814-0.665-9.604-0.59
	c-1.429,1.329-2.691,3.778-3.824,7.349c3.396-1.625,6.015-2.228,7.834-1.81c1.553,0.345,2.329,1.278,2.329,2.805
	c0,0.96-0.783,1.859-2.359,2.695l-4.762,2.548c-1.379,0.936-2.227,2.017-2.547,3.25c-0.246,0.935-0.468,1.647-0.663,2.141
	c2.51-0.051,5.402-0.284,8.675-0.702c3.248-0.394,5.035-0.406,5.353-0.037c0.42,0.515,0.728,1.649,0.924,3.396
	c1.648-0.097,3.054-0.146,4.208-0.146c0.665,0,1.072,0.368,1.22,1.106c0,39.984-70.271,38.123-79.009-5.722
	c-0.222-3.467,0.603-7.097,2.475-10.892c10.083-20.461-3.324-7.492-3.324-16.649c0-32.383,26.704-20.605,48.587-24.331
	c6.095-1.198,13.729-3.023,19.825-1.181c1.723,0.516,2.585,1.55,2.585,3.101c0,1.648-0.949,3.802-2.844,6.461
	c-0.961,1.354-1.97,2.423-3.028,3.21c0.962,0.838,1.442,1.958,1.442,3.36c0.318-0.418,0.688-0.813,1.105-1.182
	c0.812-0.737,1.734-1.107,2.769-1.107c3.251,0,6.093,1.095,8.531,3.286c1.894,1.723,2.841,3.1,2.841,4.135
	c0,1.106-0.417,2.288-1.254,3.544c-0.84,1.255-1.257,1.98-1.257,2.178l1.367,2.51c0.934,1.65,1.403,3.117,1.403,4.518
	C101.465,49.896,101.439,50.12,101.39,50.269z M108.606,55.617c1.146-1.146,3.188-1.652,6.123-1.514
	c2.98,0.139,4.47,0.963,4.47,2.476c0,0.436-0.114,0.768-0.344,0.997l-2.752,0.035c-0.664,0-1.901-0.206-3.713-0.619
	c-1.833-0.436-3.118-0.825-3.852-1.169L108.606,55.617z M112.481,78.54c-0.384,0.207-0.731,0.264-1.041,0.171l-1.342-2.401
	c-0.318-0.585-0.725-1.773-1.226-3.561c-0.491-1.819-0.761-3.134-0.811-3.943l0.217-0.037c1.554,0.46,2.968,2.014,4.245,4.659
	C113.824,76.116,113.809,77.818,112.481,78.54z M120.415,69.381c-0.315,0.636-1.168,0.95-2.555,0.95
	c-1.662,0-3.96-1.147-6.889-3.445c-2.535-2.019-4.298-3.782-5.287-5.286c4-0.872,7.584-0.357,10.75,1.545
	c2.733,1.622,4.099,3.345,4.099,5.166C120.533,68.907,120.495,69.263,120.415,69.381z"/>
<g>
	<defs>
		<path id="SVGID_1_" d="M116.874,119.82c2.437,0,4.413,1.752,4.413,3.912s-1.977,3.912-4.413,3.912H12.519
			c-2.438,0-4.417-1.752-4.417-3.912s1.979-3.912,4.417-3.912H116.874z"/>
	</defs>
	<use xlink:href="#SVGID_1_"  overflow="visible" fill="#58595B"/>
	<clipPath id="SVGID_2_">
		<use xlink:href="#SVGID_1_"  overflow="visible"/>
	</clipPath>
	<rect x="8.102" y="119.82" clip-path="url(#SVGID_2_)" fill="#58595B" width="113.185" height="7.824"/>
</g>
<g>
	<defs>
		<path id="SVGID_3_" d="M116.874,184.711c2.437,0,4.413,1.754,4.413,3.914c0,2.162-1.977,3.912-4.413,3.912H12.519
			c-2.438,0-4.417-1.75-4.417-3.912c0-2.16,1.979-3.914,4.417-3.914H116.874z"/>
	</defs>
	<use xlink:href="#SVGID_3_"  overflow="visible" fill="#58595B"/>
	<clipPath id="SVGID_4_">
		<use xlink:href="#SVGID_3_"  overflow="visible"/>
	</clipPath>
	<rect x="8.102" y="184.711" clip-path="url(#SVGID_4_)" fill="#58595B" width="113.185" height="7.826"/>
</g>
</svg>
