<?xml version="1.0" encoding="utf-8"?>
<!-- Generator: Adobe Illustrator 16.0.0, SVG Export Plug-In . SVG Version: 6.00 Build 0)  -->
<!DOCTYPE svg PUBLIC "-//W3C//DTD SVG 1.1//EN" "http://www.w3.org/Graphics/SVG/1.1/DTD/svg11.dtd">
<svg version="1.1" id="Layer_1" xmlns="http://www.w3.org/2000/svg" xmlns:xlink="http://www.w3.org/1999/xlink" x="0px" y="0px"
	 width="400px" height="98.269px" viewBox="0 0 400 98.269" enable-background="new 0 0 400 98.269" xml:space="preserve">
<path fill="#58595B" d="M111.42,44.119c0.569-3.271,2.512-5.403,5.498-5.403c3.034,0,4.93,2.18,5.356,5.403H111.42z M117.629,59.382
	c4.597,0,8.011-1.802,10.38-4.74l-4.124-3.65c-1.991,1.849-3.745,2.607-6.162,2.607c-3.224,0-5.499-1.706-6.209-4.977h17.68
	c0.047-0.664,0.094-1.327,0.094-1.896c0-7.205-3.887-13.793-12.372-13.793c-7.394,0-12.561,5.972-12.561,13.224v0.095
	C104.357,54.026,109.998,59.382,117.629,59.382z M91.7,59.287c5.499,0,9.717-2.559,9.717-8.199v-0.095
	c0-4.645-4.124-6.351-7.679-7.537c-2.749-0.948-5.166-1.611-5.166-3.033v-0.095c0-0.995,0.9-1.753,2.654-1.753
	c1.849,0,4.361,0.9,6.873,2.37l2.75-4.977c-2.75-1.849-6.257-2.938-9.48-2.938c-5.119,0-9.291,2.891-9.291,8.058v0.095
	c0,4.93,4.029,6.589,7.584,7.631c2.796,0.853,5.261,1.375,5.261,2.939v0.095c0,1.138-0.948,1.896-3.034,1.896
	c-2.37,0-5.261-1.043-8.01-3.034l-3.081,4.739C84.164,58.102,88.145,59.287,91.7,59.287z M69.8,58.813h7.205V33.407H69.8V58.813z
	 M51.549,53.172c-3.981,0-6.683-3.271-6.683-7.015v-0.094c0-3.745,2.464-6.921,6.588-6.921c3.981,0,6.683,3.271,6.683,7.015v0.095
	C58.138,49.997,55.673,53.172,51.549,53.172z M51.455,59.382c7.916,0,13.793-5.926,13.793-13.225v-0.094
	c0-7.3-5.83-13.13-13.698-13.13c-7.916,0-13.793,5.925-13.793,13.224v0.095C37.756,53.552,43.586,59.382,51.455,59.382z
	 M10.452,58.813h7.205V44.641c0-3.414,1.754-5.167,4.503-5.167c2.749,0,4.36,1.753,4.36,5.167v14.172h7.205V42.365
	c0-5.83-3.176-9.432-8.626-9.432c-3.65,0-5.783,1.943-7.442,4.076v-3.603h-7.205V58.813z"/>
<path fill="#58595B" d="M368.826,58.813h22.088v-5.83h-13.178l13.178-14.504v-5.072h-21.662v5.831h12.703l-13.129,14.504V58.813z
	 M351.334,58.813h7.205v-9.385c0-6.067,2.938-8.958,7.725-8.958h0.379v-7.536c-4.266-0.189-6.635,2.085-8.104,5.593v-5.12h-7.205
	V58.813z M329.102,44.119c0.568-3.271,2.512-5.403,5.498-5.403c3.033,0,4.93,2.18,5.355,5.403H329.102z M335.311,59.382
	c4.598,0,8.01-1.802,10.381-4.74l-4.125-3.65c-1.99,1.849-3.744,2.607-6.16,2.607c-3.225,0-5.5-1.706-6.211-4.977h17.682
	c0.047-0.664,0.094-1.327,0.094-1.896c0-7.205-3.887-13.793-12.371-13.793c-7.395,0-12.561,5.972-12.561,13.224v0.095
	C322.039,54.026,327.68,59.382,335.311,59.382z M297.389,58.813h7.205v-7.726l2.559-2.703l6.494,10.428h8.342l-10-15.405
	l9.67-10.001h-8.627l-8.438,9.243v-9.251h-7.205V58.813z M279.707,54.31c-2.322,0-3.936-1.138-3.936-3.081v-0.095
	c0-2.275,1.896-3.508,4.979-3.508c1.754,0,3.365,0.379,4.598,0.948v1.279C285.348,52.461,283.072,54.31,279.707,54.31z
	 M277.527,59.287c3.506,0,5.924-1.279,7.678-3.223v2.749h6.967V44.072c0-3.413-0.852-6.209-2.748-8.105
	c-1.801-1.801-4.645-2.844-8.58-2.844c-4.313,0-7.063,0.806-9.857,2.038l1.801,5.499c2.322-0.854,4.266-1.375,7.014-1.375
	c3.604,0,5.451,1.659,5.451,4.645v0.427c-1.801-0.617-3.65-1.043-6.209-1.043c-6.02,0-10.238,2.56-10.238,8.106v0.095
	C268.805,56.539,272.738,59.287,277.527,59.287z M226.285,58.813h7.205V44.641c0-3.414,1.658-5.167,4.361-5.167
	c2.701,0,4.217,1.753,4.217,5.167v14.172h7.205V44.641c0-3.414,1.66-5.167,4.361-5.167c2.703,0,4.219,1.753,4.219,5.167v14.172
	h7.205V42.271c0-6.115-3.223-9.337-8.58-9.337c-3.459,0-6.113,1.422-8.342,4.028c-1.328-2.559-3.84-4.028-7.158-4.028
	c-3.648,0-5.83,1.943-7.488,4.076v-3.603h-7.205V58.813z"/>
<path fill="#58595B" d="M217.246,55.842c0-1.825-0.62-3.393-1.607-4.725c-0.07-0.094-0.137-0.191-0.211-0.283
	c0.586-0.958,0.883-2.066,0.883-3.216c0-4.563-3.916-6.619-7.975-6.808c-1.539-0.073-3.105,0.036-4.559,0.47
	c-0.044-0.303-0.102-0.603-0.171-0.9c-0.21-0.891-0.532-1.754-0.935-2.583c0.482-0.952,0.817-1.962,0.955-3.021
	c0.047-0.353,0.07-0.711,0.07-1.074c0-0.343-0.027-0.678-0.078-1.003c-0.357-2.28-1.895-4.134-3.587-5.663
	c-0.449-0.405-0.92-0.765-1.402-1.104c-0.987-0.695-2.034-1.26-3.143-1.667c0.39-1.059,0.628-2.162,0.628-3.296
	c0-0.431-0.034-0.849-0.1-1.252c-0.33-2.016-1.458-3.666-3.108-4.756c-0.661-0.436-1.405-0.782-2.215-1.026
	c-4.368-1.317-8.901-0.721-13.312,0.113c-1.018,0.192-2.029,0.397-3.031,0.594c-0.599,0.102-1.209,0.184-1.83,0.25
	c-0.312,0.034-0.633,0.052-0.949,0.078c-0.313,0.025-0.621,0.057-0.938,0.076c-0.37,0.022-0.747,0.031-1.122,0.045
	c-0.272,0.01-0.541,0.026-0.815,0.032c-0.437,0.01-0.88,0.012-1.323,0.015c-0.217,0.001-0.431,0.007-0.648,0.007
	c-0.557,0-1.12-0.005-1.682-0.011c-0.105-0.001-0.208-0.095-0.313-0.096c-0.684-0.008-1.371-0.122-2.059-0.122
	c-0.019,0-0.038,0-0.057,0c-0.648,0-1.296,0.076-1.945,0.072c-0.238-0.001-0.475-0.037-0.713-0.037
	c-0.436,0-0.873-0.035-1.307-0.035c-0.014,0,0.352,0,0.352,0V15c-6,0.068-10.734,0.681-14.919,3.474
	c-6.125,4.088-7.792,11.254-7.792,18.183c0,2.997,1.911,5.065,4.241,6.536c-0.483,0.966-0.985,1.941-1.46,2.907
	c-1.573,3.188-2.49,6.636-2.26,10.208l0.016,0.339l0.062,0.33c4.334,21.745,26.66,30.847,44.045,27.424
	c0.018-0.004,0.036-0.007,0.054-0.011c0.739-0.146,1.469-0.317,2.188-0.509c0.041-0.011,0.081-0.022,0.121-0.033
	c0.714-0.193,1.418-0.408,2.109-0.646c0.026-0.009,0.052-0.019,0.079-0.028c1.412-0.491,2.773-1.075,4.065-1.754
	c0.014-0.008,0.028-0.015,0.042-0.021c0.616-0.325,1.214-0.675,1.798-1.043c0.061-0.038,0.122-0.076,0.183-0.114
	c0.56-0.359,1.102-0.739,1.628-1.138c0.07-0.053,0.139-0.106,0.208-0.16c0.521-0.404,1.026-0.825,1.511-1.269
	c0.052-0.047,0.101-0.097,0.152-0.144c0.499-0.465,0.981-0.947,1.438-1.455c0.001-0.002,0.003-0.004,0.005-0.006
	c0.454-0.506,0.881-1.036,1.289-1.584c0.041-0.055,0.084-0.107,0.124-0.163c0.383-0.525,0.741-1.073,1.079-1.637
	c0.056-0.092,0.112-0.184,0.166-0.276c0.324-0.559,0.625-1.135,0.904-1.729c0.048-0.103,0.094-0.207,0.141-0.312
	c0.273-0.607,0.525-1.232,0.749-1.878c0.028-0.083,0.054-0.169,0.081-0.253c0.229-0.685,0.435-1.385,0.604-2.111l0.717,1.285
	l1.98,0.588c1.555,0.463,3.18,0.244,4.598-0.523c2.285-1.238,3.25-3.207,3.328-5.349c1.768-0.392,3.316-1.356,4.246-3.054
	c0.143-0.253,0.26-0.509,0.355-0.768C217.158,57.528,217.246,56.716,217.246,55.842C217.246,55.843,217.246,55.843,217.246,55.842
	L217.246,55.842z M203.809,46.919c0.803-0.804,2.232-1.158,4.291-1.062c2.09,0.097,3.133,0.675,3.133,1.736
	c0,0.306-0.08,0.538-0.24,0.699l-1.928,0.025c-0.467,0-1.334-0.145-2.604-0.434c-1.285-0.306-2.188-0.578-2.699-0.82L203.809,46.919
	z M141.864,55.96c-0.156-2.43,0.422-4.975,1.735-7.635c7.067-14.343-2.33-5.251-2.33-11.672c0-16.693,10.125-16.645,21.584-16.49
	l0,0c0.048,0,0.097,0.001,0.146,0.002c0.239,0.003,0.478,0.006,0.718,0.009c0.312,0.004,0.623,0.007,0.936,0.011
	c0.259,0.003,0.518,0.004,0.778,0.006c0.255,0.002,0.509,0.003,0.765,0.004c0.271,0,0.542-0.001,0.814-0.002
	c0.241-0.001,0.482-0.002,0.724-0.005c0.279-0.003,0.559-0.01,0.839-0.016c0.233-0.005,0.466-0.01,0.699-0.017
	c0.288-0.009,0.574-0.023,0.861-0.036c0.224-0.01,0.448-0.019,0.671-0.032c0.301-0.017,0.602-0.041,0.902-0.063
	c0.207-0.016,0.414-0.028,0.62-0.046c0.331-0.029,0.66-0.067,0.989-0.104c0.174-0.02,0.35-0.035,0.523-0.057
	c0.5-0.063,0.998-0.135,1.492-0.219c4.273-0.839,9.623-2.119,13.897-0.827c1.208,0.361,1.811,1.086,1.811,2.173
	c0,1.156-0.664,2.666-1.993,4.53c-0.673,0.949-1.38,1.699-2.122,2.251c0.672,0.586,1.01,1.372,1.01,2.355
	c0.224-0.293,0.483-0.57,0.776-0.829c0.569-0.517,1.216-0.776,1.94-0.776c2.278,0,4.271,0.768,5.979,2.303
	c1.328,1.208,1.993,2.173,1.993,2.899c0,0.776-0.294,1.604-0.881,2.484c-0.586,0.88-0.88,1.389-0.88,1.527l0.958,1.76
	c0.655,1.154,0.981,2.239,0.982,3.221c0,0.287-0.017,0.514-0.05,0.616c-0.069,0.259-0.241,0.628-0.518,0.628H197
	c0,0,0,0.013,0,0.064c0,0.017,0,0.215,0,0.595c-1,0.362-0.678,0.543-1.247,0.543c-0.448,0-1.561-0.19-3.096-0.57
	c-1.847-0.329-4.158-0.465-6.814-0.414c-1.001,0.932-1.927,2.648-2.721,5.151c2.381-1.139,4.195-1.561,5.471-1.269
	c1.088,0.242,1.623,0.896,1.623,1.966c0,0.673-0.555,1.303-1.66,1.89l-3.34,1.786c-0.967,0.655-1.564,1.414-1.788,2.277
	c-0.172,0.656-0.329,1.155-0.465,1.502c1.759-0.036,3.786-0.2,6.08-0.494c2.277-0.274,3.529-0.283,3.753-0.024
	c0.293,0.36,0.51,1.156,0.647,2.381c1.156-0.069,2.14-0.104,2.95-0.104c0.466,0,0.751,0.259,0.854,0.776
	c0,0.42-0.012,0.832-0.034,1.238c-0.007,0.136-0.021,0.269-0.031,0.403c-0.019,0.268-0.039,0.534-0.067,0.796
	c-0.017,0.156-0.04,0.31-0.061,0.464c-0.031,0.234-0.062,0.468-0.1,0.697c-0.027,0.16-0.059,0.317-0.089,0.476
	c-0.042,0.218-0.085,0.434-0.133,0.646c-0.036,0.159-0.076,0.316-0.115,0.473c-0.052,0.206-0.107,0.41-0.166,0.611
	c-0.045,0.155-0.092,0.309-0.141,0.462c-0.063,0.196-0.128,0.391-0.197,0.583c-0.054,0.15-0.108,0.3-0.165,0.447
	c-0.073,0.189-0.151,0.376-0.23,0.562c-0.061,0.143-0.122,0.286-0.186,0.427c-0.085,0.186-0.176,0.367-0.267,0.548
	c-0.067,0.134-0.132,0.269-0.202,0.399c-0.099,0.186-0.204,0.365-0.309,0.547c-0.07,0.12-0.137,0.243-0.21,0.361
	c-0.127,0.207-0.262,0.408-0.396,0.608c-0.057,0.085-0.111,0.174-0.169,0.258c-0.193,0.276-0.394,0.546-0.601,0.81
	c-0.089,0.112-0.185,0.221-0.276,0.332c-0.125,0.151-0.25,0.304-0.38,0.451c-0.108,0.123-0.222,0.24-0.333,0.359
	c-0.121,0.129-0.241,0.259-0.365,0.385c-0.121,0.122-0.246,0.24-0.37,0.359c-0.122,0.115-0.243,0.231-0.368,0.345
	c-0.131,0.119-0.266,0.235-0.401,0.351c-0.124,0.105-0.248,0.211-0.375,0.313c-0.142,0.115-0.285,0.229-0.431,0.34
	c-0.125,0.096-0.25,0.19-0.378,0.283c-0.153,0.111-0.307,0.222-0.463,0.33c-0.124,0.085-0.25,0.168-0.376,0.251
	c-0.165,0.108-0.33,0.217-0.498,0.32c-0.121,0.074-0.244,0.146-0.366,0.219c-0.179,0.105-0.357,0.212-0.54,0.313
	c-0.109,0.061-0.22,0.118-0.33,0.177c-0.201,0.106-0.402,0.215-0.607,0.316c-0.067,0.033-0.137,0.064-0.205,0.097
	c-1.106,0.534-2.268,0.99-3.476,1.366c-0.065,0.021-0.129,0.042-0.194,0.062c-0.262,0.08-0.527,0.153-0.793,0.226
	c-0.083,0.022-0.166,0.046-0.25,0.068c-0.26,0.067-0.522,0.131-0.785,0.191c-0.092,0.021-0.184,0.043-0.276,0.063
	c-0.262,0.059-0.526,0.112-0.792,0.163c-0.093,0.019-0.186,0.036-0.279,0.053c-0.271,0.05-0.542,0.096-0.815,0.139
	c-0.085,0.013-0.172,0.025-0.258,0.038c-0.283,0.042-0.567,0.08-0.853,0.114c-0.072,0.009-0.144,0.016-0.216,0.024
	c-0.302,0.033-0.605,0.064-0.911,0.09c-0.041,0.004-0.082,0.006-0.123,0.01c-0.332,0.026-0.665,0.049-1,0.065l0,0
	C161.305,80.694,145.197,72.687,141.864,55.96z M206.523,62.988c-0.27,0.145-0.512,0.186-0.73,0.121l-0.939-1.684
	c-0.223-0.41-0.508-1.242-0.859-2.496c-0.344-1.275-0.533-2.197-0.566-2.764l0.15-0.027c1.09,0.324,2.082,1.413,2.977,3.268
	C207.467,61.289,207.455,62.482,206.523,62.988z M205.465,54.819c-1.775-1.415-3.012-2.651-3.705-3.705
	c2.803-0.611,5.316-0.251,7.535,1.083c1.916,1.137,2.875,2.346,2.875,3.621c0,0.418-0.027,0.667-0.084,0.75
	c-0.221,0.445-0.82,0.666-1.791,0.666C209.129,57.234,207.52,56.429,205.465,54.819z"/>
<g>
	<defs>
		<path id="SVGID_1_" d="M390.057,65.674c1.504,0,2.721,1.081,2.721,2.413s-1.217,2.412-2.721,2.412H227.143
			c-1.502,0-2.723-1.08-2.723-2.412s1.221-2.413,2.723-2.413H390.057z"/>
	</defs>
	<use xlink:href="#SVGID_1_"  overflow="visible" fill="#58595B"/>
	<clipPath id="SVGID_2_">
		<use xlink:href="#SVGID_1_"  overflow="visible"/>
	</clipPath>
	<rect x="224.42" y="65.674" clip-path="url(#SVGID_2_)" fill="#58595B" width="168.357" height="4.825"/>
</g>
<g>
	<defs>
		<path id="SVGID_3_" d="M129.421,65.674c1.502,0,2.721,1.081,2.721,2.413s-1.219,2.412-2.721,2.412H9.943
			c-1.502,0-2.721-1.08-2.721-2.412s1.219-2.413,2.721-2.413H129.421z"/>
	</defs>
	<use xlink:href="#SVGID_3_"  overflow="visible" fill="#58595B"/>
	<clipPath id="SVGID_4_">
		<use xlink:href="#SVGID_3_"  overflow="visible"/>
	</clipPath>
	<rect x="7.222" y="65.674" clip-path="url(#SVGID_4_)" fill="#58595B" width="124.92" height="4.825"/>
</g>
<g>
	<defs>
		<path id="SVGID_5_" d="M129.421,23.749c1.502,0,2.721,1.081,2.721,2.413c0,1.333-1.219,2.413-2.721,2.413H9.943
			c-1.502,0-2.721-1.08-2.721-2.413c0-1.332,1.219-2.413,2.721-2.413H129.421z"/>
	</defs>
	<use xlink:href="#SVGID_5_"  overflow="visible" fill="#58595B"/>
	<clipPath id="SVGID_6_">
		<use xlink:href="#SVGID_5_"  overflow="visible"/>
	</clipPath>
	<rect x="7.222" y="23.749" clip-path="url(#SVGID_6_)" fill="#58595B" width="124.92" height="4.825"/>
</g>
<g>
	<defs>
		<path id="SVGID_7_" d="M388.529,23.749c1.502,0,2.721,1.081,2.721,2.413c0,1.333-1.219,2.413-2.721,2.413H225.992
			c-1.502,0-2.721-1.08-2.721-2.413c0-1.332,1.219-2.413,2.721-2.413H388.529z"/>
	</defs>
	<use xlink:href="#SVGID_7_"  overflow="visible" fill="#58595B"/>
	<clipPath id="SVGID_8_">
		<use xlink:href="#SVGID_7_"  overflow="visible"/>
	</clipPath>
	<rect x="223.271" y="23.749" clip-path="url(#SVGID_8_)" fill="#58595B" width="167.979" height="4.825"/>
</g>
</svg>
