<?xml version="1.0" encoding="utf-8"?>
<!-- Generator: Adobe Illustrator 16.0.0, SVG Export Plug-In . SVG Version: 6.00 Build 0)  -->
<!DOCTYPE svg PUBLIC "-//W3C//DTD SVG 1.1//EN" "http://www.w3.org/Graphics/SVG/1.1/DTD/svg11.dtd">
<svg version="1.1" id="Layer_1" xmlns="http://www.w3.org/2000/svg" xmlns:xlink="http://www.w3.org/1999/xlink" x="0px" y="0px"
	 width="36px" height="36px" viewBox="0 0 36 36" enable-background="new 0 0 36 36" xml:space="preserve">
<rect fill="#05D0C4" width="36" height="36"/>
<path fill="#FFFFFF" d="M32.502,20.402c0-0.653-0.223-1.215-0.575-1.692c-0.025-0.032-0.05-0.068-0.077-0.102
	c0.211-0.344,0.318-0.74,0.318-1.152c0-1.634-1.403-2.371-2.857-2.438c-0.552-0.026-1.112,0.013-1.633,0.168
	c-0.018-0.108-0.039-0.216-0.063-0.323c-0.074-0.318-0.19-0.628-0.335-0.925c0.173-0.341,0.294-0.704,0.344-1.083
	c0.016-0.127,0.024-0.255,0.024-0.385c0-0.123-0.01-0.243-0.028-0.359c-0.127-0.817-0.678-1.481-1.285-2.029
	c-0.16-0.145-0.329-0.274-0.503-0.396c-0.353-0.249-0.728-0.452-1.124-0.597c0.139-0.379,0.224-0.775,0.224-1.181
	c0-0.154-0.012-0.304-0.035-0.448c-0.119-0.722-0.522-1.313-1.114-1.704c-0.236-0.156-0.502-0.28-0.793-0.368
	c-1.565-0.472-3.19-0.259-4.77,0.041c-0.365,0.069-0.727,0.142-1.086,0.213c-0.215,0.036-0.434,0.066-0.656,0.09
	c-0.111,0.011-0.227,0.018-0.34,0.028c-0.112,0.009-0.223,0.02-0.336,0.027c-0.132,0.008-0.268,0.011-0.402,0.016
	c-0.098,0.004-0.193,0.009-0.292,0.011c-0.157,0.003-0.315,0.004-0.474,0.006c-0.078,0-0.154,0.003-0.232,0.003
	c-0.2,0-0.401-0.002-0.603-0.004c-0.038-0.001-0.074-0.034-0.112-0.035c-0.246-0.002-0.491-0.043-0.738-0.043
	c-0.006,0-0.014,0-0.021,0c-0.231,0-0.463,0.027-0.697,0.025c-0.085,0-0.17-0.013-0.255-0.013c-0.156,0-0.312-0.013-0.468-0.013
	c-0.005,0,0.125,0,0.125,0v0.03C9.484,5.795,7.789,6.015,6.289,7.016C4.094,8.48,3.497,11.047,3.497,13.53
	c0,1.073,0.685,1.815,1.52,2.341c-0.173,0.347-0.353,0.695-0.523,1.042c-0.563,1.143-0.892,2.377-0.81,3.658l0.006,0.121
	l0.022,0.118c1.553,7.79,9.552,11.053,15.779,9.825c0.009,0,0.015-0.002,0.021-0.003c0.264-0.053,0.526-0.114,0.784-0.184
	c0.015-0.003,0.028-0.008,0.041-0.013c0.257-0.067,0.51-0.146,0.757-0.23c0.009-0.002,0.02-0.007,0.027-0.01
	c0.507-0.175,0.995-0.385,1.457-0.628c0.007-0.003,0.011-0.006,0.015-0.009c0.222-0.115,0.437-0.241,0.646-0.373
	c0.021-0.014,0.043-0.027,0.064-0.041c0.201-0.127,0.395-0.265,0.583-0.406c0.026-0.02,0.052-0.039,0.074-0.059
	c0.188-0.146,0.369-0.296,0.543-0.455c0.019-0.017,0.035-0.034,0.055-0.051c0.178-0.167,0.351-0.339,0.515-0.521
	c0.001-0.001,0.001-0.001,0.002-0.002c0.161-0.182,0.315-0.372,0.462-0.567c0.014-0.021,0.029-0.038,0.045-0.059
	c0.136-0.188,0.265-0.385,0.385-0.587c0.021-0.033,0.041-0.065,0.061-0.099c0.115-0.2,0.224-0.405,0.323-0.618
	c0.018-0.038,0.033-0.076,0.051-0.113c0.098-0.217,0.188-0.44,0.268-0.672c0.012-0.031,0.021-0.061,0.03-0.091
	c0.082-0.246,0.155-0.496,0.216-0.758l0.258,0.462l0.709,0.21c0.557,0.166,1.139,0.088,1.646-0.188
	c0.819-0.443,1.164-1.148,1.192-1.916c0.633-0.141,1.188-0.486,1.521-1.095c0.053-0.09,0.094-0.181,0.129-0.274
	C32.47,21.008,32.502,20.717,32.502,20.402C32.502,20.404,32.502,20.404,32.502,20.402L32.502,20.402z M27.688,17.207
	c0.287-0.288,0.801-0.416,1.538-0.38c0.749,0.035,1.123,0.242,1.123,0.622c0,0.11-0.03,0.192-0.087,0.25l-0.692,0.009
	c-0.164,0-0.476-0.052-0.932-0.156c-0.461-0.109-0.784-0.207-0.967-0.294L27.688,17.207z M5.495,20.446
	c-0.056-0.872,0.151-1.783,0.622-2.736c2.532-5.139-0.834-1.881-0.834-4.182c0-5.981,3.627-5.964,7.732-5.908l0,0
	c0.018,0,0.035,0,0.053,0c0.085,0.001,0.171,0.002,0.257,0.003c0.112,0.001,0.223,0.002,0.336,0.004
	c0.093,0.001,0.185,0.002,0.278,0.002c0.092,0.001,0.182,0.001,0.274,0.001c0.097,0,0.194,0,0.292,0
	c0.086,0,0.173-0.001,0.259-0.002c0.1-0.001,0.201-0.003,0.301-0.005c0.083-0.002,0.167-0.004,0.25-0.006
	c0.103-0.003,0.205-0.008,0.309-0.013c0.08-0.004,0.16-0.007,0.24-0.012c0.108-0.006,0.216-0.014,0.323-0.022
	c0.075-0.005,0.148-0.009,0.222-0.016c0.12-0.011,0.237-0.024,0.354-0.038c0.063-0.007,0.126-0.013,0.188-0.02
	c0.179-0.023,0.358-0.049,0.535-0.079c1.53-0.301,3.448-0.759,4.979-0.296c0.435,0.128,0.649,0.389,0.649,0.779
	c0,0.414-0.237,0.955-0.714,1.622c-0.241,0.34-0.495,0.609-0.759,0.807c0.238,0.21,0.359,0.491,0.359,0.843
	c0.08-0.105,0.174-0.204,0.28-0.297c0.203-0.185,0.433-0.278,0.693-0.278c0.816,0,1.53,0.275,2.142,0.825
	c0.477,0.433,0.715,0.778,0.715,1.038c0,0.278-0.105,0.575-0.315,0.891c-0.21,0.315-0.316,0.497-0.316,0.547l0.345,0.629
	c0.234,0.414,0.352,0.802,0.352,1.154c0,0.103-0.006,0.185-0.019,0.221c-0.025,0.093-0.086,0.225-0.185,0.225h-0.441
	c0,0,0,0.005,0,0.024c0,0.006,0,0.077,0,0.212c-0.358,0.13-0.243,0.195-0.447,0.195c-0.161,0-0.56-0.069-1.109-0.205
	c-0.662-0.118-1.489-0.167-2.442-0.147c-0.357,0.333-0.689,0.948-0.974,1.845c0.854-0.408,1.504-0.559,1.961-0.455
	c0.39,0.087,0.581,0.321,0.581,0.705c0,0.241-0.2,0.467-0.595,0.678l-1.197,0.64c-0.347,0.234-0.559,0.506-0.641,0.815
	c-0.062,0.235-0.117,0.414-0.166,0.539c0.63-0.014,1.356-0.073,2.178-0.178c0.815-0.099,1.265-0.102,1.345-0.01
	c0.105,0.131,0.184,0.416,0.232,0.854c0.414-0.024,0.767-0.036,1.056-0.036c0.167,0,0.271,0.092,0.306,0.277
	c0,0.15-0.004,0.298-0.012,0.443c-0.002,0.048-0.007,0.096-0.011,0.145c-0.007,0.096-0.015,0.191-0.024,0.285
	c-0.006,0.057-0.013,0.11-0.022,0.167c-0.01,0.084-0.021,0.167-0.035,0.249c-0.01,0.058-0.021,0.113-0.031,0.17
	c-0.015,0.078-0.031,0.156-0.047,0.232c-0.015,0.058-0.027,0.113-0.042,0.169c-0.02,0.073-0.038,0.147-0.06,0.219
	c-0.017,0.056-0.032,0.11-0.051,0.166c-0.021,0.07-0.047,0.14-0.07,0.208c-0.02,0.054-0.039,0.108-0.06,0.161
	c-0.027,0.067-0.054,0.135-0.082,0.201c-0.022,0.052-0.044,0.102-0.066,0.152c-0.029,0.067-0.063,0.132-0.096,0.197
	c-0.024,0.048-0.048,0.097-0.072,0.143c-0.035,0.066-0.073,0.131-0.111,0.196c-0.025,0.043-0.048,0.087-0.074,0.129
	c-0.046,0.074-0.095,0.146-0.144,0.219c-0.021,0.03-0.039,0.062-0.059,0.092c-0.069,0.099-0.143,0.196-0.216,0.29
	c-0.032,0.041-0.065,0.079-0.1,0.119c-0.045,0.055-0.088,0.109-0.136,0.161c-0.039,0.044-0.08,0.086-0.119,0.129
	c-0.044,0.046-0.087,0.092-0.131,0.139c-0.045,0.043-0.089,0.085-0.133,0.128c-0.043,0.041-0.087,0.082-0.131,0.123
	c-0.047,0.043-0.097,0.085-0.145,0.126c-0.044,0.037-0.089,0.075-0.134,0.112c-0.051,0.041-0.103,0.082-0.155,0.123
	c-0.044,0.033-0.09,0.067-0.136,0.1c-0.055,0.04-0.109,0.08-0.165,0.118c-0.044,0.031-0.09,0.061-0.134,0.091
	c-0.061,0.038-0.118,0.078-0.18,0.114c-0.043,0.027-0.088,0.052-0.131,0.077c-0.064,0.04-0.129,0.077-0.193,0.113
	c-0.04,0.022-0.079,0.042-0.118,0.063c-0.072,0.04-0.145,0.079-0.217,0.114c-0.024,0.011-0.05,0.022-0.074,0.034
	c-0.396,0.191-0.813,0.355-1.245,0.49c-0.023,0.007-0.047,0.016-0.068,0.022c-0.095,0.028-0.19,0.054-0.285,0.081
	c-0.03,0.007-0.06,0.017-0.091,0.024c-0.093,0.023-0.187,0.047-0.281,0.068c-0.032,0.007-0.064,0.015-0.098,0.022
	c-0.095,0.021-0.189,0.04-0.283,0.058c-0.034,0.007-0.068,0.013-0.101,0.019c-0.097,0.02-0.194,0.035-0.292,0.051
	c-0.03,0.004-0.063,0.01-0.093,0.014c-0.102,0.014-0.203,0.028-0.306,0.041c-0.026,0.002-0.052,0.005-0.077,0.008
	c-0.108,0.013-0.217,0.023-0.327,0.032c-0.014,0.002-0.029,0.002-0.043,0.005c-0.12,0.009-0.239,0.017-0.359,0.022l0,0
	C12.46,29.308,6.689,26.438,5.495,20.446z M28.662,22.964c-0.099,0.052-0.186,0.065-0.264,0.043l-0.336-0.603
	c-0.08-0.147-0.183-0.444-0.308-0.895c-0.124-0.457-0.191-0.789-0.202-0.991l0.052-0.009c0.393,0.115,0.747,0.506,1.067,1.171
	C28.999,22.354,28.993,22.782,28.662,22.964z M28.281,20.037c-0.637-0.506-1.079-0.95-1.328-1.327
	c1.005-0.22,1.905-0.09,2.701,0.388c0.687,0.406,1.028,0.841,1.028,1.297c0,0.149-0.01,0.239-0.029,0.27
	c-0.079,0.159-0.294,0.237-0.641,0.237C29.594,20.901,29.018,20.613,28.281,20.037z"/>
</svg>
