<?xml version="1.0" encoding="utf-8"?>
<!-- Generator: Adobe Illustrator 16.0.0, SVG Export Plug-In . SVG Version: 6.00 Build 0)  -->
<!DOCTYPE svg PUBLIC "-//W3C//DTD SVG 1.1//EN" "http://www.w3.org/Graphics/SVG/1.1/DTD/svg11.dtd">
<svg version="1.1" id="Layer_1" xmlns="http://www.w3.org/2000/svg" xmlns:xlink="http://www.w3.org/1999/xlink" x="0px" y="0px"
	 width="200px" height="107.302px" viewBox="0 0 200 107.302" enable-background="new 0 0 200 107.302" xml:space="preserve">
<g>
	<path fill="#666766" d="M195.214,10.62v-0.014c0.263-0.096,0.541-0.365,0.541-0.756c0-0.283-0.101-0.497-0.282-0.643
		c-0.218-0.173-0.537-0.242-0.993-0.242c-0.37,0-0.702,0.028-0.926,0.065v3.03h0.689v-1.208h0.209
		c0.281,0.005,0.414,0.11,0.498,0.492c0.089,0.378,0.164,0.629,0.213,0.716h0.71c-0.059-0.118-0.154-0.52-0.251-0.865
		C195.546,10.911,195.427,10.706,195.214,10.62z M194.515,10.35h-0.271V9.503c0.051-0.009,0.145-0.023,0.315-0.023
		c0.317,0.004,0.509,0.146,0.509,0.428C195.067,10.177,194.863,10.35,194.515,10.35z"/>
	<path fill="#666766" d="M109.026,40.562c-3.147,0.913-5.992,2.243-7.339,5.663c-0.548-0.342-0.957-0.492-1.22-0.777
		c-1.716-1.854-3.583-1.582-5.405-0.303c-1.871,1.315-3.623,2.798-5.458,4.166c-0.795,0.591-1.669,1.077-2.507,1.61
		c-0.198-0.173-0.395-0.347-0.592-0.52c0.264-0.746,0.459-1.524,0.808-2.228c0.368-0.739,0.891-1.402,1.334-2.107
		c0.37-0.587,0.77-1.162,1.072-1.782c0.613-1.261,0.542-2.429-0.675-3.329c-1.235-0.914-2.523-0.671-3.331,0.418
		c-1.56,2.106-2.857,4.408-4.318,6.59c-1.728,2.583-3.378,5.234-5.321,7.647c-1.281,1.589-3.506,2.057-5.076,0.956
		c-0.84-0.591-0.886-2.732-0.793-4.14c0.187-2.827,0.876-5.622,1.058-8.449c0.194-3.009-1.541-4.093-4.241-2.785
		c-1.044,0.506-1.972,1.281-2.883,2.02c-0.915,0.741-1.759,1.571-2.61,2.394c-1.404,1.354-2.839,1.414-4.507,0.391
		c-1.709-1.048-3.53-1.92-5.313-2.846c-7.518-3.907-15.055-7.813-21.485-13.421c-1.953-1.704-3.706-3.779-5.077-5.979
		c-1.673-2.687-0.964-5.352,1.703-7.051c1.724-1.098,3.682-1.998,5.658-2.501c8.675-2.212,17.429-2.291,26.179-0.399
		c1.422,0.307,2.892,0.356,3.439-0.999c0.344-0.854-0.067-2.313-0.631-3.18c-2.216-3.407-5.748-4.732-9.558-5.178
		C41.123,3.176,31.325,6.129,22.411,12.13c-1.921,1.294-3.648,3.034-5.077,4.87c-3.377,4.339-3.342,9.148,0.253,13.32
		c1.873,2.174,4.1,4.296,6.602,5.622c4.938,2.616,10.203,4.608,15.285,6.961c3.319,1.538,6.644,3.106,9.788,4.963
		c1.388,0.823,2.332,2.395,3.707,3.873c-8.828,1.837-16.584,4.97-23.974,9.019c-7.973,4.367-15.296,9.581-21.042,16.754
		c-3.818,4.767-6.241,10.112-6.782,16.264c-0.487,5.548,2.678,8.932,8.254,8.636c1.309-0.069,2.627-0.267,3.907-0.555
		c10.85-2.459,20.236-7.876,28.951-14.559c5.932-4.551,11.206-9.76,14.958-16.329c2.4-4.203,3.669-8.68,3.013-13.561
		c-0.398-2.962,0.033-3.361,3.075-2.502c-0.316,1.749-0.673,3.508-0.944,5.279c-0.379,2.476,0.681,4.651,2.759,5.815
		c3.785,2.126,8.07,1.622,11.046-1.546c1.653-1.759,3.001-3.808,4.481-5.73c0.828-1.074,1.644-2.156,2.508-3.291
		c0.888,1.813,1.519,3.441,2.441,4.886c0.997,1.567,2.253,1.522,3.276-0.039c0.795-1.212,1.307-2.607,2.09-3.828
		c0.783-1.223,1.747-2.327,2.632-3.483c0.828,1.216,1.8,2.362,2.445,3.669c0.614,1.243,1.073,2.408,2.75,2.343
		c1.676-0.065,2.985-0.66,3.568-2.332c0.479-1.372,0.853-2.781,1.332-4.154c0.851-2.437,2.444-4.168,4.953-4.953
		c0.791-0.247,1.637-0.34,2.41-0.629c1.898-0.714,2.842-2.912,2.125-4.814C112.606,40.513,111.105,39.959,109.026,40.562z
		 M52.782,62.763c-1.502,3.085-3.24,6.172-5.457,8.767c-7.476,8.74-16.744,15.104-27.421,19.334c-2.144,0.85-4.531,1.28-6.841,1.465
		c-2.741,0.22-4.043-1.432-2.9-3.95c1.499-3.301,3.211-6.641,5.488-9.429c5.824-7.127,13.256-12.418,21.391-16.576
		c4.592-2.349,9.555-3.973,14.372-5.87c0.67-0.265,1.461-0.223,2.845-0.409C53.744,58.583,53.698,60.885,52.782,62.763z"/>
	<path fill="#666766" d="M184.637,20.323c-4.114-1.398-10.498,1.017-12.807,4.847c-0.783,1.295-0.444,1.919,1.12,1.917
		c0.681-0.002,1.363-0.196,2.042-0.32c2.247-0.41,4.48-0.915,6.744-1.194c0.736-0.091,1.861,0.178,2.226,0.693
		c0.311,0.442-0.007,1.601-0.398,2.221c-3.313,5.247-8.384,7.422-14.331,7.964c-1.124,0.102-1.43-0.442-1.262-1.536
		c0.245-1.602-0.228-2.979-1.974-3.378c-1.656-0.379-3.097,0.175-3.793,1.805c-1.298,3.039-4.238,2.96-6.756,3.662
		c-0.328,0.091-0.897-0.295-1.218-0.603c-1.732-1.668-3.593-1.669-5.482-0.403c-1.944,1.304-3.816,2.719-5.72,4.086
		c-2.129-4.036-2.947-4.277-6.841-1.86c-1.599,0.994-3.126,2.102-4.521,3.045c-0.18-1.271-0.065-2.611-0.583-3.634
		c-0.891-1.763-3.43-1.724-4.93,0.055c-1.13,1.339-2.008,2.891-2.998,4.347c-0.183-0.065-0.367-0.129-0.553-0.195
		c1.356-5.92,2.746-11.833,4.051-17.763c0.535-2.431,0.969-4.891,1.276-7.359c-0.347-1.802-1.165-1.875-1.827-1.584
		c-0.274,0.121-0.52,0.3-0.693,0.45c-0.002,0.002-0.005,0.003-0.008,0.004c-0.001,0.001-0.004,0.004-0.005,0.006
		c-0.162,0.139-0.265,0.25-0.265,0.25l0.024,0.007c-0.352,0.357-0.662,0.775-0.885,1.219c-1.635,3.282-3.465,6.494-4.786,9.901
		c-2.672,6.901-4.376,14.054-3.855,21.527c0.157,2.257-0.06,5.113,2.725,6.023c2.65,0.865,4.341-1.153,5.976-2.912
		c0.383-0.413,1.135-0.988,1.475-0.858c2.508,0.958,4.122-0.596,5.77-1.935c1.604-1.309,3.08-2.77,4.746-4.286
		c2.216,5.141,5.243,5.645,8.772,1.788c1.172-1.283,2.344-2.562,3.491-3.865c0.947-1.075,1.824-1.487,3.156-0.4
		c2.023,1.652,4.334,1.66,6.66,0.598c1.135-0.52,2.276-1.038,3.354-1.662c1.127-0.655,2.015-0.622,3.252,0.007
		c1.494,0.757,3.281,1.319,4.936,1.304c6.602-0.065,16.61-7.619,18.705-13.872C189.872,24.765,188.289,21.565,184.637,20.323z"/>
	<path fill="#666766" d="M194.737,5.698c-2.503-0.011-4.634,2.157-4.591,4.668c0.047,2.511,2.28,4.64,4.745,4.521
		c2.423-0.117,4.449-2.273,4.397-4.674C199.234,7.781,197.146,5.709,194.737,5.698z M194.644,13.652
		c-1.913-0.03-3.446-1.571-3.405-3.423c0.041-1.86,1.628-3.35,3.535-3.323c1.954,0.028,3.344,1.472,3.317,3.451
		C198.068,12.334,196.655,13.683,194.644,13.652z"/>
</g>
</svg>
