<?xml version="1.0" encoding="utf-8"?>
<!-- Generator: Adobe Illustrator 16.0.0, SVG Export Plug-In . SVG Version: 6.00 Build 0)  -->
<!DOCTYPE svg PUBLIC "-//W3C//DTD SVG 1.1//EN" "http://www.w3.org/Graphics/SVG/1.1/DTD/svg11.dtd">
<svg version="1.1" id="Layer_2" xmlns="http://www.w3.org/2000/svg" xmlns:xlink="http://www.w3.org/1999/xlink" x="0px" y="0px"
	 width="125px" height="100px" viewBox="0 0 125 100" enable-background="new 0 0 125 100" xml:space="preserve">
<g>
	<path d="M83.604,55.37c0-2.929-2.514-4.248-5.119-4.37c-0.987-0.047-1.994,0.023-2.926,0.303c-0.113-0.779-0.366-1.528-0.709-2.237
		c0.41-0.814,0.657-1.696,0.657-2.628c0-1.763-1.111-3.158-2.353-4.28c-0.881-0.794-1.858-1.39-2.918-1.779
		c0.249-0.68,0.402-1.388,0.402-2.115c0-2.213-1.401-3.889-3.48-4.516c-3.452-1.041-7.062-0.22-10.491,0.454
		c-6.139,1.044-14.157-1.117-19.557,2.488c-3.932,2.625-4.938,7.21-4.938,11.658c0,1.923,1.258,3.244,2.754,4.188
		c-0.311,0.621-0.616,1.244-0.921,1.862c-1.01,2.047-1.591,4.258-1.443,6.553l0.014,0.215l0.042,0.212
		c4.38,21.977,37.394,23.844,41.575,5.873l0.459,0.825l1.271,0.378c0.998,0.297,2.042,0.157,2.95-0.336
		c1.468-0.795,2.088-2.059,2.138-3.434c1.134-0.251,2.128-0.871,2.726-1.96c0.367-0.649,0.468-1.327,0.468-2.074
		c0-1.256-0.453-2.323-1.167-3.215C83.414,56.819,83.604,56.108,83.604,55.37z M72.33,52.568c-0.044,0.167-0.154,0.294-0.333,0.382
		h-1.095c0,0.023,0,0.05,0,0.084c0,0.012,0,0.138,0,0.382c-0.067,0.233-0.283,0.349-0.648,0.349c-0.288,0-0.925-0.121-1.911-0.365
		c-1.185-0.212-2.631-0.3-4.336-0.267c-0.644,0.6-1.218,1.701-1.727,3.307c1.529-0.73,2.703-1.001,3.522-0.814
		c0.696,0.156,1.046,0.576,1.046,1.263c0,0.432-0.354,0.837-1.063,1.213l-2.144,1.146c-0.62,0.422-1.003,0.91-1.146,1.463
		c-0.111,0.422-0.211,0.742-0.298,0.965c1.129-0.024,2.431-0.128,3.902-0.316c1.462-0.178,2.266-0.184,2.409-0.017
		c0.188,0.23,0.327,0.742,0.415,1.527c0.743-0.044,1.375-0.065,1.895-0.065c0.299,0,0.483,0.166,0.549,0.498
		c0,17.992-31.622,17.153-35.553-2.574c-0.1-1.561,0.271-3.194,1.113-4.901c4.537-9.208-1.496-3.371-1.496-7.493
		c0-14.571,12.017-9.272,21.864-10.948c2.743-0.54,6.178-1.361,8.921-0.532c0.775,0.232,1.162,0.697,1.162,1.395
		c0,0.742-0.426,1.712-1.279,2.908c-0.431,0.609-0.886,1.09-1.362,1.444c0.432,0.376,0.648,0.881,0.648,1.512
		c0.145-0.188,0.311-0.365,0.498-0.531c0.365-0.332,0.781-0.498,1.247-0.498c1.462,0,2.739,0.492,3.838,1.478
		c0.852,0.775,1.278,1.395,1.278,1.861c0,0.498-0.188,1.029-0.565,1.594c-0.376,0.565-0.564,0.892-0.564,0.981l0.615,1.129
		c0.421,0.742,0.631,1.431,0.631,2.061C72.363,52.375,72.353,52.502,72.33,52.568z M75.578,54.922
		c0.516-0.517,1.434-0.743,2.754-0.682c1.342,0.063,2.012,0.434,2.012,1.114c0,0.196-0.051,0.345-0.154,0.448l-1.237,0.017
		c-0.301,0-0.857-0.094-1.673-0.278c-0.823-0.197-1.402-0.371-1.732-0.526L75.578,54.922z M77.321,65.236
		c-0.173,0.093-0.329,0.12-0.469,0.078l-0.604-1.081c-0.143-0.263-0.328-0.798-0.552-1.602c-0.221-0.819-0.343-1.411-0.363-1.775
		l0.096-0.017c0.699,0.208,1.337,0.906,1.911,2.097C77.925,64.146,77.918,64.911,77.321,65.236z M80.891,61.116
		c-0.142,0.285-0.524,0.428-1.148,0.428c-0.749,0-1.781-0.517-3.102-1.552c-1.14-0.907-1.933-1.7-2.379-2.378
		c1.8-0.392,3.413-0.161,4.839,0.695c1.229,0.73,1.844,1.506,1.844,2.325C80.944,60.902,80.927,61.062,80.891,61.116z"/>
	<path d="M84.457,42.32c-0.522-0.3-1.078-0.446-1.657-0.446c-0.586,0-1.142,0.146-1.665,0.446c-0.509,0.287-0.93,0.694-1.254,1.218
		c-0.306,0.497-0.466,1.051-0.466,1.663c0,0.619,0.153,1.206,0.452,1.753c0.293,0.536,0.707,0.951,1.231,1.25
		c0.51,0.3,1.076,0.446,1.701,0.453c0.931-0.007,1.728-0.332,2.391-0.995c0.645-0.645,0.97-1.467,0.97-2.461
		c0-0.599-0.16-1.147-0.465-1.645C85.382,43.047,84.969,42.632,84.457,42.32z"/>
	<path d="M90.788,25.197c-0.473-0.95-1.091-1.753-1.867-2.411c-0.804-0.676-1.715-1.186-2.724-1.529
		c-1.045-0.363-2.122-0.542-3.23-0.542c-1.148,0-2.257,0.166-3.328,0.503c-1.091,0.357-2.065,0.861-2.915,1.492
		c-0.854,0.651-1.619,1.479-2.294,2.487l4.597,3.137c0.867-1.358,1.95-2.035,3.244-2.035c0.688,0,1.307,0.211,1.854,0.631
		c0.543,0.441,0.816,0.97,0.816,1.588c0,0.51-0.103,0.931-0.311,1.256c-0.23,0.306-0.542,0.605-0.957,0.893l-0.613,0.414
		l-0.637,0.428c-0.783,0.522-1.38,1.184-1.811,1.963c-0.443,0.801-0.677,1.912-0.677,3.36v1.542h5.829v-0.905
		c0-0.522,0.142-0.956,0.395-1.307c0.219-0.306,0.573-0.663,1.082-1.052l0.689-0.522l0.695-0.523
		c0.879-0.669,1.575-1.44,2.072-2.313c0.51-0.874,0.765-2.021,0.765-3.456C91.464,27.172,91.24,26.14,90.788,25.197z"/>
</g>
</svg>
