<?xml version="1.0" encoding="utf-8"?>
<!-- Generator: Adobe Illustrator 16.0.0, SVG Export Plug-In . SVG Version: 6.00 Build 0)  -->
<!DOCTYPE svg PUBLIC "-//W3C//DTD SVG 1.1//EN" "http://www.w3.org/Graphics/SVG/1.1/DTD/svg11.dtd">
<svg version="1.1" id="Layer_2" xmlns="http://www.w3.org/2000/svg" xmlns:xlink="http://www.w3.org/1999/xlink" x="0px" y="0px"
	 width="125px" height="100px" viewBox="0 0 125 100" enable-background="new 0 0 125 100" xml:space="preserve">
<g>
	<path fill-rule="evenodd" clip-rule="evenodd" fill="#58595B" d="M95.498,67.585c-0.205-0.566-0.099-0.315-1.064-0.952
		c-0.581-0.383-1.719-1.208-3.231-2.327c0.31-0.612,0.472-1.282,0.497-1.979c1.303-0.289,2.446-1.001,3.131-2.252
		c0.422-0.746,0.538-1.524,0.538-2.383c0-1.442-0.521-2.668-1.341-3.693c0.432-0.707,0.65-1.524,0.65-2.373
		c0-3.365-2.888-4.88-5.881-5.02c-1.135-0.054-2.29,0.027-3.361,0.347c-0.129-0.894-0.418-1.754-0.815-2.569
		c0.475-0.936,0.757-1.948,0.757-3.019c0-2.026-1.276-3.626-2.703-4.916c-1.01-0.913-2.135-1.597-3.352-2.043
		c0.287-0.781,0.462-1.595,0.462-2.431c0-2.543-1.609-4.467-3.999-5.188c-3.964-1.195-8.111-0.253-12.051,0.521
		c-6.285,1.069-14.278-0.773-20.335,1.741l-11.581-8.302l-2.811,1.222l-3.369,4.699c-0.141,0.44-0.409,2.919-0.42,3.43l2.252,1.598
		c1.789,1.344,5.09,3.708,8.706,6.284c-0.422,1.802-0.581,3.701-0.581,5.579c0,2.209,1.445,3.728,3.163,4.812
		c-0.356,0.712-0.708,1.427-1.059,2.139c-1.16,2.351-1.828,4.892-1.658,7.525l0.016,0.25l0.049,0.242
		c4.503,22.594,35.344,26.682,45.22,12.497l7.756,5.728c-0.651-1.229-1.042-2.555,0.366-3.3c0-4.052,2.097-3.7,3.134-4.752
		C92.748,68.531,93.41,66.583,95.498,67.585z M81.729,48.407c-0.051,0.19-0.178,0.337-0.383,0.44h-1.26c0,0.024,0,0.056,0,0.094
		c0,0.013,0,0.159,0,0.439c-0.075,0.267-0.323,0.4-0.744,0.4c-0.33,0-1.063-0.14-2.194-0.419c-1.362-0.243-3.022-0.344-4.98-0.306
		c-0.739,0.688-1.4,1.954-1.984,3.798c1.755-0.84,3.104-1.151,4.045-0.936c0.802,0.178,1.202,0.66,1.202,1.45
		c0,0.496-0.406,0.961-1.222,1.394l-2.461,1.316c-0.713,0.484-1.152,1.044-1.317,1.68c-0.127,0.484-0.242,0.853-0.343,1.108
		c1.298-0.027,2.792-0.148,4.484-0.364c1.68-0.203,2.602-0.209,2.768-0.019c0.216,0.267,0.376,0.853,0.477,1.755
		c0.853-0.05,1.578-0.076,2.175-0.076c0.344,0,0.555,0.191,0.632,0.573c0,20.669-36.327,19.706-40.843-2.958
		c-0.115-1.792,0.311-3.668,1.279-5.63c5.211-10.578-1.718-3.873-1.718-8.608c0-16.739,13.804-10.651,25.116-12.577
		c3.152-0.619,7.097-1.563,10.249-0.61c0.891,0.266,1.335,0.801,1.335,1.603c0,0.852-0.488,1.966-1.469,3.34
		c-0.497,0.7-1.019,1.253-1.565,1.66c0.495,0.433,0.744,1.012,0.744,1.737c0.166-0.216,0.357-0.42,0.573-0.61
		c0.419-0.382,0.896-0.572,1.431-0.572c1.68,0,3.149,0.566,4.409,1.698c0.979,0.891,1.47,1.603,1.47,2.138
		c0,0.572-0.217,1.183-0.648,1.832c-0.434,0.649-0.65,1.024-0.65,1.125l0.707,1.298c0.483,0.853,0.725,1.642,0.725,2.366
		C81.766,48.185,81.754,48.331,81.729,48.407z M85.459,51.111c0.592-0.594,1.646-0.855,3.164-0.784
		c1.541,0.071,2.311,0.498,2.311,1.281c0,0.226-0.06,0.396-0.178,0.515l-1.422,0.018c-0.344,0-0.983-0.106-1.92-0.319
		c-0.948-0.226-1.611-0.427-1.99-0.605L85.459,51.111z M87.461,62.961c-0.199,0.105-0.378,0.136-0.539,0.089l-0.693-1.242
		c-0.163-0.302-0.375-0.916-0.634-1.841c-0.253-0.94-0.394-1.62-0.417-2.038l0.11-0.02c0.805,0.238,1.534,1.042,2.195,2.409
		C88.155,61.707,88.147,62.588,87.461,62.961z M90.241,58.718c-0.859,0-2.047-0.594-3.562-1.782
		c-1.309-1.043-2.221-1.954-2.732-2.732c2.067-0.449,3.921-0.185,5.558,0.8c1.413,0.838,2.118,1.729,2.118,2.671
		c0,0.308-0.02,0.49-0.061,0.553C91.399,58.555,90.958,58.718,90.241,58.718z"/>
	<path fill-rule="evenodd" clip-rule="evenodd" fill="#58595B" d="M96.897,68.945c-1.838,0.429-3.226,1.799-4.208,3.222
		c-0.83,1.202-2.196,3.396-2.196,5.233c0,0.578,3.934,1.119,5.06,1.345c2.095,0.419,6.469,2.027,6.469-0.321
		C102.021,77.041,97.375,70.734,96.897,68.945z"/>
</g>
</svg>
