<?xml version="1.0" encoding="utf-8"?>
<!-- Generator: Adobe Illustrator 16.0.0, SVG Export Plug-In . SVG Version: 6.00 Build 0)  -->
<!DOCTYPE svg PUBLIC "-//W3C//DTD SVG 1.1//EN" "http://www.w3.org/Graphics/SVG/1.1/DTD/svg11.dtd">
<svg version="1.1" id="Layer_1" xmlns="http://www.w3.org/2000/svg" xmlns:xlink="http://www.w3.org/1999/xlink" x="0px" y="0px"
	 width="200px" height="200px" viewBox="0 0 200 200" enable-background="new 0 0 200 200" xml:space="preserve">
<path fill-rule="evenodd" clip-rule="evenodd" fill="#73BF44" d="M72.735,173.354c0.416-4.003-2.261-2.845-9.734-6.857
	c-3.784-2.031-7.071-4.175-10.091-6.554c-4.603-3.624-9.006-7.905-12.593-12.435c-3.574-4.511-7.496-3.455-1.997,3.197
	c1.615,1.953,2.429,2.955,3.807,4.535C47.39,161.279,67.623,175.406,72.735,173.354"/>
<path fill-rule="evenodd" clip-rule="evenodd" fill="#73BF44" d="M96.22,176.188c-11.281,4.299-4.829,20.201,5.972,16.385
	c3.733-1.318,6.69-5.988,5.225-10.923C106.287,177.846,101.277,174.263,96.22,176.188 M96.86,179.933
	c7.183-3.374,9.897,6.649,4.678,9.023c-4.88,2.221-8.998-2.253-7.312-6.618C95.226,179.75,95.17,180.726,96.86,179.933z"/>
<path fill-rule="evenodd" clip-rule="evenodd" fill="#73BF44" d="M12.93,91.657c-11.656,2.809-7.265,19.569,4.102,16.912
	c3.955-0.923,7.433-5.552,6.226-10.689C22.317,93.873,17.895,90.46,12.93,91.657 M14.192,94.937c6.68-1.03,8.145,9.438,1.258,10.319
	C8.777,106.106,7.111,96.027,14.192,94.937z"/>
<path fill-rule="evenodd" clip-rule="evenodd" fill="#73BF44" d="M181.478,91.648c-11.492,2.717-7.324,19.651,4.109,16.91
	c4.155-0.997,7.365-5.474,6.228-10.667C190.902,93.739,186.313,90.505,181.478,91.648 M182.752,94.931
	c6.654-0.984,8.048,9.407,1.26,10.319C177.288,106.156,175.605,95.99,182.752,94.931z"/>
<path fill-rule="evenodd" clip-rule="evenodd" fill="#73BF44" d="M96.536,7.485c-4.036,1.238-7.188,5.305-5.958,10.577
	c0.944,4.042,5.884,7.706,11.169,6.094C111.634,21.142,108.043,3.957,96.536,7.485 M93.794,15.221
	c0.322-6.01,10.763-6.312,10.472,0.81C103.985,22.924,93.398,22.653,93.794,15.221z"/>
<path fill-rule="evenodd" clip-rule="evenodd" fill="#73BF44" d="M176.209,87.298c2.406-6.684-7.673-25.592-12.595-32.703
	c-1.676-2.417-1.2-3.329-4.113-2.47c-1.158,3.034,7.743,11.97,12.063,26.691C173.661,85.974,172.23,88.389,176.209,87.298"/>
<path fill-rule="evenodd" clip-rule="evenodd" fill="#73BF44" d="M190.986,136.913c-3.767-0.257-2.374-0.462-5.456,6.192
	l-8.787,14.424c-0.907,1.153-1.924,2.167-2.746,3.257c-0.887,1.175-2.239,2.569-0.108,3.748c1.872,1.034,4.621-3.667,5.57-4.893
	C182.62,155.542,191.928,141.302,190.986,136.913"/>
<path fill-rule="evenodd" clip-rule="evenodd" fill="#73BF44" d="M132.512,185.781c4.846,1.479,26.37-12.609,27.663-16.599
	c-0.741-1.014-0.34-0.59-1.219-1.434c-1.782,0.063-12.954,9.35-20.55,12.78C132.808,183.059,131.687,182.296,132.512,185.781"/>
<path fill-rule="evenodd" clip-rule="evenodd" fill="#73BF44" d="M63.005,190.838c-1.133,1.039-1.684,0.894-0.025,2.417
	c1.462,1.34,13.68,4.378,16.074,4.86c2.868,0.582,5.768,1.611,7.036,0.33c3.125-3.156-8.693-4.26-10.904-4.808
	C72.453,192.959,64.406,189.557,63.005,190.838"/>
<path fill-rule="evenodd" clip-rule="evenodd" fill="#73BF44" d="M190.983,63.259c0.85-3.903-5.739-14.084-8.153-17.741
	c-1.599-2.417-1.866-4.702-4.929-4.148c-1.368,2.517,2.289,5.992,5.153,11.047c1.148,2.021,2.103,3.865,3.052,5.884
	C188.806,64.054,187.332,63.504,190.983,63.259"/>
<path fill-rule="evenodd" clip-rule="evenodd" fill="#73BF44" d="M37.944,30.994c0.711,0.979,0.364,0.613,1.204,1.437
	c1.709-0.064,10.284-7.321,15.932-10.289c2.606-1.37,4.596-1.486,3.965-4.785c-3.221-0.631-9.389,3.765-11.745,5.369
	C44.536,24.604,38.731,28.583,37.944,30.994"/>
<path fill-rule="evenodd" clip-rule="evenodd" fill="#73BF44" d="M6.138,133.682c2.931-1.518,1.494-2.053-0.226-8.341
	c-0.605-2.209-0.961-8.909-3.47-9.121c-3.752-0.314-0.041,9.695,1.024,13.334C4.333,132.52,3.858,132.924,6.138,133.682"/>
<path fill-rule="evenodd" clip-rule="evenodd" fill="#73BF44" d="M195.668,112.429l2.27,0.121c1.4-3.259,1.962-14.652,0.47-17.623
	c-4.249-0.55-2.75,3.46-2.831,7.55C195.516,105.627,194.494,110.209,195.668,112.429"/>
<path fill-rule="evenodd" clip-rule="evenodd" fill="#73BF44" d="M129.052,7.399c0.106-3.553,0.862-2.792-7.555-4.782
	c-3.269-0.772-8.658-2.506-9.706-0.543c-1.585,2.964,5.651,3.243,7.779,3.704C122.689,6.454,126.244,8.016,129.052,7.399"/>
<path fill-rule="evenodd" clip-rule="evenodd" fill="#73BF44" d="M19.517,130.146c-0.766,2.889,1.837,6.823,3.154,9.384
	c0.923,1.792,3.337,8.649,5.99,5.845c1.266-1.337-2.529-6.833-3.375-8.471C23.677,133.781,23.192,129.031,19.517,130.146"/>
<path fill-rule="evenodd" clip-rule="evenodd" fill="#73BF44" d="M163.695,171.874l-11.415,8.938
	c-2.047,2.579-0.736,6.112,9.648-2.96c1.174-1.026,2.635-1.648,3.646-3.026C166.943,172.96,166.439,170.406,163.695,171.874"/>
<path fill-rule="evenodd" clip-rule="evenodd" fill="#73BF44" d="M184.538,70.609l-0.154,2.477c0.092,0.699,0.465,1.801,0.637,2.357
	c1.437,4.662,2.708,16.117,5.579,11.358c0.072-0.118,0.135-0.296,0.185-0.441c0.479-1.419-1.166-7.687-1.543-9.126
	C188.308,73.701,188.203,69.062,184.538,70.609"/>
<path fill-rule="evenodd" clip-rule="evenodd" fill="#73BF44" d="M69.065,7.399c2.809,0.614,6.372-0.939,9.48-1.621
	c2.132-0.468,9.364-0.74,7.778-3.704c-0.894-1.67-2.701-0.908-4.696-0.504l-9.784,2.22C68.76,4.569,68.965,4.114,69.065,7.399"/>
<path fill-rule="evenodd" clip-rule="evenodd" fill="#73BF44" d="M187.388,126.7c-4.271-0.246-4.022,3.738-5.509,7.374
	c-0.828,2.025-4.847,7.71-2.1,9.082C182.649,144.591,187.914,129.398,187.388,126.7"/>
<path fill-rule="evenodd" clip-rule="evenodd" fill="#73BF44" d="M118.633,17.149c-0.143,2.995-0.258,2.738,2.623,3.581
	c1.695,0.496,3.293,0.872,5.045,1.48c3.088,1.068,6.394,3.283,9.138,2.444c0.081-3.316-0.859-3.188-7.303-5.471
	C126.098,18.462,120.194,16.198,118.633,17.149"/>
<path fill-rule="evenodd" clip-rule="evenodd" fill="#73BF44" d="M178.6,70.032c0.651-2.448-5.83-18.739-9.144-15.232
	c-1.269,1.339,2.525,6.828,3.371,8.474C174.437,66.396,174.927,71.144,178.6,70.032"/>
<path fill-rule="evenodd" clip-rule="evenodd" fill="#73BF44" d="M69.25,180.758c2.633,0.796,11.216,3.701,14.389,3.913
	c2.3,0.154-1.292,0.179,1.063,0.011l1.021-0.196c0.128-0.024,0.343-0.074,0.501-0.145c1.264-3.935-4.775-3.528-8.461-4.569
	C73.933,178.692,69.289,175.588,69.25,180.758"/>
<path fill-rule="evenodd" clip-rule="evenodd" fill="#73BF44" d="M152.346,44.376c0.016-0.033,1.729-0.18-0.509-2.958
	c-0.215-0.266-1.902-1.737-2.239-1.991c-1.981-1.501-3.758-3.73-5.187-2.38c-1.559,1.474-0.042,2.7,2.271,4.683
	C151.087,45.512,150.33,45.039,152.346,44.376"/>
<path fill-rule="evenodd" clip-rule="evenodd" fill="#73BF44" d="M132.167,178.398c2.278,0.44,11.474-2.945,9.445-5.843
	c-0.591-0.43,0.529-0.361-1.007-0.595c-1.407-0.212-3.488,1.295-4.726,1.907C132.938,175.329,131.641,174.839,132.167,178.398"/>
<path fill-rule="evenodd" clip-rule="evenodd" fill="#73BF44" d="M57.653,25.021c-2.052,0.754-3.844,1.843-5.673,2.996
	c-2.913,1.832-3.863,7.364,6.016,0.62C61.018,26.573,60.148,24.103,57.653,25.021"/>
<path fill-rule="evenodd" clip-rule="evenodd" fill="#73BF44" d="M16.331,60.068c3.449,0.681,3.73-1.956,5.021-4.342
	c1.66-3.07,3.442-4.85-1.198-5.147C17.932,54.467,15.786,57.355,16.331,60.068"/>
<path fill-rule="evenodd" clip-rule="evenodd" fill="#73BF44" d="M45.771,44.373c2.097,0.696,1.229,0.688,2.964-0.511
	c1.615-1.116,7.236-4.675,4.969-6.818c-1.461-1.379-3.335,1.017-4.831,2.137C47.315,40.346,44.687,41.948,45.771,44.373"/>
<path fill-rule="evenodd" clip-rule="evenodd" fill="#73BF44" d="M178.521,53.891c0.272-2.425-0.99-3.646-2.193-5.454
	c-0.962-1.445-2.725-5.192-4.645-3.221c-1.479,1.516,0.938,4.058,1.851,5.43C175.137,53.06,175.469,54.631,178.521,53.891"/>
<path fill-rule="evenodd" clip-rule="evenodd" fill="#73BF44" d="M5.23,76.952c0.822-2.597,2.847-7.852,2.11-10.181L5.55,66.494
	c-1.862,1.495-1.357,1.735-2.636,5.953C1.958,75.613,1.483,76.854,5.23,76.952"/>
<path fill-rule="evenodd" clip-rule="evenodd" fill="#73BF44" d="M125.382,26.824c-0.322,3.14,0.532,2.676,3.636,3.989
	c2.131,0.903,3.711,2.346,5.792,1.373C137.834,29.25,126.752,25.546,125.382,26.824"/>
<path fill-rule="evenodd" clip-rule="evenodd" fill="#73BF44" d="M111.896,184.338c1.987,0.897,3.555,0.213,6.626-0.479
	c1.196-0.268,5.268-1.027,3.109-3.279c-1.378-1.439-4.314-0.05-6.039,0.308C112.54,181.52,110.886,181.258,111.896,184.338"/>
<path fill-rule="evenodd" clip-rule="evenodd" fill="#73BF44" d="M22.912,35.729c-3.271,1.856-8.535,11.48-2.878,8.679
	c0.008-0.006,5.329-5.563,5.075-7.429C24.915,35.563,23.862,35.191,22.912,35.729"/>
<path fill-rule="evenodd" clip-rule="evenodd" fill="#73BF44" d="M180.02,126.666c1.726-1.428,1.549-2.113,2.092-4.256
	c0.226-0.875,0.619-2.152,0.756-2.875c0.402-2.182,0.178-2.154-0.168-3.022c-3.371-1.315-3.063,1.379-3.822,4.438
	C178.057,124.258,176.56,125.831,180.02,126.666"/>
<path fill-rule="evenodd" clip-rule="evenodd" fill="#73BF44" d="M139.329,10.019c-0.826,2.792,1.124,2.829,3.486,4.041
	c1.672,0.859,4.203,2.916,5.656,1.404c1.955-2.038-1.74-3.384-3.009-4.032C143.37,10.365,141.441,8.789,139.329,10.019"/>
<path fill-rule="evenodd" clip-rule="evenodd" fill="#73BF44" d="M126.223,195.635c1.552,0.438,8.553-0.884,9.808-3.819
	c-1.582-2.791-3.028-1.296-6.222-0.203c-0.859,0.293-3.014,0.941-3.486,1.307C124.169,194.579,126.185,195.572,126.223,195.635"/>
<path fill-rule="evenodd" clip-rule="evenodd" fill="#73BF44" d="M21.904,112.877c-0.723,2.016,0.748,12.646,3.82,9.772
	c1.554-1.452,0.1-4.314-0.299-6.081C24.739,113.519,25.151,111.991,21.904,112.877"/>
<path fill-rule="evenodd" clip-rule="evenodd" fill="#73BF44" d="M107.615,196.975c-1.916-0.909-13.521-1.064-9.861,2.59
	C98.046,199.855,109.526,202.013,107.615,196.975"/>
<path fill-rule="evenodd" clip-rule="evenodd" fill="#73BF44" d="M7.749,87.196c2.999,1.062,2.809-0.752,3.354-3.65
	c0.462-2.46,1.223-4.621,0.161-6.453l-1.92-0.024c-0.952,1.388-2.265,6.754-2.068,8.679C7.386,86.831,7.506,86.719,7.749,87.196"/>
<path fill-rule="evenodd" clip-rule="evenodd" fill="#73BF44" d="M111.951,8.779c-1.063,2.999,0.751,2.81,3.651,3.354
	c2.458,0.463,4.617,1.223,6.448,0.163l0.025-1.921c-1.439-0.987-5.057-1.721-6.998-1.966c-0.703-0.089-0.971-0.174-1.681-0.103
	C112.315,8.416,112.425,8.535,111.951,8.779"/>
<path fill-rule="evenodd" clip-rule="evenodd" fill="#73BF44" d="M79.521,24.339c-1.795-0.411-12.743,1.737-9.674,4.861
	c1.322,1.347,4.501-0.445,6.195-0.994C78.869,27.29,79.928,27.272,79.521,24.339"/>
<path fill-rule="evenodd" clip-rule="evenodd" fill="#73BF44" d="M26.365,57.671c3.431-0.137,6.453-7.137,6.461-7.187
	c0.45-3.083,0.633,3.176-0.144-1.379c-0.02-0.107-0.092-0.314-0.162-0.462c-2.759-1.08-3.577,1.635-4.762,3.368
	C26.091,54.449,24.613,55.385,26.365,57.671"/>
<path fill-rule="evenodd" clip-rule="evenodd" fill="#73BF44" d="M174.804,119.624c-2.931-0.409-2.946,0.649-3.863,3.48
	c-0.588,1.813-2.31,4.901-0.996,6.191C173.068,132.367,175.22,121.417,174.804,119.624"/>
<path fill-rule="evenodd" clip-rule="evenodd" fill="#73BF44" d="M158.956,32.429c0.923-0.863,0.451-0.355,1.216-1.435
	c-0.526-1.64-6.76-7.955-8.707-5.927C149.037,27.597,157.987,32.395,158.956,32.429"/>
<polygon fill-rule="evenodd" clip-rule="evenodd" fill="#73BF44" points="97.649,0.285 97.579,3.176 100.445,3.271 100.568,0.382 
	"/>
<polygon fill-rule="evenodd" clip-rule="evenodd" fill="#73BF44" points="44.006,172.425 43.911,175.357 46.801,175.413 
	46.899,172.565 "/>
<polygon fill-rule="evenodd" clip-rule="evenodd" fill="#73BF44" points="-0.067,87.826 -0.139,90.75 2.727,90.814 2.847,87.957 "/>
<polygon fill-rule="evenodd" clip-rule="evenodd" fill="#73BF44" points="23.828,152.25 23.683,155.135 26.619,155.237 
	26.671,152.341 "/>
<path fill-rule="evenodd" clip-rule="evenodd" fill="#73BF44" d="M25.667,70.8l-0.169,2.753l2.714-0.027
	C29.534,70.334,26.766,70.128,25.667,70.8"/>
<path fill-rule="evenodd" clip-rule="evenodd" fill="#73BF44" d="M39.949,162.291c1.668,0.273,0.938,0.467,2.226-0.629l-0.012-2.167
	c-0.979-0.115-1.787-0.42-2.547,0.322C37.97,161.427,39.932,162.27,39.949,162.291"/>
<path fill-rule="evenodd" clip-rule="evenodd" fill="#73BF44" d="M180.544,83.655c4.477,1.139,2.087-4.426,0.063-2.653
	c-0.655,0.574-0.466-0.831-0.595,1.194C179.83,85.035,179.988,82.679,180.544,83.655"/>
<path fill-rule="evenodd" clip-rule="evenodd" fill="#73BF44" d="M38.302,54.869c1.868-3.063-0.999-3.428-1.912-2.555
	C35.043,53.6,35.907,55.766,38.302,54.869"/>
<path fill-rule="evenodd" clip-rule="evenodd" fill="#73BF44" d="M125.861,170.949l-0.417,2.595l2.903,0.027
	C128.776,170.731,128.808,170.073,125.861,170.949"/>
<path fill-rule="evenodd" clip-rule="evenodd" fill="#73BF44" d="M39.95,37.884c-1.681,1.986-0.844,3.176,2.161,2.795l0.211-2.154
	C40.888,37.421,41.619,37.611,39.95,37.884"/>
<path fill-rule="evenodd" clip-rule="evenodd" fill="#73BF44" d="M17.573,116.521c-2.25-0.572-3.489,1.006-1.849,2.576
	c0.183,0.175,2.228,1.263,2.379-1.12C18.282,115.142,18.129,117.496,17.573,116.521"/>
<path fill-rule="evenodd" clip-rule="evenodd" fill="#73BF44" d="M168.589,30.958c-1.292,3.542,3.68,3.44,2.6,0.036
	c-0.612-0.386,0.572-0.662-1.291-0.555C167.339,30.586,169.655,30.321,168.589,30.958"/>
<path fill-rule="evenodd" clip-rule="evenodd" fill="#73BF44" d="M112.038,175.127c-1.434,3.507,3.727,3.463,2.552,0.011
	c-0.589-0.364,0.514-0.657-1.273-0.538C110.748,174.773,113.172,174.425,112.038,175.127"/>
<path fill-rule="evenodd" clip-rule="evenodd" fill="#73BF44" d="M69.714,21.467c0.806,0.527-1.197,0.773,1.321,0.578
	c2.426-0.189,0.125,0.185,1.333-0.581C73.335,18.045,68.551,18.106,69.714,21.467"/>
<path fill-rule="evenodd" clip-rule="evenodd" fill="#73BF44" d="M37.574,21.464c-0.865,3.346,3.681,3.4,2.693-0.009
	c-0.851-0.557,1.237-0.796-1.344-0.588C36.776,21.04,38.492,20.875,37.574,21.464"/>
<path fill-rule="evenodd" clip-rule="evenodd" fill="#73BF44" d="M195.475,126.22l0.27-2.563
	C191.395,122.74,191.117,126.924,195.475,126.22"/>
<path fill-rule="evenodd" clip-rule="evenodd" fill="#73BF44" d="M37.574,178.713c0.642,0.411-0.7,0.744,1.35,0.598
	c1.151-0.084,0.777-0.218,1.344-0.587C41.332,175.342,36.634,175.373,37.574,178.713"/>
<path fill-rule="evenodd" clip-rule="evenodd" fill="#73BF44" d="M157.851,21.453c-1.057,3.33,3.569,3.418,2.691,0.011
	c-0.642-0.414,0.7-0.746-1.35-0.597C158.044,20.949,158.417,21.083,157.851,21.453"/>
<path fill-rule="evenodd" clip-rule="evenodd" fill="#73BF44" d="M155.941,38.515l0.012,2.169c2.694,0.312,4.377-1.573,2.212-2.8
	C156.072,37.544,157.342,37.701,155.941,38.515"/>
<path fill-rule="evenodd" clip-rule="evenodd" fill="#73BF44" d="M49.296,14.736c0.844,1.216,0.731,1.67,2.706,0.819
	c0.824-1.818,0.274-2.152-1.191-2.825C49.104,13.572,49.703,12.024,49.296,14.736"/>
<path fill-rule="evenodd" clip-rule="evenodd" fill="#73BF44" d="M50.811,187.444c1.466-0.672,2.016-1.007,1.191-2.823
	c-1.254-0.54-1.813-0.769-2.508,0.475C48.642,186.621,50.195,187.14,50.811,187.444"/>
<path fill-rule="evenodd" clip-rule="evenodd" fill="#73BF44" d="M28.472,133.81c-0.446,3.856,4.625,2.647,2.3-0.66
	C28.506,132.813,29.895,132.929,28.472,133.81"/>
<path fill-rule="evenodd" clip-rule="evenodd" fill="#73BF44" d="M69.847,185.535c-1.908,3.633,2.235,3.694,2.422,1.518
	c0.236-2.741-0.02-0.581-0.474-1.446L69.847,185.535z"/>
<path fill-rule="evenodd" clip-rule="evenodd" fill="#73BF44" d="M10.277,56.011c1.955,1.222,0.88,1.011,2.574,0.059l0.205-1.88
	C10.726,52.987,9.489,53.786,10.277,56.011"/>
<path fill-rule="evenodd" clip-rule="evenodd" fill="#73BF44" d="M10.277,144.163c-0.746,2.265,0.44,3.03,2.528,1.819l0.278-1.871
	C11.158,143.155,12.232,142.941,10.277,144.163"/>
<path fill-rule="evenodd" clip-rule="evenodd" fill="#73BF44" d="M173.304,136.522c-0.901,2.098-0.723,0.412-0.293,2.782
	l2.283,0.196c1.051-2.121,0.803-1.031,0.071-2.551L173.304,136.522z"/>
<path fill-rule="evenodd" clip-rule="evenodd" fill="#73BF44" d="M58.887,182.619l0.133-2.431
	C54.838,179.238,54.846,183.728,58.887,182.619"/>
<polygon fill-rule="evenodd" clip-rule="evenodd" fill="#73BF44" points="97.673,17.187 100.244,17.3 100.4,14.443 97.914,14.337 
	"/>
<polygon fill-rule="evenodd" clip-rule="evenodd" fill="#73BF44" points="181.96,98.703 181.845,101.271 184.706,101.431 
	184.812,98.944 "/>
<polygon fill-rule="evenodd" clip-rule="evenodd" fill="#73BF44" points="13.413,98.745 13.306,101.232 16.159,101.472 
	16.273,98.904 "/>
<polygon fill-rule="evenodd" clip-rule="evenodd" fill="#73BF44" points="97.717,185.73 100.204,185.84 100.443,182.988 
	97.876,182.875 "/>
<polygon fill-rule="evenodd" clip-rule="evenodd" fill="#73BF44" points="28.237,42.071 30.893,42.211 31.077,39.582 28.381,39.354 
	"/>
<polygon fill-rule="evenodd" clip-rule="evenodd" fill="#73BF44" points="167.04,160.593 169.735,160.82 169.879,158.105 
	167.224,157.967 "/>
<path fill-rule="evenodd" clip-rule="evenodd" fill="#73BF44" d="M7.925,115.64l2.335,0.087
	C10.76,110.864,6.194,112.447,7.925,115.64"/>
<path fill="#6D6E70" d="M80.113,55.339c2.363-3.089,5.762-5.135,9.981-6.069c5.002-1.109,9.223-0.927,12.796,0.261
	c3.711,1.234,6.641,3.493,8.969,6.482c3.759,4.833,3.454,13.592,3.207,20.617c-0.044,1.365-0.088,2.644-0.088,4.256h-0.016
	l0.01,9.625c0.009,5.31,0.016,10.622,0.003,15.932c-0.013,5.376-1.583,9.513-4.075,12.553c-2.476,3.017-5.819,4.88-9.437,5.755
	c-3.471,0.84-7.219,0.764-10.676-0.069c-4.717-1.141-8.995-3.72-11.493-7.353c-3.266-4.744-2.992-14.071-2.789-21.032
	c0.037-1.251,0.071-2.37,0.071-3.987c0-6.671-0.005-7.839-0.008-9.007c-0.021-5.52-0.044-11.05,0.007-16.554
	C76.62,62.106,77.862,58.281,80.113,55.339 M91.575,55.977c-2.595,0.575-4.638,1.768-5.991,3.539
	c-1.358,1.775-2.108,4.215-2.138,7.289c-0.05,5.487-0.027,10.998-0.007,16.498l0.039,9.007c0,0.746-0.05,2.411-0.1,4.173
	c-0.178,6.008-0.413,14.052,1.574,16.939c1.515,2.202,4.299,3.813,7.452,4.577c2.44,0.588,5.052,0.645,7.445,0.068
	c2.244-0.54,4.284-1.657,5.747-3.439c1.533-1.872,2.5-4.556,2.511-8.186c0.014-5.31,0.005-10.622-0.002-15.932l-0.011-9.625h-0.014
	c0-0.994,0.059-2.683,0.121-4.471c0.205-5.915,0.461-13.289-1.782-16.172c-1.53-1.966-3.393-3.429-5.683-4.191
	C98.308,55.245,95.297,55.151,91.575,55.977z"/>
<path fill-rule="evenodd" clip-rule="evenodd" fill="#6D6E70" d="M88.901,141.551c-0.007,4.327-1.183,11.839,1.457,14.366
	c2.092,2.042,8.754,2.042,10.86,0.003c2.623-2.527,1.478-10.042,1.428-14.362c19.374-3.686,26.805-19.119,26.792-39.393
	c-0.003-5.227,0.365-8.922-5.626-8.922c-11.646,0.001,0.037,14.83-10.131,28.361c-3.182,4.233-7.777,8.259-15.749,8.956
	c-14.591,1.271-24.487-9.431-24.551-23.689c-0.014-2.848,0.565-8.945-0.598-11.26c-1.387-2.756-7.083-3.336-9.396-0.941
	C60.584,97.57,57.824,135.573,88.901,141.551"/>
</svg>
