<?xml version="1.0" encoding="utf-8"?>
<!-- Generator: Adobe Illustrator 16.0.0, SVG Export Plug-In . SVG Version: 6.00 Build 0)  -->
<!DOCTYPE svg PUBLIC "-//W3C//DTD SVG 1.1//EN" "http://www.w3.org/Graphics/SVG/1.1/DTD/svg11.dtd">
<svg version="1.1" id="Layer_1" xmlns="http://www.w3.org/2000/svg" xmlns:xlink="http://www.w3.org/1999/xlink" x="0px" y="0px"
	 width="200px" height="200px" viewBox="0 0 200 200" enable-background="new 0 0 200 200" xml:space="preserve">
<path fill-rule="evenodd" clip-rule="evenodd" fill="#73BF44" d="M73.181,172.799c0.413-3.982-2.246-2.83-9.679-6.819
	c-3.764-2.021-7.031-4.152-10.03-6.517c-4.576-3.604-8.954-7.86-12.523-12.359c-3.552-4.489-7.451-3.434-1.982,3.177
	c1.604,1.94,2.413,2.937,3.785,4.51C47.982,160.793,68.099,174.837,73.181,172.799"/>
<path fill-rule="evenodd" clip-rule="evenodd" fill="#73BF44" d="M96.53,175.617c-11.218,4.274-4.802,20.082,5.937,16.29
	c3.711-1.312,6.651-5.954,5.193-10.859C106.539,177.264,101.557,173.701,96.53,175.617 M97.168,179.336
	c7.138-3.354,9.839,6.614,4.649,8.975c-4.851,2.208-8.947-2.242-7.267-6.579C95.543,179.155,95.488,180.128,97.168,179.336z"/>
<path fill-rule="evenodd" clip-rule="evenodd" fill="#73BF44" d="M13.719,91.571c-11.589,2.791-7.222,19.457,4.079,16.814
	c3.93-0.92,7.392-5.521,6.19-10.627C23.054,93.775,18.655,90.383,13.719,91.571 M14.976,94.831c6.642-1.021,8.096,9.384,1.25,10.259
	C9.59,105.938,7.935,95.917,14.976,94.831z"/>
<path fill-rule="evenodd" clip-rule="evenodd" fill="#73BF44" d="M181.295,91.563c-11.422,2.701-7.28,19.536,4.087,16.814
	c4.132-0.993,7.322-5.447,6.193-10.606C190.666,93.64,186.104,90.425,181.295,91.563 M182.563,94.827
	c6.617-0.979,8.003,9.35,1.254,10.26C177.133,105.985,175.459,95.879,182.563,94.827z"/>
<path fill-rule="evenodd" clip-rule="evenodd" fill="#73BF44" d="M96.846,7.885c-4.014,1.232-7.149,5.273-5.923,10.516
	c0.938,4.017,5.847,7.663,11.103,6.059C111.854,21.463,108.285,4.378,96.846,7.885 M94.117,15.575
	c0.319-5.975,10.701-6.277,10.413,0.806C104.251,23.234,93.724,22.966,94.117,15.575z"/>
<path fill-rule="evenodd" clip-rule="evenodd" fill="#73BF44" d="M176.06,87.238c2.393-6.645-7.628-25.442-12.522-32.514
	c-1.667-2.406-1.194-3.312-4.09-2.458c-1.149,3.017,7.7,11.901,11.991,26.539C173.525,85.922,172.102,88.321,176.06,87.238"/>
<path fill-rule="evenodd" clip-rule="evenodd" fill="#73BF44" d="M190.753,136.569c-3.746-0.26-2.364-0.465-5.427,6.156
	l-8.735,14.339c-0.902,1.146-1.913,2.152-2.732,3.242c-0.882,1.167-2.226,2.552-0.107,3.722c1.861,1.028,4.593-3.646,5.538-4.864
	C182.435,155.089,191.687,140.931,190.753,136.569"/>
<path fill-rule="evenodd" clip-rule="evenodd" fill="#73BF44" d="M132.612,185.155c4.819,1.472,26.22-12.541,27.505-16.506
	c-0.736-1.01-0.341-0.587-1.212-1.427c-1.771,0.063-12.881,9.298-20.432,12.707C132.908,182.447,131.793,181.69,132.612,185.155"/>
<path fill-rule="evenodd" clip-rule="evenodd" fill="#73BF44" d="M63.509,190.183c-1.128,1.03-1.677,0.889-0.028,2.402
	c1.455,1.333,13.603,4.35,15.981,4.833c2.851,0.576,5.735,1.601,6.996,0.326c3.107-3.139-8.641-4.236-10.839-4.781
	C72.9,192.293,64.901,188.908,63.509,190.183"/>
<path fill-rule="evenodd" clip-rule="evenodd" fill="#73BF44" d="M190.749,63.337c0.844-3.882-5.708-14.002-8.106-17.637
	c-1.59-2.406-1.857-4.677-4.902-4.125c-1.357,2.5,2.277,5.958,5.124,10.981c1.143,2.01,2.091,3.843,3.035,5.854
	C188.583,64.129,187.117,63.581,190.749,63.337"/>
<path fill-rule="evenodd" clip-rule="evenodd" fill="#73BF44" d="M38.591,31.257c0.705,0.976,0.361,0.611,1.198,1.427
	c1.697-0.063,10.225-7.277,15.838-10.228c2.59-1.361,4.569-1.476,3.94-4.756c-3.201-0.628-9.332,3.743-11.676,5.336
	C45.143,24.904,39.372,28.862,38.591,31.257"/>
<path fill-rule="evenodd" clip-rule="evenodd" fill="#73BF44" d="M6.969,133.354c2.913-1.507,1.482-2.038-0.226-8.294
	c-0.601-2.198-0.955-8.857-3.451-9.068c-3.729-0.313-0.038,9.641,1.017,13.259C5.171,132.202,4.699,132.602,6.969,133.354"/>
<path fill-rule="evenodd" clip-rule="evenodd" fill="#73BF44" d="M195.405,112.222l2.257,0.121
	c1.392-3.239,1.951-14.568,0.465-17.519c-4.222-0.548-2.732,3.44-2.813,7.502C195.252,105.465,194.238,110.021,195.405,112.222"/>
<path fill-rule="evenodd" clip-rule="evenodd" fill="#73BF44" d="M129.172,7.798c0.107-3.531,0.857-2.774-7.51-4.753
	c-3.249-0.768-8.606-2.493-9.651-0.542c-1.576,2.947,5.621,3.225,7.735,3.684C122.847,6.86,126.381,8.412,129.172,7.798"/>
<path fill-rule="evenodd" clip-rule="evenodd" fill="#73BF44" d="M20.27,129.838c-0.76,2.874,1.826,6.784,3.135,9.328
	c0.917,1.781,3.319,8.604,5.958,5.815c1.257-1.333-2.517-6.798-3.357-8.422C24.405,133.452,23.922,128.73,20.27,129.838"/>
<path fill-rule="evenodd" clip-rule="evenodd" fill="#73BF44" d="M163.616,171.326l-11.35,8.889
	c-2.034,2.565-0.732,6.079,9.593-2.944c1.167-1.021,2.622-1.639,3.625-3.007C166.846,172.402,166.346,169.868,163.616,171.326"/>
<path fill-rule="evenodd" clip-rule="evenodd" fill="#73BF44" d="M184.34,70.646l-0.152,2.462c0.09,0.694,0.462,1.791,0.632,2.343
	c1.431,4.635,2.694,16.026,5.545,11.294c0.076-0.118,0.139-0.295,0.188-0.438c0.476-1.413-1.16-7.645-1.535-9.075
	C188.086,73.718,187.985,69.107,184.34,70.646"/>
<path fill-rule="evenodd" clip-rule="evenodd" fill="#73BF44" d="M69.532,7.798c2.792,0.611,6.333-0.934,9.426-1.611
	c2.118-0.465,9.308-0.736,7.732-3.684c-0.889-1.66-2.684-0.899-4.67-0.5l-9.728,2.208C69.23,4.985,69.432,4.534,69.532,7.798"/>
<path fill-rule="evenodd" clip-rule="evenodd" fill="#73BF44" d="M187.173,126.414c-4.246-0.243-3.999,3.719-5.479,7.329
	c-0.822,2.014-4.818,7.67-2.086,9.03C182.462,144.201,187.697,129.095,187.173,126.414"/>
<path fill-rule="evenodd" clip-rule="evenodd" fill="#73BF44" d="M118.813,17.495c-0.14,2.976-0.254,2.722,2.61,3.559
	c1.684,0.493,3.274,0.868,5.017,1.469c3.069,1.063,6.354,3.267,9.083,2.43c0.083-3.294-0.854-3.166-7.26-5.437
	C126.235,18.797,120.367,16.547,118.813,17.495"/>
<path fill-rule="evenodd" clip-rule="evenodd" fill="#73BF44" d="M178.435,70.073c0.649-2.434-5.795-18.633-9.09-15.148
	c-1.26,1.333,2.511,6.791,3.351,8.426C174.296,66.455,174.785,71.177,178.435,70.073"/>
<path fill-rule="evenodd" clip-rule="evenodd" fill="#73BF44" d="M69.716,180.159c2.618,0.791,11.148,3.68,14.304,3.892
	c2.288,0.152-1.285,0.174,1.059,0.007l1.014-0.194c0.128-0.021,0.34-0.073,0.5-0.139c1.253-3.916-4.75-3.51-8.413-4.545
	C74.372,178.104,69.754,175.017,69.716,180.159"/>
<path fill-rule="evenodd" clip-rule="evenodd" fill="#73BF44" d="M152.333,44.562c0.014-0.031,1.719-0.177-0.507-2.941
	c-0.212-0.264-1.893-1.725-2.226-1.979c-1.969-1.489-3.735-3.708-5.155-2.368c-1.553,1.465-0.042,2.688,2.256,4.659
	C151.083,45.693,150.33,45.221,152.333,44.562"/>
<path fill-rule="evenodd" clip-rule="evenodd" fill="#73BF44" d="M132.272,177.815c2.264,0.434,11.405-2.931,9.388-5.809
	c-0.586-0.427,0.528-0.361-1-0.594c-1.398-0.212-3.468,1.285-4.697,1.896C133.036,174.76,131.748,174.274,132.272,177.815"/>
<path fill-rule="evenodd" clip-rule="evenodd" fill="#73BF44" d="M58.183,25.32c-2.038,0.75-3.819,1.833-5.638,2.976
	c-2.896,1.826-3.84,7.326,5.982,0.618C61.53,26.862,60.665,24.407,58.183,25.32"/>
<path fill-rule="evenodd" clip-rule="evenodd" fill="#73BF44" d="M17.1,60.164c3.43,0.677,3.711-1.944,4.993-4.315
	c1.652-3.055,3.423-4.823-1.191-5.118C18.694,54.595,16.559,57.466,17.1,60.164"/>
<path fill-rule="evenodd" clip-rule="evenodd" fill="#73BF44" d="M46.372,44.562c2.086,0.691,1.222,0.684,2.948-0.51
	c1.607-1.108,7.193-4.646,4.94-6.777c-1.452-1.371-3.316,1.01-4.802,2.122C47.906,40.555,45.295,42.148,46.372,44.562"/>
<path fill-rule="evenodd" clip-rule="evenodd" fill="#73BF44" d="M178.358,54.022c0.271-2.41-0.986-3.625-2.185-5.42
	c-0.954-1.437-2.704-5.166-4.617-3.205c-1.469,1.507,0.934,4.035,1.84,5.399C174.994,53.196,175.324,54.758,178.358,54.022"/>
<path fill-rule="evenodd" clip-rule="evenodd" fill="#73BF44" d="M6.063,76.951c0.819-2.58,2.833-7.805,2.101-10.121l-1.781-0.278
	c-1.851,1.489-1.351,1.726-2.621,5.919C2.81,75.617,2.338,76.854,6.063,76.951"/>
<path fill-rule="evenodd" clip-rule="evenodd" fill="#73BF44" d="M125.523,27.112c-0.319,3.125,0.531,2.663,3.614,3.968
	c2.121,0.896,3.69,2.33,5.76,1.361C137.907,29.525,126.888,25.841,125.523,27.112"/>
<path fill-rule="evenodd" clip-rule="evenodd" fill="#73BF44" d="M112.115,183.718c1.975,0.892,3.534,0.215,6.589-0.473
	c1.188-0.271,5.236-1.024,3.091-3.264c-1.372-1.434-4.292-0.052-6.003,0.306C112.757,180.916,111.111,180.659,112.115,183.718"/>
<path fill-rule="evenodd" clip-rule="evenodd" fill="#73BF44" d="M23.645,35.969c-3.253,1.843-8.485,11.412-2.861,8.624
	c0.007-0.003,5.298-5.527,5.045-7.385C25.638,35.802,24.589,35.431,23.645,35.969"/>
<path fill-rule="evenodd" clip-rule="evenodd" fill="#73BF44" d="M179.848,126.38c1.715-1.42,1.541-2.101,2.08-4.232
	c0.222-0.871,0.614-2.139,0.749-2.857c0.403-2.166,0.178-2.143-0.166-3.007c-3.351-1.309-3.042,1.371-3.799,4.409
	C177.896,123.984,176.407,125.546,179.848,126.38"/>
<path fill-rule="evenodd" clip-rule="evenodd" fill="#73BF44" d="M139.39,10.405c-0.819,2.774,1.118,2.812,3.469,4.017
	c1.659,0.854,4.177,2.899,5.621,1.396c1.944-2.028-1.729-3.364-2.989-4.01C143.41,10.749,141.49,9.18,139.39,10.405"/>
<path fill-rule="evenodd" clip-rule="evenodd" fill="#73BF44" d="M126.36,194.949c1.545,0.44,8.502-0.879,9.752-3.795
	c-1.576-2.777-3.014-1.292-6.187-0.205c-0.854,0.292-2.996,0.938-3.465,1.302C124.318,193.9,126.321,194.887,126.36,194.949"/>
<path fill-rule="evenodd" clip-rule="evenodd" fill="#73BF44" d="M22.641,112.669c-0.719,2.004,0.747,12.568,3.798,9.718
	c1.545-1.444,0.101-4.291-0.295-6.048C25.46,113.308,25.87,111.791,22.641,112.669"/>
<path fill-rule="evenodd" clip-rule="evenodd" fill="#73BF44" d="M107.861,196.282c-1.905-0.902-13.442-1.059-9.804,2.576
	C98.345,199.146,109.761,201.292,107.861,196.282"/>
<path fill-rule="evenodd" clip-rule="evenodd" fill="#73BF44" d="M8.57,87.137c2.979,1.055,2.792-0.75,3.333-3.632
	c0.461-2.444,1.215-4.59,0.16-6.413l-1.91-0.024c-0.944,1.382-2.25,6.715-2.055,8.628C8.208,86.772,8.327,86.665,8.57,87.137"/>
<path fill-rule="evenodd" clip-rule="evenodd" fill="#73BF44" d="M112.17,9.173c-1.055,2.979,0.747,2.791,3.632,3.333
	c2.444,0.461,4.59,1.215,6.409,0.16l0.028-1.91c-1.431-0.979-5.027-1.711-6.958-1.955c-0.698-0.087-0.965-0.174-1.674-0.101
	C112.531,8.812,112.643,8.926,112.17,9.173"/>
<path fill-rule="evenodd" clip-rule="evenodd" fill="#73BF44" d="M79.927,24.644c-1.785-0.41-12.669,1.725-9.617,4.833
	c1.316,1.337,4.475-0.444,6.159-0.989C79.278,27.574,80.333,27.556,79.927,24.644"/>
<path fill-rule="evenodd" clip-rule="evenodd" fill="#73BF44" d="M27.078,57.782c3.41-0.139,6.416-7.096,6.423-7.145
	c0.448-3.065,0.629,3.156-0.142-1.372c-0.021-0.107-0.09-0.316-0.16-0.461c-2.746-1.073-3.559,1.628-4.736,3.35
	C26.804,54.578,25.335,55.508,27.078,57.782"/>
<path fill-rule="evenodd" clip-rule="evenodd" fill="#73BF44" d="M174.66,119.38c-2.912-0.409-2.927,0.646-3.84,3.458
	c-0.583,1.806-2.295,4.871-0.992,6.159C172.936,132.046,175.074,121.161,174.66,119.38"/>
<path fill-rule="evenodd" clip-rule="evenodd" fill="#73BF44" d="M158.905,32.684c0.917-0.857,0.448-0.354,1.208-1.427
	c-0.524-1.628-6.722-7.909-8.655-5.892C149.045,27.879,157.94,32.649,158.905,32.684"/>
<polygon fill-rule="evenodd" clip-rule="evenodd" fill="#73BF44" points="97.95,0.726 97.884,3.6 100.73,3.694 100.852,0.823 "/>
<polygon fill-rule="evenodd" clip-rule="evenodd" fill="#73BF44" points="44.618,171.875 44.521,174.791 47.396,174.844 
	47.493,172.018 "/>
<polygon fill-rule="evenodd" clip-rule="evenodd" fill="#73BF44" points="0.796,87.762 0.727,90.671 3.577,90.734 3.695,87.894 "/>
<polygon fill-rule="evenodd" clip-rule="evenodd" fill="#73BF44" points="24.554,151.818 24.412,154.683 27.332,154.786 
	27.38,151.908 "/>
<path fill-rule="evenodd" clip-rule="evenodd" fill="#73BF44" d="M26.384,70.833l-0.167,2.739l2.698-0.028
	C30.228,70.372,27.478,70.167,26.384,70.833"/>
<path fill-rule="evenodd" clip-rule="evenodd" fill="#73BF44" d="M40.584,161.8c1.659,0.274,0.93,0.462,2.211-0.625l-0.01-2.156
	c-0.976-0.114-1.778-0.417-2.535,0.319C38.615,160.938,40.566,161.778,40.584,161.8"/>
<path fill-rule="evenodd" clip-rule="evenodd" fill="#73BF44" d="M180.368,83.617c4.451,1.132,2.076-4.399,0.063-2.639
	c-0.652,0.569-0.465-0.826-0.59,1.188C179.66,84.988,179.816,82.645,180.368,83.617"/>
<path fill-rule="evenodd" clip-rule="evenodd" fill="#73BF44" d="M38.949,54.995c1.854-3.045-0.997-3.406-1.903-2.542
	C35.706,53.734,36.563,55.887,38.949,54.995"/>
<path fill-rule="evenodd" clip-rule="evenodd" fill="#73BF44" d="M126.002,170.406l-0.416,2.58l2.889,0.024
	C128.897,170.191,128.929,169.535,126.002,170.406"/>
<path fill-rule="evenodd" clip-rule="evenodd" fill="#73BF44" d="M40.584,38.111c-1.67,1.972-0.837,3.152,2.149,2.777l0.208-2.142
	C41.518,37.649,42.243,37.84,40.584,38.111"/>
<path fill-rule="evenodd" clip-rule="evenodd" fill="#73BF44" d="M18.336,116.294c-2.236-0.569-3.468,1-1.836,2.559
	c0.181,0.177,2.215,1.257,2.364-1.111C19.041,114.919,18.888,117.263,18.336,116.294"/>
<path fill-rule="evenodd" clip-rule="evenodd" fill="#73BF44" d="M168.48,31.223c-1.284,3.521,3.659,3.419,2.587,0.035
	c-0.611-0.382,0.569-0.656-1.285-0.552C167.241,30.851,169.543,30.587,168.48,31.223"/>
<path fill-rule="evenodd" clip-rule="evenodd" fill="#73BF44" d="M112.257,174.559c-1.427,3.489,3.705,3.447,2.538,0.011
	c-0.587-0.357,0.511-0.649-1.267-0.531C110.977,174.212,113.386,173.861,112.257,174.559"/>
<path fill-rule="evenodd" clip-rule="evenodd" fill="#73BF44" d="M70.178,21.786c0.798,0.524-1.191,0.767,1.312,0.573
	c2.413-0.188,0.125,0.188,1.323-0.576C73.778,18.384,69.022,18.446,70.178,21.786"/>
<path fill-rule="evenodd" clip-rule="evenodd" fill="#73BF44" d="M38.223,21.783c-0.861,3.326,3.659,3.381,2.677-0.011
	c-0.847-0.552,1.229-0.792-1.337-0.583C37.428,21.362,39.136,21.196,38.223,21.783"/>
<path fill-rule="evenodd" clip-rule="evenodd" fill="#73BF44" d="M195.214,125.936l0.268-2.552
	C191.159,122.474,190.881,126.637,195.214,125.936"/>
<path fill-rule="evenodd" clip-rule="evenodd" fill="#73BF44" d="M38.223,178.124c0.639,0.413-0.698,0.743,1.34,0.594
	c1.146-0.083,0.774-0.212,1.337-0.583C41.959,174.774,37.289,174.809,38.223,178.124"/>
<path fill-rule="evenodd" clip-rule="evenodd" fill="#73BF44" d="M157.805,21.772c-1.049,3.313,3.552,3.399,2.677,0.011
	c-0.639-0.414,0.698-0.74-1.34-0.594C157.999,21.269,158.367,21.404,157.805,21.772"/>
<path fill-rule="evenodd" clip-rule="evenodd" fill="#73BF44" d="M155.909,38.736l0.011,2.156c2.68,0.309,4.35-1.562,2.197-2.781
	C156.037,37.771,157.301,37.927,155.909,38.736"/>
<path fill-rule="evenodd" clip-rule="evenodd" fill="#73BF44" d="M49.878,15.092c0.837,1.208,0.726,1.663,2.691,0.816
	c0.819-1.809,0.271-2.142-1.188-2.809C49.687,13.936,50.281,12.398,49.878,15.092"/>
<path fill-rule="evenodd" clip-rule="evenodd" fill="#73BF44" d="M51.381,186.808c1.458-0.667,2.007-1,1.188-2.809
	c-1.25-0.538-1.806-0.764-2.497,0.476C49.226,185.988,50.771,186.506,51.381,186.808"/>
<path fill-rule="evenodd" clip-rule="evenodd" fill="#73BF44" d="M29.172,133.483c-0.444,3.829,4.6,2.631,2.288-0.656
	C29.207,132.49,30.588,132.608,29.172,133.483"/>
<path fill-rule="evenodd" clip-rule="evenodd" fill="#73BF44" d="M70.31,184.908c-1.899,3.614,2.222,3.674,2.406,1.511
	c0.236-2.726-0.017-0.576-0.469-1.441L70.31,184.908z"/>
<path fill-rule="evenodd" clip-rule="evenodd" fill="#73BF44" d="M11.083,56.13c1.944,1.215,0.875,1.007,2.559,0.059l0.202-1.868
	C11.528,53.126,10.299,53.918,11.083,56.13"/>
<path fill-rule="evenodd" clip-rule="evenodd" fill="#73BF44" d="M11.083,143.777c-0.743,2.25,0.438,3.01,2.514,1.805l0.274-1.857
	C11.958,142.771,13.027,142.562,11.083,143.777"/>
<path fill-rule="evenodd" clip-rule="evenodd" fill="#73BF44" d="M173.171,136.177c-0.896,2.087-0.719,0.41-0.291,2.768l2.271,0.194
	c1.045-2.111,0.795-1.024,0.069-2.538L173.171,136.177z"/>
<path fill-rule="evenodd" clip-rule="evenodd" fill="#73BF44" d="M59.412,182.01l0.132-2.413
	C55.388,178.646,55.395,183.11,59.412,182.01"/>
<polygon fill-rule="evenodd" clip-rule="evenodd" fill="#73BF44" points="97.974,17.529 100.533,17.644 100.689,14.801 
	98.213,14.696 "/>
<polygon fill-rule="evenodd" clip-rule="evenodd" fill="#73BF44" points="181.778,98.577 181.66,101.132 184.507,101.288 
	184.611,98.816 "/>
<polygon fill-rule="evenodd" clip-rule="evenodd" fill="#73BF44" points="14.201,98.619 14.094,101.091 16.93,101.33 17.044,98.775 
	"/>
<polygon fill-rule="evenodd" clip-rule="evenodd" fill="#73BF44" points="98.019,185.106 100.491,185.211 100.727,182.377 
	98.175,182.263 "/>
<polygon fill-rule="evenodd" clip-rule="evenodd" fill="#73BF44" points="28.939,42.27 31.578,42.409 31.762,39.794 29.082,39.572 
	"/>
<polygon fill-rule="evenodd" clip-rule="evenodd" fill="#73BF44" points="166.942,160.112 169.619,160.338 169.766,157.637 
	167.123,157.498 "/>
<path fill-rule="evenodd" clip-rule="evenodd" fill="#73BF44" d="M8.743,115.415l2.323,0.087
	C11.563,110.666,7.025,112.245,8.743,115.415"/>
<path fill-rule="evenodd" clip-rule="evenodd" fill="#6D6E70" d="M128.04,138.813c-0.976,1.159,0.441,0.007-1.458,1.281
	c-0.583,0.389-1.389,0.735-2.052,1.063c-1.854,0.916-2.364,1.288-4.315,1.892c-1.344,1.007-6.999,3.257-9.354,4.451
	c-3.396,1.726-6.36,4.059-9.318,5.44c-2.601-4.576-16.609-8.271-21.046-11.658c-1.694-0.625-2.406-1.08-3.993-1.903l-3.489-2.211
	c-2.586-0.92-3.038-1.997-5.243-3.417c-6.187-3.992-9.318-8.783-9.964-17.442c-0.847-11.314-1.871-23.039-2.256-34.298
	c6.062,0.014,2.871-0.08,6.489,1.917c2.08,1.149,4.777,1.135,6.944-0.129c3.84-2.236,4.857-8.402,0.968-11.526
	c-1.639-1.316-4.593-2.021-7.138-0.972c-3.635,1.489-0.646,2.336-6.559,2.309c-7.621-0.042-11.888-2.027-9.947,7.336l3.604,1.923
	c0.472,9.583,1.33,19.154,1.896,28.73c0.781,13.196,2.767,22.185,16.998,29.886c3.521,1.902,6.496,3.476,10.277,5.371
	c6.916,3.475,15.516,6.332,19.987,11.179c-0.288,3.295-1.229-1.023-1.215,10.402c0.014,12.654,0.732,7.276,1.302,11.242
	c-5.791,6.45-24.647,2.267-28.587,8.145c-9.763,14.571,45.912,9.072,52.377,10.544c3.756,0.854,2.704,1.254,8.214,1.208
	c3.518-0.024,15.471,0.473,17.991-0.11c4.972-1.153-1.034-2.844,6.315-2.781c3.715,0.031,6.837,0.784,8.392-1.393
	c-2.503-3.273,2.514,1.06-0.701-0.652c-3.023-1.604-9.235-0.174-10.76-0.694c-4.464-1.535,6.809-2.861-17.483-2.864
	c-2.899,0-6.965-0.497-9.593,0.306c-5.284,1.607-0.899,1.132-9.146,1.152c-8.023,0.027-33.326,0.573-39.204-1.989
	c12.648-2.493,24.775,0.493,28.035-10.801c1.92-6.656,2.034-15.454,0.066-21.401c8.12-9.339,36.878-13.467,45.381-32.451
	c2.315-5.163,3.548-36.51,4.068-43.576c3.246-0.864,4.371-0.781,4.132-5.062c-0.406-7.145-9.242-1.611-14.437-4.322
	c-2.173-1.135-2.954-3.045-7.242-1.847c-8.321,2.33-5.051,15.79,3.962,13.471c4.451-1.146,0.382-2.552,7.892-2.552
	c-0.521,11.676-1.185,25.033-2.444,36.51c-1.184,10.749-8.909,14.52-15.075,18.839C129.561,138.576,129.818,138.597,128.04,138.813"
	/>
<path fill-rule="evenodd" clip-rule="evenodd" fill="#6D6E70" d="M82.385,96.039c6.843,2.309,15.412-14.106,9.624-28.341
	c-3.139-7.718-8.683-11.812-10.006-7.107c-0.604,2.159,1.045,3.419,1.979,4.517c5.079,5.947,5.819,14.551,2.322,21.623
	C84.298,90.79,80.923,91.723,82.385,96.039"/>
<path fill-rule="evenodd" clip-rule="evenodd" fill="#6D6E70" d="M121.843,59.557c-4.159-2.028-6.003,1.243-7.856,4.27
	c-4.413,7.215-5.295,14.888-2.354,22.953c5.378,14.745,14.218,10.013,8.697,3.823c-2.26-2.542-3.996-5.673-4.593-9.752
	C113.726,67.205,122.975,65.528,121.843,59.557"/>
<path fill-rule="evenodd" clip-rule="evenodd" fill="#6D6E70" d="M125.437,67.108c-9.396,5.875-1.951,26.337,3.552,21.091
	c3.239-3.086-3.764-5.426-2.402-12.446c0.719-3.726,2.392-3.524,3.062-5.725C130.592,66.927,128.047,65.476,125.437,67.108"/>
<path fill-rule="evenodd" clip-rule="evenodd" fill="#6D6E70" d="M74.393,87.873c7.145,4.277,12.384-12.072,5.301-19.745
	c-1.257-1.357-4.121-3.114-5.301-0.059c-1.274,3.298,5.652,6.017,2.312,13.433C75.122,85.022,73.75,83.36,74.393,87.873"/>
</svg>
