<?xml version="1.0" encoding="utf-8"?>
<!-- Generator: Adobe Illustrator 16.0.0, SVG Export Plug-In . SVG Version: 6.00 Build 0)  -->
<!DOCTYPE svg PUBLIC "-//W3C//DTD SVG 1.1//EN" "http://www.w3.org/Graphics/SVG/1.1/DTD/svg11.dtd">
<svg version="1.1" id="Layer_1" xmlns="http://www.w3.org/2000/svg" xmlns:xlink="http://www.w3.org/1999/xlink" x="0px" y="0px"
	 width="200px" height="200px" viewBox="0 0 200 200" enable-background="new 0 0 200 200" xml:space="preserve">
<path fill-rule="evenodd" clip-rule="evenodd" fill="#73BF44" d="M72.216,173.508c0.416-4.009-2.264-2.851-9.749-6.869
	c-3.79-2.032-7.082-4.181-10.106-6.564c-4.61-3.631-9.021-7.918-12.613-12.451c-3.58-4.519-7.507-3.461-1.999,3.199
	c1.617,1.957,2.432,2.959,3.813,4.545C46.831,161.414,67.096,175.564,72.216,173.508"/>
<path fill-rule="evenodd" clip-rule="evenodd" fill="#73BF44" d="M95.739,176.346c-11.3,4.307-4.836,20.233,5.981,16.412
	c3.739-1.32,6.7-5.996,5.233-10.938C105.821,178.005,100.805,174.42,95.739,176.346 M96.38,180.095
	c7.194-3.379,9.914,6.664,4.684,9.042c-4.887,2.224-9.011-2.26-7.322-6.629C94.744,179.916,94.687,180.891,96.38,180.095z"/>
<path fill-rule="evenodd" clip-rule="evenodd" fill="#73BF44" d="M12.316,91.679c-11.675,2.815-7.276,19.602,4.109,16.938
	c3.96-0.923,7.444-5.561,6.235-10.702C21.719,93.901,17.289,90.482,12.316,91.679 M13.58,94.965c6.691-1.03,8.159,9.455,1.26,10.333
	C8.157,106.152,6.488,96.059,13.58,94.965z"/>
<path fill-rule="evenodd" clip-rule="evenodd" fill="#73BF44" d="M181.131,91.671c-11.509,2.723-7.334,19.683,4.117,16.939
	c4.161-0.997,7.377-5.484,6.237-10.682C190.572,93.767,185.976,90.527,181.131,91.671 M182.407,94.961
	c6.666-0.988,8.063,9.418,1.263,10.335C176.937,106.202,175.25,96.021,182.407,94.961z"/>
<path fill-rule="evenodd" clip-rule="evenodd" fill="#73BF44" d="M96.055,7.375c-4.042,1.242-7.2,5.313-5.967,10.596
	c0.945,4.046,5.892,7.719,11.186,6.104C111.177,21.053,107.58,3.841,96.055,7.375 M93.309,15.125
	c0.322-6.02,10.78-6.325,10.488,0.809C103.516,22.838,92.912,22.567,93.309,15.125z"/>
<path fill-rule="evenodd" clip-rule="evenodd" fill="#73BF44" d="M175.854,87.315c2.409-6.693-7.685-25.633-12.614-32.756
	c-1.678-2.42-1.203-3.334-4.12-2.473c-1.161,3.038,7.755,11.988,12.083,26.735C173.302,85.988,171.869,88.408,175.854,87.315"/>
<path fill-rule="evenodd" clip-rule="evenodd" fill="#73BF44" d="M190.655,137.011c-3.772-0.261-2.378-0.465-5.465,6.199
	l-8.8,14.446c-0.909,1.155-1.928,2.171-2.753,3.263c-0.886,1.177-2.24,2.577-0.107,3.755c1.875,1.034,4.629-3.673,5.579-4.9
	C182.275,155.669,191.599,141.405,190.655,137.011"/>
<path fill-rule="evenodd" clip-rule="evenodd" fill="#73BF44" d="M132.087,185.958c4.855,1.478,26.414-12.633,27.709-16.629
	c-0.743-1.016-0.342-0.592-1.222-1.437c-1.785,0.063-12.974,9.365-20.582,12.801C132.385,183.228,131.26,182.466,132.087,185.958"/>
<path fill-rule="evenodd" clip-rule="evenodd" fill="#73BF44" d="M62.471,191.021c-1.135,1.037-1.688,0.896-0.026,2.418
	c1.463,1.345,13.702,4.385,16.1,4.87c2.873,0.58,5.776,1.612,7.048,0.33c3.128-3.162-8.709-4.269-10.923-4.817
	C71.933,193.145,63.873,189.735,62.471,191.021"/>
<path fill-rule="evenodd" clip-rule="evenodd" fill="#73BF44" d="M190.654,63.238c0.85-3.908-5.751-14.108-8.169-17.77
	c-1.601-2.421-1.869-4.71-4.935-4.154c-1.37,2.52,2.291,6.001,5.16,11.063c1.15,2.024,2.106,3.872,3.057,5.894
	C188.472,64.035,186.995,63.483,190.654,63.238"/>
<path fill-rule="evenodd" clip-rule="evenodd" fill="#73BF44" d="M37.37,30.921c0.712,0.981,0.364,0.614,1.206,1.439
	c1.711-0.066,10.3-7.333,15.957-10.304c2.609-1.371,4.603-1.489,3.973-4.794c-3.227-0.63-9.404,3.77-11.764,5.376
	C43.972,24.523,38.159,28.506,37.37,30.921"/>
<path fill-rule="evenodd" clip-rule="evenodd" fill="#73BF44" d="M5.514,133.773c2.935-1.521,1.496-2.055-0.226-8.355
	c-0.607-2.214-0.964-8.925-3.477-9.134c-3.758-0.318-0.041,9.711,1.025,13.355C3.705,132.607,3.23,133.015,5.514,133.773"/>
<path fill-rule="evenodd" clip-rule="evenodd" fill="#73BF44" d="M195.344,112.487l2.274,0.119
	c1.401-3.265,1.963-14.676,0.47-17.651c-4.256-0.549-2.754,3.465-2.835,7.561C195.192,105.672,194.168,110.264,195.344,112.487"/>
<path fill-rule="evenodd" clip-rule="evenodd" fill="#73BF44" d="M128.622,7.289c0.108-3.558,0.864-2.796-7.565-4.789
	c-3.274-0.774-8.672-2.509-9.723-0.543c-1.588,2.967,5.661,3.248,7.792,3.71C122.251,6.343,125.811,7.908,128.622,7.289"/>
<path fill-rule="evenodd" clip-rule="evenodd" fill="#73BF44" d="M18.913,130.229c-0.766,2.893,1.841,6.837,3.16,9.399
	c0.924,1.795,3.342,8.666,6,5.856c1.268-1.341-2.533-6.844-3.38-8.487C23.08,133.874,22.595,129.113,18.913,130.229"/>
<path fill-rule="evenodd" clip-rule="evenodd" fill="#73BF44" d="M163.321,172.027l-11.434,8.95
	c-2.05,2.585-0.738,6.125,9.664-2.964c1.177-1.027,2.639-1.652,3.651-3.032C166.574,173.112,166.069,170.554,163.321,172.027"/>
<path fill-rule="evenodd" clip-rule="evenodd" fill="#73BF44" d="M184.197,70.601l-0.154,2.478c0.092,0.7,0.465,1.804,0.638,2.362
	c1.438,4.67,2.712,16.143,5.586,11.375c0.074-0.117,0.138-0.296,0.188-0.44c0.48-1.423-1.169-7.702-1.547-9.142
	C187.973,73.696,187.867,69.052,184.197,70.601"/>
<path fill-rule="evenodd" clip-rule="evenodd" fill="#73BF44" d="M68.541,7.289c2.812,0.617,6.382-0.94,9.496-1.623
	c2.135-0.468,9.379-0.743,7.79-3.71c-0.895-1.675-2.706-0.908-4.703-0.507l-9.801,2.224C68.236,4.456,68.44,4.001,68.541,7.289"/>
<path fill-rule="evenodd" clip-rule="evenodd" fill="#73BF44" d="M187.052,126.782c-4.277-0.247-4.03,3.744-5.519,7.386
	c-0.83,2.026-4.854,7.72-2.104,9.094C182.306,144.7,187.578,129.48,187.052,126.782"/>
<path fill-rule="evenodd" clip-rule="evenodd" fill="#73BF44" d="M118.187,17.054c-0.142,3.001-0.257,2.744,2.628,3.589
	c1.698,0.494,3.297,0.872,5.054,1.481c3.093,1.069,6.403,3.287,9.151,2.447c0.082-3.321-0.86-3.193-7.313-5.477
	C125.664,18.37,119.752,16.104,118.187,17.054"/>
<path fill-rule="evenodd" clip-rule="evenodd" fill="#73BF44" d="M178.248,70.022c0.654-2.454-5.838-18.771-9.156-15.258
	c-1.271,1.344,2.528,6.842,3.376,8.488C174.079,66.379,174.571,71.136,178.248,70.022"/>
<path fill-rule="evenodd" clip-rule="evenodd" fill="#73BF44" d="M68.725,180.925c2.64,0.796,11.234,3.707,14.413,3.92
	c2.305,0.154-1.295,0.176,1.066,0.007l1.021-0.197c0.128-0.02,0.344-0.072,0.503-0.144c1.266-3.938-4.783-3.533-8.475-4.573
	C73.417,178.855,68.765,175.744,68.725,180.925"/>
<path fill-rule="evenodd" clip-rule="evenodd" fill="#73BF44" d="M151.953,44.324c0.016-0.031,1.733-0.179-0.509-2.961
	c-0.216-0.265-1.906-1.738-2.242-1.995c-1.985-1.502-3.765-3.736-5.196-2.384c-1.562,1.476-0.041,2.704,2.273,4.692
	C150.692,45.463,149.936,44.991,151.953,44.324"/>
<path fill-rule="evenodd" clip-rule="evenodd" fill="#73BF44" d="M131.743,178.563c2.282,0.438,11.491-2.951,9.459-5.854
	c-0.59-0.429,0.531-0.36-1.008-0.594c-1.41-0.216-3.494,1.294-4.733,1.911C132.516,175.485,131.216,174.994,131.743,178.563"/>
<path fill-rule="evenodd" clip-rule="evenodd" fill="#73BF44" d="M57.109,24.938c-2.053,0.759-3.848,1.848-5.68,3
	c-2.917,1.837-3.869,7.377,6.025,0.622C60.48,26.493,59.608,24.02,57.109,24.938"/>
<path fill-rule="evenodd" clip-rule="evenodd" fill="#73BF44" d="M15.722,60.042c3.454,0.683,3.736-1.959,5.029-4.347
	c1.664-3.078,3.447-4.859-1.2-5.157C17.326,54.431,15.176,57.325,15.722,60.042"/>
<path fill-rule="evenodd" clip-rule="evenodd" fill="#73BF44" d="M45.21,44.324c2.101,0.695,1.23,0.688,2.97-0.514
	c1.617-1.116,7.247-4.681,4.976-6.826c-1.463-1.383-3.341,1.018-4.838,2.137C46.757,40.289,44.123,41.893,45.21,44.324"/>
<path fill-rule="evenodd" clip-rule="evenodd" fill="#73BF44" d="M178.17,53.854c0.272-2.429-0.992-3.649-2.197-5.46
	c-0.964-1.447-2.728-5.201-4.652-3.227c-1.48,1.521,0.94,4.064,1.854,5.439C174.781,53.021,175.114,54.597,178.17,53.854"/>
<path fill-rule="evenodd" clip-rule="evenodd" fill="#73BF44" d="M4.604,76.952c0.823-2.6,2.852-7.864,2.114-10.198l-1.793-0.277
	c-1.866,1.5-1.36,1.741-2.64,5.964C1.326,75.61,0.851,76.855,4.604,76.952"/>
<path fill-rule="evenodd" clip-rule="evenodd" fill="#73BF44" d="M124.946,26.745c-0.323,3.145,0.533,2.683,3.642,3.998
	c2.135,0.903,3.718,2.347,5.802,1.371C137.419,29.176,126.319,25.466,124.946,26.745"/>
<path fill-rule="evenodd" clip-rule="evenodd" fill="#73BF44" d="M111.44,184.511c1.989,0.896,3.56,0.213,6.636-0.48
	c1.196-0.271,5.273-1.032,3.113-3.284c-1.381-1.443-4.32-0.053-6.048,0.308C112.085,181.687,110.428,181.424,111.44,184.511"/>
<path fill-rule="evenodd" clip-rule="evenodd" fill="#73BF44" d="M22.313,35.665c-3.276,1.859-8.548,11.497-2.882,8.693
	c0.008-0.006,5.337-5.571,5.083-7.441C24.32,35.497,23.265,35.125,22.313,35.665"/>
<path fill-rule="evenodd" clip-rule="evenodd" fill="#73BF44" d="M179.672,126.745c1.728-1.43,1.552-2.114,2.095-4.263
	c0.226-0.877,0.62-2.153,0.756-2.88c0.404-2.182,0.179-2.156-0.167-3.025c-3.377-1.317-3.067,1.38-3.829,4.443
	C177.705,124.333,176.206,125.908,179.672,126.745"/>
<path fill-rule="evenodd" clip-rule="evenodd" fill="#73BF44" d="M138.915,9.914c-0.825,2.796,1.127,2.833,3.493,4.048
	c1.675,0.859,4.21,2.92,5.665,1.408c1.959-2.043-1.743-3.392-3.014-4.041C142.964,10.26,141.032,8.68,138.915,9.914"/>
<path fill-rule="evenodd" clip-rule="evenodd" fill="#73BF44" d="M125.789,195.823c1.555,0.441,8.566-0.885,9.824-3.824
	c-1.585-2.794-3.034-1.301-6.232-0.206c-0.86,0.295-3.02,0.946-3.491,1.311C123.731,194.769,125.749,195.76,125.789,195.823"/>
<path fill-rule="evenodd" clip-rule="evenodd" fill="#73BF44" d="M21.304,112.934c-0.724,2.02,0.75,12.664,3.826,9.79
	c1.557-1.454,0.1-4.324-0.299-6.093C24.145,113.579,24.557,112.049,21.304,112.934"/>
<path fill-rule="evenodd" clip-rule="evenodd" fill="#73BF44" d="M107.152,197.165c-1.919-0.909-13.543-1.066-9.876,2.597
	C97.566,200.05,109.066,202.214,107.152,197.165"/>
<path fill-rule="evenodd" clip-rule="evenodd" fill="#73BF44" d="M7.127,87.211c3.004,1.066,2.813-0.752,3.359-3.654
	c0.464-2.464,1.225-4.626,0.162-6.461l-1.923-0.027c-0.953,1.392-2.268,6.765-2.071,8.693C6.763,86.846,6.883,86.735,7.127,87.211"
	/>
<path fill-rule="evenodd" clip-rule="evenodd" fill="#73BF44" d="M111.494,8.672c-1.063,3.003,0.753,2.814,3.657,3.357
	c2.462,0.465,4.626,1.227,6.458,0.163l0.027-1.924c-1.442-0.987-5.064-1.722-7.01-1.969c-0.705-0.086-0.972-0.173-1.684-0.102
	C111.858,8.307,111.97,8.427,111.494,8.672"/>
<path fill-rule="evenodd" clip-rule="evenodd" fill="#73BF44" d="M79.013,24.258c-1.798-0.415-12.763,1.738-9.689,4.867
	c1.325,1.347,4.508-0.446,6.204-0.995C78.359,27.212,79.421,27.193,79.013,24.258"/>
<path fill-rule="evenodd" clip-rule="evenodd" fill="#73BF44" d="M25.772,57.642c3.437-0.14,6.464-7.149,6.472-7.199
	c0.45-3.088,0.634,3.182-0.144-1.381c-0.02-0.108-0.092-0.315-0.162-0.465c-2.763-1.081-3.583,1.638-4.771,3.374
	C25.498,54.413,24.017,55.35,25.772,57.642"/>
<path fill-rule="evenodd" clip-rule="evenodd" fill="#73BF44" d="M174.447,119.694c-2.936-0.41-2.951,0.65-3.87,3.484
	c-0.588,1.816-2.313,4.909-0.998,6.203C172.709,132.456,174.864,121.489,174.447,119.694"/>
<path fill-rule="evenodd" clip-rule="evenodd" fill="#73BF44" d="M158.574,32.357c0.925-0.861,0.451-0.354,1.219-1.436
	c-0.528-1.644-6.771-7.968-8.722-5.936C148.641,27.52,157.604,32.326,158.574,32.357"/>
<polygon fill-rule="evenodd" clip-rule="evenodd" fill="#73BF44" points="97.169,0.163 97.099,3.059 99.97,3.156 100.095,0.26 "/>
<polygon fill-rule="evenodd" clip-rule="evenodd" fill="#73BF44" points="43.442,172.579 43.346,175.518 46.241,175.568 
	46.339,172.718 "/>
<polygon fill-rule="evenodd" clip-rule="evenodd" fill="#73BF44" points="-0.702,87.844 -0.774,90.774 2.097,90.837 2.217,87.975 
	"/>
<polygon fill-rule="evenodd" clip-rule="evenodd" fill="#73BF44" points="23.231,152.372 23.086,155.26 26.026,155.364 
	26.08,152.463 "/>
<path fill-rule="evenodd" clip-rule="evenodd" fill="#73BF44" d="M25.074,70.792l-0.169,2.757l2.718-0.027
	C28.946,70.325,26.174,70.118,25.074,70.792"/>
<path fill-rule="evenodd" clip-rule="evenodd" fill="#73BF44" d="M39.378,162.427c1.671,0.276,0.939,0.468,2.229-0.63l-0.012-2.171
	c-0.98-0.113-1.791-0.42-2.552,0.323C37.396,161.561,39.361,162.405,39.378,162.427"/>
<path fill-rule="evenodd" clip-rule="evenodd" fill="#73BF44" d="M180.196,83.667c4.484,1.139,2.091-4.431,0.064-2.656
	c-0.658,0.571-0.468-0.836-0.597,1.196C179.482,85.048,179.64,82.688,180.196,83.667"/>
<path fill-rule="evenodd" clip-rule="evenodd" fill="#73BF44" d="M37.729,54.835c1.871-3.069-1-3.434-1.915-2.56
	C34.464,53.562,35.33,55.733,37.729,54.835"/>
<path fill-rule="evenodd" clip-rule="evenodd" fill="#73BF44" d="M125.427,171.102l-0.418,2.595l2.91,0.03
	C128.346,170.883,128.378,170.221,125.427,171.102"/>
<path fill-rule="evenodd" clip-rule="evenodd" fill="#73BF44" d="M39.379,37.824c-1.685,1.987-0.846,3.179,2.165,2.801l0.21-2.158
	C40.318,37.358,41.05,37.55,39.379,37.824"/>
<path fill-rule="evenodd" clip-rule="evenodd" fill="#73BF44" d="M16.967,116.586c-2.253-0.576-3.494,1.008-1.852,2.578
	c0.184,0.179,2.231,1.265,2.382-1.119C17.677,115.203,17.523,117.563,16.967,116.586"/>
<path fill-rule="evenodd" clip-rule="evenodd" fill="#73BF44" d="M168.223,30.885c-1.294,3.547,3.687,3.447,2.604,0.037
	c-0.614-0.386,0.571-0.664-1.295-0.557C166.97,30.512,169.291,30.247,168.223,30.885"/>
<path fill-rule="evenodd" clip-rule="evenodd" fill="#73BF44" d="M111.581,175.286c-1.436,3.51,3.733,3.465,2.557,0.01
	c-0.59-0.364,0.515-0.662-1.275-0.537C110.289,174.932,112.718,174.58,111.581,175.286"/>
<path fill-rule="evenodd" clip-rule="evenodd" fill="#73BF44" d="M69.19,21.378c0.806,0.527-1.199,0.775,1.322,0.578
	c2.431-0.187,0.127,0.189,1.336-0.581C72.817,17.952,68.026,18.015,69.19,21.378"/>
<path fill-rule="evenodd" clip-rule="evenodd" fill="#73BF44" d="M37,21.375c-0.867,3.353,3.687,3.408,2.697-0.008
	c-0.852-0.56,1.239-0.798-1.346-0.591C36.2,20.951,37.919,20.785,37,21.375"/>
<path fill-rule="evenodd" clip-rule="evenodd" fill="#73BF44" d="M195.15,126.3l0.271-2.571
	C191.065,122.815,190.787,127.003,195.15,126.3"/>
<path fill-rule="evenodd" clip-rule="evenodd" fill="#73BF44" d="M37,178.874c0.643,0.415-0.701,0.746,1.352,0.599
	c1.153-0.081,0.778-0.217,1.346-0.589C40.763,175.499,36.058,175.533,37,178.874"/>
<path fill-rule="evenodd" clip-rule="evenodd" fill="#73BF44" d="M157.467,21.365c-1.058,3.335,3.575,3.423,2.696,0.011
	c-0.644-0.414,0.7-0.745-1.352-0.599C157.661,20.861,158.034,20.995,157.467,21.365"/>
<path fill-rule="evenodd" clip-rule="evenodd" fill="#73BF44" d="M155.556,38.453l0.01,2.174c2.7,0.313,4.385-1.576,2.217-2.804
	C155.688,37.482,156.958,37.639,155.556,38.453"/>
<path fill-rule="evenodd" clip-rule="evenodd" fill="#73BF44" d="M48.74,14.639c0.845,1.215,0.732,1.672,2.711,0.819
	c0.825-1.82,0.274-2.156-1.193-2.827C48.548,13.474,49.148,11.921,48.74,14.639"/>
<path fill-rule="evenodd" clip-rule="evenodd" fill="#73BF44" d="M50.257,187.621c1.468-0.671,2.019-1.007,1.193-2.829
	c-1.256-0.542-1.817-0.769-2.512,0.475C48.085,186.796,49.641,187.317,50.257,187.621"/>
<path fill-rule="evenodd" clip-rule="evenodd" fill="#73BF44" d="M27.883,133.902c-0.447,3.86,4.632,2.652,2.304-0.662
	C27.917,132.902,29.309,133.021,27.883,133.902"/>
<path fill-rule="evenodd" clip-rule="evenodd" fill="#73BF44" d="M69.322,185.708c-1.91,3.639,2.239,3.701,2.428,1.523
	c0.236-2.747-0.02-0.583-0.476-1.452L69.322,185.708z"/>
<path fill-rule="evenodd" clip-rule="evenodd" fill="#73BF44" d="M9.659,55.978c1.958,1.223,0.883,1.013,2.578,0.059l0.205-1.881
	C10.108,52.951,8.871,53.749,9.659,55.978"/>
<path fill-rule="evenodd" clip-rule="evenodd" fill="#73BF44" d="M9.659,144.273c-0.747,2.265,0.441,3.031,2.532,1.819l0.278-1.875
	C10.542,143.259,11.618,143.049,9.659,144.273"/>
<path fill-rule="evenodd" clip-rule="evenodd" fill="#73BF44" d="M172.945,136.62c-0.902,2.097-0.725,0.409-0.293,2.785l2.286,0.194
	c1.052-2.125,0.803-1.031,0.07-2.555L172.945,136.62z"/>
<path fill-rule="evenodd" clip-rule="evenodd" fill="#73BF44" d="M58.347,182.785l0.131-2.431
	C54.291,179.4,54.299,183.896,58.347,182.785"/>
<polygon fill-rule="evenodd" clip-rule="evenodd" fill="#73BF44" points="97.195,17.094 99.769,17.207 99.926,14.345 97.435,14.237 
	"/>
<polygon fill-rule="evenodd" clip-rule="evenodd" fill="#73BF44" points="181.613,98.738 181.499,101.313 184.366,101.473 
	184.471,98.979 "/>
<polygon fill-rule="evenodd" clip-rule="evenodd" fill="#73BF44" points="12.8,98.781 12.693,101.272 15.551,101.511 15.665,98.941 
	"/>
<polygon fill-rule="evenodd" clip-rule="evenodd" fill="#73BF44" points="97.238,185.905 99.729,186.013 99.967,183.158 
	97.398,183.043 "/>
<polygon fill-rule="evenodd" clip-rule="evenodd" fill="#73BF44" points="27.648,42.016 30.308,42.155 30.493,39.524 27.792,39.296 
	"/>
<polygon fill-rule="evenodd" clip-rule="evenodd" fill="#73BF44" points="166.671,160.728 169.369,160.953 169.514,158.234 
	166.854,158.096 "/>
<path fill-rule="evenodd" clip-rule="evenodd" fill="#73BF44" d="M7.303,115.701l2.339,0.086
	C10.142,110.918,5.571,112.506,7.303,115.701"/>
<path fill-rule="evenodd" clip-rule="evenodd" fill="#58595B" d="M58.938,71.443c0,13.42,1.253,20.417,6.498,32.218
	c1.079,2.426,3.9,6.96,5.455,9.03c7.295,9.713,16.412,15.961,28.099,19.859c9.973,3.326,23.428,4.714,33.484,2.187
	c4.735-1.192,10.139-3.182,10.139-9.094c0-5.718-0.695-7.583-2.782-12.707c-1.319-3.243-1.657-3.379-2.883-5.856
	c-0.564-1.142-1.003-1.834-1.627-2.87c-4.159-6.909-6.407-9.527-11.228-15.497c-2.243-2.784-10.98-12.064-13.058-13.668
	c-1.024-0.79-1.451-1.417-2.354-2.139l-7.387-6.102c-3.089-2.413-7.127-5.161-10.526-7.208c-5.246-3.161-13.536-7.383-19.591-7.383
	c-5.114,0-7.984,1.021-10.026,6.708C59.963,62.231,58.938,66.898,58.938,71.443 M70.677,67.198c0-5.613,4.083-6.755,9.386-5.39
	c7.548,1.943,20.875,10.945,26.519,16.69l2.121,1.876c2.716,2.39,5.215,5.354,7.75,7.986l5.319,6.422
	c3.849,5.122,15.694,21.139,10.647,27.666c-4.673,6.047-21.582-5.096-24.42-7.148c-6.042-4.371-8.241-6.576-13.419-11.31
	l-0.78-0.721c-0.037-0.034-0.091-0.084-0.131-0.118c-2.75-2.422-8.749-9.325-11.039-12.191c-1.116-1.399-1.983-2.675-3.066-4.174
	C76.708,82.837,70.677,73.455,70.677,67.198z"/>
<path fill-rule="evenodd" clip-rule="evenodd" fill="#58595B" d="M52.195,109.658c0,5.691,0.282,10.542,2.247,15.486
	c1.109,2.79,1.917,4.665,3.853,7.139c1.769,2.258,3.146,3.648,5.683,5.305c1.598,1.043,3.161,1.749,4.955,2.539
	c7.258,3.2,18.563,3.018,26.41,1.441c1.13-0.228,7.58-1.446,8.305-2.436c-3.304-0.074-14.73-4.742-17.532-6.445
	c-7.505-4.568-8.06-4.565-15.254-11.723c-4.938-4.912-10.115-14.041-12.45-20.52c-0.539-1.494-1.048-2.749-1.525-4.47l-1.146-4.099
	c-0.366-1.11,0.273,0.667-0.137-0.362l-0.161-0.338c-0.737,3.163-1.3,4.174-2.187,8.553
	C52.64,102.779,52.195,106.101,52.195,109.658"/>
<path fill-rule="evenodd" clip-rule="evenodd" fill="#58595B" d="M85.415,88.429c0.037,0.044,0.099,0.056,0.113,0.135l4.527,5.715
	c2.854,3.678,9.859,10.23,13.337,12.888c0.932,0.708,2.042,1.602,3.001,2.242c1.522-0.807,2.52-1.846,3.46-3.287
	c5.563-8.559-4.39-22.688-15.447-22.688C90.004,83.433,87.196,85.767,85.415,88.429"/>
<path fill-rule="evenodd" clip-rule="evenodd" fill="#58595B" d="M104.398,60.453c4.53,0,3.505-5.197,3.494-8.243
	c-0.008-2.177,0.261-3.316,0.249-5.492c-0.016-5.054,0.997-8.992-3.743-8.992c-1,0-1.835,0.622-2.271,1.228
	c-1.192,1.657-0.735,7.443-0.728,10.26C101.409,53.3,99.677,60.453,104.398,60.453"/>
<path fill-rule="evenodd" clip-rule="evenodd" fill="#58595B" d="M134.369,89.677c0,2.155,1.112,3.746,2.997,3.746h16.734
	c3.864,0,4.354-6.741-0.75-6.741h-15.235C136.356,86.681,134.369,88.015,134.369,89.677"/>
<path fill-rule="evenodd" clip-rule="evenodd" fill="#58595B" d="M124.13,66.948c0,2.314,1.023,3.747,3.494,3.747
	c1.847,0,6.367-5.243,7.806-6.682c1.271-1.268,2.355-2.353,3.623-3.623c1.258-1.257,4.777-3.871,2.14-6.759
	c-2.487-2.72-5.695,0.824-6.887,2.017C132.536,57.417,124.13,64.995,124.13,66.948"/>
</svg>
