<?xml version="1.0" encoding="utf-8"?>
<!-- Generator: Adobe Illustrator 16.0.0, SVG Export Plug-In . SVG Version: 6.00 Build 0)  -->
<!DOCTYPE svg PUBLIC "-//W3C//DTD SVG 1.1//EN" "http://www.w3.org/Graphics/SVG/1.1/DTD/svg11.dtd">
<svg version="1.1" xmlns="http://www.w3.org/2000/svg" xmlns:xlink="http://www.w3.org/1999/xlink" x="0px" y="0px" width="200px"
	 height="200px" viewBox="0 0 200 200" enable-background="new 0 0 200 200" xml:space="preserve">
<g id="Layer_1">
	<path fill="#05D0C4" d="M189.461,103.857c1.332-2.175,2.004-4.691,2.004-7.302c0-10.358-8.891-15.023-18.102-15.452
		c-3.495-0.166-7.054,0.082-10.349,1.067c-0.397-2.752-1.287-5.398-2.508-7.909c1.457-2.879,2.326-5.998,2.326-9.293
		c0-6.233-3.929-11.164-8.319-15.132c-3.11-2.809-6.572-4.914-10.317-6.289c0.886-2.404,1.426-4.91,1.426-7.482
		c0-7.826-4.956-13.749-12.31-15.966c-12.206-3.681-24.973-0.779-37.095,1.602c-21.707,3.693-50.057-3.946-69.153,8.798
		C13.162,39.78,9.603,55.996,9.603,71.725c0,6.802,4.45,11.474,9.738,14.812c-1.096,2.191-2.179,4.393-3.259,6.584
		c-3.57,7.238-5.624,15.057-5.104,23.167l0.05,0.763l0.15,0.749c15.487,77.713,132.224,84.313,147.007,20.769l1.626,2.915
		l4.495,1.337c3.53,1.049,7.218,0.554,10.434-1.187c5.19-2.814,7.378-7.28,7.558-12.144c4.011-0.889,7.528-3.078,9.637-6.93
		c1.3-2.296,1.656-4.691,1.656-7.336C193.589,110.787,191.986,107.013,189.461,103.857z M151.602,86.647
		c-0.156,0.59-0.545,1.353-1.175,1.353H147c0,0,0,0.177,0,0.294c0,0.038,0,0.489,0,1.352c-1,0.822-1.223,1.233-2.514,1.233
		c-1.021,0-3.388-0.431-6.87-1.293c-4.191-0.745-9.358-1.057-15.388-0.939c-2.273,2.114-4.336,6.011-6.137,11.692
		c5.403-2.585,9.541-3.544,12.438-2.88c2.468,0.55,3.691,2.035,3.691,4.463c0,1.529-1.253,2.958-3.761,4.29l-7.579,4.053
		c-2.193,1.489-3.546,3.212-4.056,5.17c-0.39,1.489-0.746,2.622-1.055,3.408c3.992-0.081,8.595-0.452,13.803-1.118
		c5.168-0.625,8.01-0.645,8.517-0.057c0.668,0.818,1.158,2.624,1.471,5.402c2.622-0.155,4.857-0.232,6.694-0.232
		c1.06,0,1.706,0.586,1.939,1.76c0,63.62-111.812,60.657-125.714-9.104c-0.354-5.518,0.958-11.292,3.938-17.331
		c16.042-32.557-5.289-11.921-5.289-26.493c0-51.526,42.491-32.786,77.311-38.713c9.698-1.907,21.845-4.81,31.546-1.878
		c2.74,0.82,4.111,2.466,4.111,4.934c0,2.622-1.51,6.049-4.523,10.281c-1.529,2.155-3.133,3.856-4.819,5.109
		c1.528,1.332,2.295,3.113,2.295,5.346c0.508-0.666,1.096-1.293,1.76-1.879c1.29-1.174,2.761-1.762,4.405-1.762
		c5.172,0,9.695,1.743,13.574,5.228c3.012,2.742,4.52,4.933,4.52,6.581c0,1.76-0.664,3.64-1.996,5.639
		c-1.333,1.997-1.997,3.151-1.997,3.466l2.174,3.993c1.486,2.626,2.231,5.053,2.231,7.283
		C151.72,85.962,151.681,86.412,151.602,86.647z M163.084,94.971c1.825-1.825,5.07-2.63,9.741-2.411
		c4.742,0.221,7.113,1.532,7.113,3.94c0,0.693-0.182,1.221-0.547,1.585l-4.378,0.057c-1.057,0-3.026-0.329-5.907-0.985
		c-2.92-0.693-4.963-1.312-6.131-1.859L163.084,94.971z M169.249,131.445c-0.61,0.327-1.164,0.42-1.658,0.272l-2.135-3.82
		c-0.504-0.931-1.151-2.82-1.95-5.666c-0.78-2.896-1.211-4.986-1.287-6.274l0.345-0.059c2.471,0.732,4.722,3.205,6.756,7.415
		C171.386,127.587,171.362,130.297,169.249,131.445z M181.873,116.872c-0.501,1.012-1.858,1.513-4.063,1.513
		c-2.646,0-6.302-1.827-10.963-5.483c-4.033-3.212-6.838-6.018-8.414-8.409c6.365-1.389,12.069-0.569,17.107,2.459
		c4.35,2.579,6.523,5.322,6.523,8.219C182.063,116.117,182.002,116.683,181.873,116.872z"/>
	<g>
		<path fill="#73BE44" d="M189.461,103.857c1.332-2.176,2.004-4.691,2.004-7.302c0-10.357-8.891-15.023-18.102-15.452
			c-3.495-0.166-7.051,0.082-10.35,1.065c-0.396-2.75-1.286-5.396-2.507-7.908c1.457-2.878,2.326-5.997,2.326-9.292
			c0-6.234-3.929-11.165-8.319-15.133c-3.112-2.809-6.572-4.916-10.317-6.289c0.886-2.403,1.426-4.91,1.426-7.482
			c0-7.826-4.956-13.75-12.31-15.966c-12.206-3.679-24.973-0.781-37.095,1.602c-10.906,1.856-23.491,0.851-35.736,1.007
			c3.39,3.688,6.608,7.538,9.646,11.531c9.355,0.127,19.102,0.286,28.312-1.282c9.698-1.907,21.845-4.81,31.546-1.878
			c2.74,0.82,4.111,2.466,4.111,4.934c0,2.622-1.51,6.049-4.523,10.281c-1.529,2.155-3.133,3.856-4.819,5.109
			c1.528,1.332,2.295,3.113,2.295,5.346c0.508-0.666,1.096-1.293,1.76-1.879c1.29-1.174,2.761-1.762,4.405-1.762
			c5.172,0,9.695,1.743,13.574,5.228c3.012,2.742,4.52,4.933,4.52,6.581c0,1.76-0.664,3.64-1.996,5.639
			c-1.333,1.997-1.997,3.151-1.997,3.466l2.174,3.993c1.486,2.626,2.231,5.054,2.231,7.283c0,0.667-0.039,1.115-0.118,1.351
			c-0.156,0.59-0.545,1.353-1.175,1.353H147c0,0,0,0.177,0,0.294c0,0.038,0,0.489,0,1.352c-1,0.822-1.223,1.233-2.514,1.233
			c-1.021,0-3.388-0.431-6.87-1.293c-4.191-0.745-9.358-1.057-15.388-0.939c-2.273,2.114-4.336,6.011-6.137,11.692
			c5.403-2.585,9.541-3.544,12.438-2.88c2.468,0.55,3.691,2.035,3.691,4.463c0,1.529-1.253,2.958-3.761,4.29l-7.579,4.053
			c-2.193,1.489-3.546,3.212-4.056,5.17c-0.39,1.489-0.746,2.622-1.055,3.408c3.992-0.081,8.595-0.452,13.803-1.118
			c5.168-0.625,8.01-0.645,8.517-0.057c0.668,0.818,1.158,2.624,1.471,5.402c2.622-0.155,4.857-0.232,6.694-0.232
			c1.06,0,1.706,0.586,1.939,1.76c0,28.995-23.226,44.153-49.821,45.468c-0.956,3.916-2.051,7.776-3.287,11.575
			c29.318-0.192,56.467-14.569,63.097-43.072l1.626,2.915l4.497,1.337c3.528,1.05,7.216,0.554,10.432-1.187
			c5.19-2.813,7.378-7.28,7.558-12.144c4.011-0.889,7.526-3.078,9.637-6.93c1.3-2.296,1.656-4.691,1.656-7.336
			C193.589,110.787,191.986,107.014,189.461,103.857z M163.084,94.971c1.825-1.825,5.07-2.63,9.741-2.411
			c4.742,0.221,7.113,1.532,7.113,3.94c0,0.693-0.182,1.221-0.547,1.585l-4.378,0.057c-1.057,0-3.026-0.329-5.907-0.985
			c-2.92-0.693-4.963-1.312-6.131-1.859L163.084,94.971z M169.249,131.445c-0.61,0.327-1.164,0.42-1.658,0.272l-2.135-3.82
			c-0.504-0.931-1.151-2.82-1.95-5.666c-0.78-2.896-1.211-4.986-1.287-6.274l0.345-0.059c2.471,0.732,4.722,3.205,6.756,7.415
			C171.386,127.587,171.362,130.297,169.249,131.445z M181.873,116.872c-0.501,1.012-1.858,1.513-4.063,1.513
			c-2.646,0-6.302-1.827-10.963-5.483c-4.033-3.212-6.838-6.018-8.414-8.409c6.365-1.389,12.069-0.569,17.107,2.459
			c4.35,2.579,6.523,5.322,6.523,8.219C182.063,116.117,182.002,116.683,181.873,116.872z"/>
	</g>
</g>
<g id="Layer_2">
</g>
</svg>
