<?xml version="1.0" encoding="utf-8"?>
<!-- Generator: Adobe Illustrator 16.0.0, SVG Export Plug-In . SVG Version: 6.00 Build 0)  -->
<!DOCTYPE svg PUBLIC "-//W3C//DTD SVG 1.1//EN" "http://www.w3.org/Graphics/SVG/1.1/DTD/svg11.dtd">
<svg version="1.1" id="Layer_1" xmlns="http://www.w3.org/2000/svg" xmlns:xlink="http://www.w3.org/1999/xlink" x="0px" y="0px"
	 width="200px" height="176.688px" viewBox="0 13.862 200 176.688" enable-background="new 0 13.862 200 176.688"
	 xml:space="preserve">
<linearGradient id="SVGID_1_" gradientUnits="userSpaceOnUse" x1="206.4355" y1="-197.2056" x2="405.501" y2="-197.2056" gradientTransform="matrix(1 0 0 -1 -206 -95)">
	<stop  offset="0.0538" style="stop-color:#00A551"/>
	<stop  offset="1" style="stop-color:#73BE44"/>
</linearGradient>
<path fill="url(#SVGID_1_)" d="M195.038,106.381c1.439-2.354,2.168-5.077,2.168-7.901c0-11.209-9.62-16.257-19.584-16.719
	c-3.781-0.179-7.631,0.089-11.199,1.153c-0.429-2.977-1.393-5.841-2.712-8.555c1.576-3.117,2.521-6.49,2.521-10.055
	c0-6.748-4.254-12.081-9.006-16.374c-3.363-3.039-7.112-5.317-11.158-6.804c0.954-2.6,1.538-5.312,1.538-8.093
	c0-8.47-5.359-14.878-13.316-17.276c-13.206-3.982-27.022-0.843-40.137,1.734c-23.486,3.995-54.16-4.27-74.821,9.519
	C4.285,37.049,0.435,54.594,0.435,71.613c0,7.36,4.813,12.414,10.537,16.026c-1.188,2.372-2.358,4.751-3.527,7.124
	c-3.863,7.832-6.084,16.29-5.521,25.068l0.053,0.823l0.16,0.811c16.758,84.08,143.061,91.22,159.061,22.473l1.757,3.152l4.865,1.445
	c3.818,1.138,7.81,0.599,11.292-1.284c5.61-3.043,7.978-7.877,8.171-13.136c4.342-0.963,8.147-3.33,10.431-7.497
	c1.405-2.489,1.788-5.076,1.788-7.938C199.501,113.879,197.769,109.795,195.038,106.381z M154.079,87.761
	c-0.176,0.636-0.595,1.124-1.274,1.464h-4.198c0,0.083,0,0.189,0,0.316c0,0.042,0,0.529,0,1.462
	c-0.252,0.889-1.076,1.333-2.476,1.333c-1.102,0-3.541-0.466-7.309-1.398c-4.537-0.807-10.067-1.144-16.591-1.017
	c-2.46,2.29-4.663,6.506-6.611,12.65c5.846-2.796,10.339-3.833,13.472-3.114c2.673,0.593,4.006,2.201,4.006,4.828
	c0,1.654-1.354,3.2-4.066,4.643l-8.2,4.384c-2.369,1.609-3.835,3.474-4.383,5.593c-0.424,1.613-0.809,2.84-1.144,3.69
	c4.32-0.089,9.301-0.49,14.936-1.21c5.596-0.678,8.667-0.697,9.216-0.063c0.72,0.886,1.252,2.84,1.589,5.85
	c2.837-0.171,5.256-0.257,7.244-0.257c1.147,0,1.848,0.636,2.099,1.906c0,68.835-120.978,65.633-136.022-9.85
	c-0.382-5.97,1.037-12.218,4.261-18.75c17.357-35.227-5.722-12.9-5.722-28.668c0-55.749,45.974-35.473,83.648-41.886
	c10.496-2.061,23.636-5.204,34.131-2.031c2.968,0.887,4.45,2.667,4.45,5.336c0,2.838-1.63,6.548-4.895,11.125
	c-1.651,2.332-3.391,4.173-5.212,5.528c1.651,1.442,2.48,3.37,2.48,5.786c0.55-0.722,1.188-1.399,1.905-2.034
	c1.397-1.271,2.985-1.906,4.767-1.906c5.595,0,10.488,1.885,14.686,5.656c3.261,2.966,4.894,5.336,4.894,7.118
	c0,1.905-0.722,3.94-2.163,6.103c-1.439,2.162-2.158,3.411-2.158,3.751l2.352,4.321c1.609,2.84,2.414,5.465,2.414,7.879
	C154.204,87.018,154.161,87.505,154.079,87.761z M166.499,96.763c1.975-1.975,5.486-2.845,10.54-2.606
	c5.132,0.239,7.697,1.659,7.697,4.263c0,0.75-0.198,1.322-0.592,1.718l-4.738,0.059c-1.144,0-3.274-0.355-6.394-1.065
	c-3.155-0.751-5.371-1.42-6.63-2.014L166.499,96.763z M173.167,136.229c-0.657,0.354-1.259,0.455-1.794,0.296l-2.307-4.135
	c-0.546-1.007-1.251-3.053-2.109-6.132c-0.847-3.132-1.313-5.396-1.393-6.787l0.369-0.066c2.674,0.797,5.112,3.471,7.31,8.024
	C175.482,132.055,175.458,134.986,173.167,136.229z M186.828,120.461c-0.542,1.093-2.01,1.636-4.397,1.636
	c-2.862,0-6.816-1.977-11.863-5.933c-4.361-3.475-7.396-6.509-9.1-9.099c6.884-1.501,13.057-0.617,18.507,2.659
	c4.708,2.793,7.058,5.761,7.058,8.895C187.032,119.645,186.968,120.257,186.828,120.461z"/>
</svg>
