<?xml version="1.0" encoding="utf-8"?>
<!-- Generator: Adobe Illustrator 16.0.0, SVG Export Plug-In . SVG Version: 6.00 Build 0)  -->
<!DOCTYPE svg PUBLIC "-//W3C//DTD SVG 1.1//EN" "http://www.w3.org/Graphics/SVG/1.1/DTD/svg11.dtd">
<svg version="1.1" id="Layer_1" xmlns="http://www.w3.org/2000/svg" xmlns:xlink="http://www.w3.org/1999/xlink" x="0px" y="0px"
	 width="200px" height="200px" viewBox="0 0 200 200" enable-background="new 0 0 200 200" xml:space="preserve">
<path fill="#FFFFFF" d="M193.515,113.592c-0.341-3.738-1.844-6.974-4.054-9.734c1.332-2.175,2.004-4.691,2.004-7.302
	c0-9.711-7.814-14.418-16.381-15.321c-0.57-0.06-1.145-0.104-1.721-0.13c-0.437-0.021-0.875-0.035-1.313-0.042
	c-0.491-0.008-0.982-0.005-1.473,0.006c-2.576,0.056-5.14,0.379-7.563,1.102c-0.199-1.375-0.521-2.725-0.945-4.043
	s-0.952-2.608-1.563-3.864c0.729-1.439,1.311-2.938,1.71-4.49c0.398-1.551,0.616-3.155,0.616-4.802v0v0
	c0-4.286-1.856-7.955-4.444-11.12c-1.176-1.438-2.503-2.772-3.875-4.013c-1.438-1.299-2.955-2.44-4.537-3.436
	c-1.839-1.157-3.767-2.114-5.78-2.853c0.886-2.403,1.426-4.91,1.426-7.482c0-0.489-0.02-0.971-0.058-1.445
	c-0.571-7.107-5.358-12.444-12.252-14.521c-6.104-1.84-12.346-2.035-18.579-1.472c-6.232,0.563-12.455,1.882-18.516,3.074
	c-1.352,0.23-2.729,0.416-4.127,0.565c-0.006,0-0.011,0.001-0.017,0.002c-0.693,0.074-1.391,0.139-2.094,0.196
	c-0.01,0.001-0.019,0.002-0.029,0.003c-0.703,0.057-1.411,0.105-2.123,0.147c-0.01,0-0.021,0.001-0.031,0.002
	c-0.684,0.04-1.372,0.073-2.063,0.101c-0.04,0.001-0.08,0.108-0.12,0.109C84.891,22.856,84.164,23,83.434,23
	c-0.008,0-0.016,0-0.023,0c-5.192,0-10.561-0.118-15.938-0.179c-0.338-0.004-0.676-0.059-1.014-0.062
	c-0.427-0.004-0.854-0.035-1.281-0.037c-0.423-0.002-0.845-0.015-1.268-0.016c-0.338-0.001-0.677-0.01-1.015-0.009
	c-0.483,0.001-0.966,0.149-1.448,0.153C61.168,22.853,60.888,23,60.609,23c-0.042,0-0.085,0-0.128,0c0,0,0.001-0.145,0.001-0.145
	c-12.125,0.155-23.917,1.376-33.418,7.717C13.162,39.854,9.603,56.033,9.603,71.762c0,6.802,4.45,11.456,9.738,14.793
	c-1.096,2.191-2.179,4.384-3.259,6.575c-3.57,7.238-5.624,15.052-5.104,23.163l0.05,0.76l0.15,0.748
	c8.54,42.854,47.867,64.072,83.91,63.84c0.023,0,0.046-0.001,0.069-0.002c5.432-0.039,10.786-0.566,15.952-1.58
	c0.058-0.012,0.115-0.021,0.173-0.033c0.782-0.155,1.559-0.323,2.332-0.501c0.121-0.028,0.242-0.056,0.362-0.084
	c0.74-0.174,1.475-0.357,2.204-0.552c0.145-0.039,0.289-0.078,0.434-0.117c0.72-0.196,1.435-0.4,2.144-0.616
	c0.138-0.042,0.274-0.086,0.411-0.129c0.72-0.224,1.436-0.454,2.144-0.698c0.094-0.032,0.186-0.067,0.279-0.1
	c3.15-1.102,6.187-2.406,9.074-3.92c0.045-0.023,0.091-0.045,0.135-0.068c0.57-0.301,1.129-0.616,1.688-0.933
	c0.218-0.124,0.438-0.244,0.653-0.37c0.496-0.289,0.982-0.589,1.468-0.891c0.269-0.167,0.538-0.334,0.804-0.505
	c0.45-0.29,0.894-0.588,1.335-0.89c0.29-0.198,0.579-0.398,0.865-0.603c0.415-0.295,0.825-0.595,1.231-0.9
	c0.301-0.227,0.598-0.456,0.894-0.688c0.385-0.302,0.768-0.605,1.144-0.916c0.306-0.254,0.605-0.515,0.906-0.774
	c0.354-0.307,0.71-0.613,1.057-0.929c0.314-0.287,0.619-0.584,0.927-0.878c0.319-0.306,0.643-0.607,0.955-0.921
	c0.354-0.358,0.696-0.729,1.041-1.097c0.261-0.278,0.528-0.55,0.783-0.834c0.556-0.621,1.097-1.256,1.623-1.904
	c0.214-0.264,0.415-0.538,0.623-0.806c0.334-0.429,0.668-0.856,0.988-1.297c0.218-0.299,0.425-0.608,0.636-0.913
	c0.295-0.425,0.589-0.85,0.871-1.285c0.207-0.32,0.406-0.646,0.606-0.973c0.27-0.437,0.535-0.876,0.792-1.323
	c0.192-0.335,0.379-0.674,0.563-1.015c0.248-0.455,0.489-0.916,0.725-1.382c0.174-0.346,0.345-0.692,0.512-1.043
	c0.229-0.482,0.448-0.972,0.663-1.465c0.152-0.348,0.305-0.694,0.45-1.048c0.214-0.521,0.415-1.054,0.613-1.588
	c0.126-0.339,0.257-0.674,0.376-1.018c0.208-0.596,0.398-1.205,0.586-1.815c0.091-0.295,0.19-0.583,0.276-0.882
	c0.265-0.914,0.511-1.842,0.73-2.788l1.626,2.915l4.495,1.337c0.441,0.131,0.886,0.238,1.331,0.321
	c3.113,0.585,6.288,0.015,9.103-1.508c4.542-2.462,6.784-6.189,7.395-10.341c0.087-0.593,0.141-1.195,0.163-1.803
	c4.011-0.889,7.528-3.078,9.637-6.93c1.3-2.296,1.656-4.691,1.656-7.336C193.589,114.67,193.563,114.126,193.515,113.592z
	 M151.602,86.647c-0.156,0.59-0.545,1.353-1.175,1.353H147c0,0,0,0.177,0,0.294c0,0.038,0,0.489,0,1.352
	c-1,0.822-1.223,1.233-2.514,1.233c-1.021,0-3.388-0.431-6.87-1.293c-4.191-0.745-9.358-1.057-15.388-0.939
	c-2.273,2.114-4.336,6.011-6.137,11.692c5.403-2.585,9.541-3.544,12.438-2.88c2.468,0.55,3.691,2.035,3.691,4.463
	c0,1.529-1.253,2.958-3.761,4.29l-7.579,4.053c-2.193,1.489-3.546,3.212-4.056,5.17c-0.39,1.489-0.746,2.622-1.055,3.408
	c3.992-0.081,8.595-0.452,13.803-1.118c5.168-0.625,8.01-0.645,8.517-0.057c0.668,0.818,1.158,2.624,1.471,5.402
	c2.622-0.155,4.857-0.232,6.694-0.232c1.06,0,1.706,0.586,1.939,1.76c0,63.62-111.812,60.657-125.714-9.104
	c-0.354-5.518,0.958-11.292,3.938-17.331c16.042-32.557-5.289-11.921-5.289-26.493c0-51.526,42.491-32.786,77.311-38.713
	c9.698-1.907,21.845-4.81,31.546-1.878c2.74,0.82,4.111,2.466,4.111,4.934c0,2.622-1.51,6.049-4.523,10.281
	c-1.529,2.155-3.133,3.856-4.819,5.109c1.528,1.332,2.295,3.113,2.295,5.346c0.508-0.666,1.096-1.293,1.76-1.879
	c1.29-1.174,2.761-1.762,4.405-1.762c5.172,0,9.695,1.743,13.574,5.228c3.012,2.742,4.52,4.933,4.52,6.581
	c0,1.76-0.664,3.64-1.996,5.639c-1.333,1.997-1.997,3.151-1.997,3.466l2.174,3.993c1.486,2.626,2.231,5.053,2.231,7.283
	C151.72,85.962,151.681,86.412,151.602,86.647z M163.084,94.971c1.825-1.825,5.07-2.63,9.741-2.411
	c4.742,0.221,7.113,1.532,7.113,3.94c0,0.693-0.182,1.221-0.547,1.585l-4.378,0.057c-1.057,0-3.026-0.329-5.907-0.985
	c-2.92-0.693-4.963-1.312-6.131-1.859L163.084,94.971z M169.249,131.445c-0.61,0.327-1.164,0.42-1.658,0.272l-2.135-3.82
	c-0.504-0.931-1.151-2.82-1.95-5.666c-0.78-2.896-1.211-4.986-1.287-6.274l0.345-0.059c2.471,0.732,4.722,3.205,6.756,7.415
	C171.386,127.587,171.362,130.297,169.249,131.445z M181.873,116.872c-0.501,1.012-1.858,1.513-4.063,1.513
	c-2.646,0-6.302-1.827-10.963-5.483c-4.033-3.212-6.838-6.018-8.414-8.409c6.365-1.389,12.069-0.569,17.107,2.459
	c4.35,2.579,6.523,5.322,6.523,8.219C182.063,116.117,182.002,116.683,181.873,116.872z"/>
</svg>
