<?xml version="1.0" encoding="utf-8"?>
<!-- Generator: Adobe Illustrator 16.0.0, SVG Export Plug-In . SVG Version: 6.00 Build 0)  -->
<!DOCTYPE svg PUBLIC "-//W3C//DTD SVG 1.1//EN" "http://www.w3.org/Graphics/SVG/1.1/DTD/svg11.dtd">
<svg version="1.1" id="Layer_1" xmlns="http://www.w3.org/2000/svg" xmlns:xlink="http://www.w3.org/1999/xlink" x="0px" y="0px"
	 width="200px" height="200px" viewBox="0 0 200 200" enable-background="new 0 0 200 200" xml:space="preserve">
<path fill-rule="evenodd" clip-rule="evenodd" fill="#58595B" d="M103.459,7.156c3.383,1.773,7.617,4.287,10.487,4.569
	c0.851,0.286,9.291-3.974,11.511-0.969c2.857,2.531,6.369,5.985,9.088,6.946c0.755,0.48,9.972-1.637,11.407,1.81
	c2.168,3.145,4.752,7.336,7.162,8.922c0.619,0.647,10.07,0.796,10.642,4.488c1.354,3.57,2.855,8.26,4.819,10.375
	c0.445,0.775,9.59,3.185,9.258,6.904c0.46,3.792,0.799,8.705,2.195,11.229c0.246,0.858,8.549,5.387,7.339,8.918
	c-0.46,3.791-1.31,8.643-0.555,11.427c0.031,0.895,7.01,7.276,4.989,10.416c-1.356,3.57-3.339,8.079-3.273,10.962
	c-0.182,0.878,5.063,8.742,2.351,11.306c-2.167,3.144-5.176,7.048-5.803,9.862c-0.385,0.806,2.828,9.699-0.422,11.544
	c-2.856,2.529-6.71,5.598-7.99,8.18c-0.568,0.692,0.421,10.099-3.173,11.107c-3.382,1.773-7.855,3.833-9.721,6.036
	c-0.717,0.535-2.004,9.902-5.735,10.023c-3.708,0.914-8.545,1.842-10.884,3.531c-0.821,0.348-4.316,9.137-7.969,8.359
	c-3.816,0-8.738-0.257-11.41,0.827c-0.883,0.141-6.378,7.836-9.74,6.207c-3.708-0.913-8.419-2.338-11.275-1.928
	c-0.894-0.072-8.067,6.083-10.94,3.698c-3.381-1.773-7.62-4.289-10.487-4.568c-0.85-0.286-9.289,3.971-11.512,0.968
	c-2.856-2.529-6.368-5.983-9.085-6.946c-0.755-0.479-9.972,1.639-11.408-1.81c-2.171-3.143-4.753-7.337-7.162-8.923
	c-0.62-0.646-10.074-0.796-10.643-4.487c-1.353-3.569-2.858-8.26-4.819-10.375c-0.445-0.775-9.589-3.186-9.257-6.903
	c-0.463-3.791-0.799-8.704-2.198-11.231c-0.245-0.855-8.549-5.385-7.336-8.916c0.46-3.79,1.31-8.641,0.555-11.426
	c-0.034-0.896-7.01-7.277-4.989-10.417c1.353-3.571,3.338-8.078,3.272-10.962c0.181-0.878-5.066-8.744-2.353-11.307
	c2.168-3.143,5.177-7.045,5.801-9.862c0.388-0.807-2.824-9.698,0.424-11.542c2.859-2.53,6.709-5.6,7.992-8.184
	c0.568-0.693-0.421-10.096,3.173-11.105c3.381-1.774,7.854-3.833,9.718-6.036c0.718-0.535,2.006-9.901,5.738-10.022
	c3.708-0.915,8.544-1.842,10.879-3.534c0.826-0.349,4.318-9.136,7.974-8.359c3.816,0,8.737,0.258,11.408-0.828
	c0.883-0.14,6.378-7.835,9.74-6.208c3.706,0.914,8.421,2.341,11.276,1.928C93.411,10.927,100.587,4.771,103.459,7.156 M99.639-0.081
	c55.014,0,99.609,44.599,99.609,99.611c0,55.015-44.596,99.612-99.609,99.612c-55.016,0-99.611-44.598-99.611-99.612
	C0.028,44.518,44.623-0.081,99.639-0.081z"/>
<path fill-rule="evenodd" clip-rule="evenodd" fill="#58595B" d="M163.865,102.151L163.865,102.151c0-1.838-1.813-2.841-5.434-3.01
	c-3.568-0.167-6.046,0.446-7.44,1.841l-0.083,0.249c0.891,0.42,2.453,0.893,4.681,1.422c2.2,0.5,3.707,0.751,4.516,0.751
	l3.343-0.041C163.725,103.082,163.865,102.681,163.865,102.151 M162.236,118.863L162.236,118.863c1.685,0,2.72-0.382,3.105-1.152
	c0.097-0.145,0.143-0.578,0.143-1.302c0-2.213-1.658-4.306-4.981-6.278c-3.848-2.311-8.202-2.936-13.065-1.877
	c1.204,1.829,3.346,3.968,6.424,6.422C157.425,117.47,160.216,118.863,162.236,118.863z M155.699,128.841L155.699,128.841
	c1.613-0.877,1.633-2.946,0.053-6.211c-1.552-3.215-3.273-5.103-5.16-5.663l-0.262,0.043c0.056,0.985,0.385,2.582,0.982,4.792
	c0.607,2.174,1.106,3.616,1.491,4.328l1.626,2.918C154.811,129.16,155.231,129.093,155.699,128.841z M42.568,83.185
	c0,11.131,16.291-4.632,4.04,20.237c-2.275,4.61-3.277,9.023-3.008,13.234c10.62,53.285,96.018,55.545,96.018,6.953
	c-0.179-0.895-0.673-1.343-1.481-1.343c-1.403,0-3.11,0.059-5.114,0.18c-0.236-2.125-0.611-3.502-1.12-4.129
	c-0.387-0.449-2.559-0.434-6.506,0.043c-3.979,0.509-7.493,0.794-10.543,0.856c0.237-0.6,0.509-1.467,0.806-2.604
	c0.387-1.497,1.421-2.813,3.099-3.951l5.787-3.093c1.915-1.017,2.871-2.11,2.871-3.276c0-1.857-0.942-2.992-2.828-3.408
	c-2.213-0.509-5.383,0.223-9.512,2.197c1.377-4.336,2.931-7.314,4.667-8.93c4.605-0.09,8.51,0.148,11.712,0.716
	c2.66,0.659,4.381,0.988,5.157,0.988c0.988,0,1.57-0.313,1.75-0.942c0-0.659,0-1.001,0-1.032c0-0.089,0-0.165,0-0.223h2.963
	c0.479-0.24,0.776-0.583,0.897-1.033c0.059-0.18,0.088-0.524,0.088-1.031c0-1.705-0.567-3.559-1.704-5.566l-1.661-3.049
	c0-0.24,0.509-1.122,1.527-2.647c1.017-1.526,1.525-2.961,1.525-4.307c0-1.258-1.152-2.932-3.454-5.026
	c-2.963-2.662-6.418-3.992-10.366-3.992c-1.257,0-2.38,0.447-3.363,1.346c-0.509,0.447-0.959,0.926-1.347,1.435
	c0-1.706-0.587-3.067-1.75-4.083c1.285-0.957,2.513-2.256,3.679-3.903c2.302-3.23,3.454-5.849,3.454-7.854
	c0-1.884-1.046-3.14-3.14-3.766c-7.411-2.24-16.687-0.021-24.094,1.434C75.02,58.145,42.568,43.832,42.568,83.185z"/>
<path fill-rule="evenodd" clip-rule="evenodd" fill="#58595B" d="M99.639,22.441c42.576,0,77.091,34.513,77.091,77.091
	s-34.515,77.092-77.091,77.092c-42.578,0-77.092-34.515-77.092-77.092S57.061,22.441,99.639,22.441 M99.639,18.07
	c44.989,0,81.459,36.471,81.459,81.461c0,44.988-36.47,81.46-81.459,81.46c-44.99,0-81.463-36.473-81.463-81.46
	C18.176,54.542,54.648,18.07,99.639,18.07z"/>
</svg>
